<svg width="87" height="36" viewBox="0 0 87 36" fill="none" xmlns="http://www.w3.org/2000/svg">
<path d="M46.3891 29.7129C45.8725 29.7129 45.4233 29.6118 45.0415 29.4097C44.6821 29.23 44.3901 28.9829 44.1655 28.6685C43.9409 28.354 43.7949 27.9946 43.7275 27.5903C43.6601 27.1636 43.6826 26.7144 43.7949 26.2427C43.8623 25.9282 43.9746 25.5127 44.1318 24.9961C44.289 24.457 44.4463 23.8843 44.6035 23.2778C44.7832 22.6489 44.9404 22.0312 45.0752 21.4248C45.2324 20.7959 45.3335 20.2344 45.3784 19.7402C45.4233 19.2236 45.4009 18.8081 45.311 18.4936C45.2212 18.1567 45.0303 17.9883 44.7383 17.9883C44.3789 17.9883 44.0083 18.1118 43.6265 18.3589C43.2446 18.5835 42.8516 18.8979 42.4473 19.3022C42.0654 19.7065 41.6724 20.1782 41.2681 20.7173C40.8862 21.2339 40.5044 21.7729 40.1225 22.3345C39.9204 23.0981 39.7519 23.772 39.6172 24.356C39.4824 24.9175 39.3589 25.4341 39.2466 25.9058C39.1567 26.355 39.0669 26.7593 38.977 27.1186C38.8872 27.4556 38.8086 27.7812 38.7412 28.0957C38.6738 28.3203 38.4717 28.5449 38.1348 28.7695C37.7978 28.9717 37.4385 29.1401 37.0566 29.2749C36.6748 29.4097 36.3491 29.477 36.0796 29.477C35.7876 29.477 35.664 29.376 35.709 29.1738C35.7314 29.0391 35.81 28.7358 35.9448 28.2642C36.0571 27.7925 36.2031 27.2422 36.3828 26.6133C36.54 25.9619 36.7085 25.2768 36.8882 24.5581C37.0679 23.8394 37.2363 23.1543 37.3935 22.5029C37.5058 21.9863 37.6294 21.4136 37.7641 20.7847C37.8765 20.2456 38.0112 19.6167 38.1684 18.8979C38.3481 18.1792 38.5503 17.3931 38.7749 16.5395C38.9321 16.4048 39.0893 16.3037 39.2466 16.2363C39.4263 16.1465 39.6059 16.0791 39.7856 16.0342C39.9653 15.9668 40.1562 15.9219 40.3584 15.8994C40.5381 15.8994 40.7178 15.9106 40.8974 15.9331C41.0547 15.9556 41.2119 16.0005 41.3691 16.0679C41.5488 16.1128 41.706 16.1914 41.8408 16.3037C41.7734 16.4609 41.6948 16.6855 41.605 16.9775C41.5151 17.2471 41.4253 17.5391 41.3354 17.8535C41.2456 18.2129 41.1333 18.5835 40.9985 18.9653C41.2905 18.561 41.6162 18.1567 41.9756 17.7524C42.3574 17.3257 42.7617 16.9438 43.1885 16.6069C43.6377 16.27 44.1094 16.0005 44.6035 15.7983C45.0976 15.5737 45.603 15.4614 46.1196 15.4614C46.5464 15.4614 46.9282 15.585 47.2651 15.832C47.602 16.0791 47.8603 16.4272 48.04 16.8765C48.2422 17.3032 48.3545 17.8198 48.3769 18.4263C48.4219 19.0327 48.3432 19.6953 48.1411 20.4141L47.7705 21.8965C47.6582 22.3682 47.5122 22.9297 47.3325 23.581C47.1753 24.21 46.9731 24.9062 46.7261 25.6699C46.5913 26.1641 46.5351 26.5908 46.5576 26.9502C46.6025 27.3096 46.8271 27.4893 47.2314 27.4893C47.6357 27.4893 48.1411 27.2422 48.7475 26.748C49.3765 26.2539 50.0054 25.6587 50.6343 24.9624C51.2632 24.2661 51.8584 23.5586 52.4199 22.8398C52.9814 22.0986 53.4082 21.5034 53.7002 21.0542C53.9023 20.7622 54.0932 20.5713 54.2729 20.4814C54.4526 20.3916 54.5874 20.3804 54.6772 20.4477C54.7895 20.5151 54.8457 20.6724 54.8457 20.9194C54.8457 21.144 54.7558 21.436 54.5762 21.7954C54.4189 22.1099 54.1719 22.5254 53.8349 23.042C53.5205 23.5586 53.1387 24.1089 52.6894 24.6929C52.2402 25.2768 51.7573 25.8721 51.2407 26.4785C50.7241 27.0625 50.185 27.6016 49.6235 28.0957C49.062 28.5674 48.5005 28.9492 47.939 29.2412C47.3999 29.5557 46.8833 29.7129 46.3891 29.7129ZM67.581 21.8628C66.9072 22.8511 66.1435 23.8169 65.29 24.7602C64.4365 25.6811 63.5268 26.5122 62.561 27.2534C61.6177 27.9722 60.6406 28.5561 59.6299 29.0054C58.6416 29.4546 57.6758 29.6792 56.7324 29.6792C56.2383 29.6792 55.6992 29.5557 55.1152 29.3086C54.5537 29.084 54.0371 28.7246 53.5654 28.2305C53.0937 27.7363 52.7119 27.0962 52.4199 26.3101C52.1504 25.5239 52.0718 24.5693 52.1841 23.4463C52.2739 22.5254 52.5547 21.5596 53.0264 20.5488C53.5205 19.5156 54.1157 18.5723 54.812 17.7187C55.5307 16.8652 56.3281 16.1577 57.2041 15.5962C58.1025 15.0347 59.001 14.7539 59.8994 14.7539C60.7529 14.7539 61.3706 14.9673 61.7524 15.394C62.1343 15.8208 62.3027 16.3486 62.2578 16.9775C62.1904 17.6738 61.9883 18.314 61.6514 18.8979C61.3369 19.4819 60.9551 20.0098 60.5058 20.4814C60.0566 20.9531 59.5737 21.3799 59.0571 21.7617C58.563 22.1435 58.0913 22.4917 57.6421 22.8061C57.1479 23.1431 56.6763 23.4687 56.227 23.7832C55.7778 24.0752 55.3848 24.3447 55.0478 24.5918C55.0703 25.1533 55.1714 25.625 55.3511 26.0068C55.5307 26.3887 55.7554 26.7031 56.0249 26.9502C56.2944 27.1748 56.5976 27.3433 56.9346 27.4556C57.2939 27.5454 57.6533 27.5903 58.0127 27.5903C58.7764 27.5903 59.5737 27.3545 60.4048 26.8828C61.2358 26.3887 62.0444 25.8047 62.8306 25.1309C63.6391 24.4346 64.3804 23.7158 65.0542 22.9746C65.7505 22.2334 66.3232 21.5933 66.7724 21.0542C66.9297 20.8745 67.0869 20.7734 67.2441 20.751C67.4238 20.706 67.5586 20.7285 67.6484 20.8184C67.7607 20.8857 67.8169 21.0205 67.8169 21.2227C67.8169 21.4023 67.7383 21.6157 67.581 21.8628ZM58.956 16.6743C58.6865 16.6743 58.3608 16.8091 57.979 17.0786C57.6196 17.3481 57.2602 17.7412 56.9009 18.2578C56.5415 18.7519 56.2046 19.3696 55.8901 20.1108C55.5757 20.8296 55.3398 21.6606 55.1826 22.604C55.4521 22.4018 55.7441 22.1997 56.0586 21.9976C56.373 21.7729 56.6875 21.5371 57.0019 21.29C57.9678 20.5488 58.6416 19.8975 59.0234 19.3359C59.4053 18.7744 59.6186 18.2915 59.6636 17.8872C59.7085 17.4604 59.6636 17.1572 59.5288 16.9775C59.394 16.7754 59.2031 16.6743 58.956 16.6743ZM69.9057 27.7251C70.0405 27.8149 70.209 27.8599 70.4111 27.8599C70.6357 27.8599 70.8491 27.8149 71.0513 27.7251C71.2759 27.6352 71.478 27.5117 71.6577 27.3545C71.8599 27.1973 72.0058 26.9951 72.0957 26.748C72.1855 26.501 72.1855 26.1528 72.0957 25.7036C72.0058 25.2319 71.8599 24.7378 71.6577 24.2212C71.478 23.6821 71.2759 23.1431 71.0513 22.604C70.8266 22.0649 70.6357 21.5708 70.4785 21.1216C70.3437 20.7847 70.2314 20.4702 70.1416 20.1782C70.0517 19.9311 69.9619 19.6953 69.8721 19.4707C69.8047 19.2236 69.7485 19.0552 69.7036 18.9653C69.5913 19.145 69.3891 19.437 69.0972 19.8413C68.8276 20.2456 68.5244 20.6724 68.1875 21.1216C67.873 21.5483 67.5698 21.9526 67.2778 22.3345C66.9858 22.6938 66.7837 22.9409 66.6714 23.0757C66.4917 23.2778 66.312 23.4014 66.1323 23.4463C65.9751 23.4687 65.8403 23.4351 65.728 23.3452C65.6157 23.2329 65.5483 23.0869 65.5259 22.9072C65.5259 22.7051 65.6157 22.4692 65.7954 22.1997C65.9302 22.02 66.1323 21.7393 66.4018 21.3574C66.6714 20.9531 66.9409 20.5488 67.2104 20.1445C67.48 19.7178 67.727 19.3472 67.9516 19.0327C68.1763 18.6958 68.2998 18.4936 68.3223 18.4263C68.3672 18.2466 68.2998 18.0107 68.1201 17.7187C67.9629 17.4268 67.9404 17.0898 68.0527 16.708C68.1426 16.3935 68.3447 16.0342 68.6592 15.6299C68.9736 15.2031 69.3442 14.8213 69.771 14.4844C70.1977 14.1475 70.6357 13.9004 71.0849 13.7432C71.5342 13.5635 71.9385 13.5635 72.2978 13.7432C72.5898 13.9228 72.8257 14.125 73.0054 14.3496C73.185 14.5518 73.2524 14.7651 73.2075 14.9897C73.1626 15.102 73.0952 15.248 73.0054 15.4277C72.9155 15.6074 72.7807 15.832 72.6011 16.1016C72.4214 16.3486 72.1631 16.6743 71.8262 17.0786C71.8935 17.5952 71.9834 18.0669 72.0957 18.4936C72.2305 18.9204 72.354 19.291 72.4663 19.6055C72.6011 19.9873 72.7471 20.3354 72.9043 20.6499C73.1064 21.0542 73.3198 21.4697 73.5444 21.8965C73.769 22.3232 73.9712 22.75 74.1509 23.1768C74.3306 23.581 74.4766 23.9629 74.5889 24.3223C74.7012 24.6816 74.7349 24.9849 74.6899 25.2319C74.6225 25.6138 74.4204 26.0742 74.0835 26.6133C73.769 27.1523 73.3647 27.6802 72.8706 28.1968C72.3989 28.6909 71.8486 29.1177 71.2197 29.477C70.6133 29.8364 69.9731 30.0161 69.2993 30.0161C68.8276 30.0161 68.3672 29.8701 67.918 29.5781C67.4912 29.2861 67.1206 28.9492 66.8061 28.5674C66.5141 28.1631 66.2895 27.77 66.1323 27.3882C65.9975 27.0063 65.9863 26.7144 66.0986 26.5122C66.2334 26.2427 66.3569 26.0293 66.4692 25.8721C66.5815 25.7148 66.75 25.5352 66.9746 25.333C67.0644 25.2656 67.1767 25.187 67.3115 25.0972C67.4238 25.0298 67.581 24.9624 67.7832 24.895C67.9853 24.8276 68.2212 24.749 68.4907 24.6592C68.7153 25.3555 68.9175 25.9058 69.0972 26.3101C69.2768 26.6919 69.4228 26.9951 69.5351 27.2197C69.6699 27.4668 69.7934 27.6352 69.9057 27.7251ZM82.0347 27.7251C82.1694 27.8149 82.3379 27.8599 82.54 27.8599C82.7646 27.8599 82.978 27.8149 83.1802 27.7251C83.4048 27.6352 83.6069 27.5117 83.7866 27.3545C83.9888 27.1973 84.1348 26.9951 84.2246 26.748C84.3144 26.501 84.3144 26.1528 84.2246 25.7036C84.1348 25.2319 83.9888 24.7378 83.7866 24.2212C83.6069 23.6821 83.4048 23.1431 83.1802 22.604C82.9556 22.0649 82.7646 21.5708 82.6074 21.1216C82.4726 20.7847 82.3603 20.4702 82.2705 20.1782C82.1807 19.9311 82.0908 19.6953 82.001 19.4707C81.9336 19.2236 81.8774 19.0552 81.8325 18.9653C81.7202 19.145 81.5181 19.437 81.2261 19.8413C80.9565 20.2456 80.6533 20.6724 80.3164 21.1216C80.0019 21.5483 79.6987 21.9526 79.4067 22.3345C79.1147 22.6938 78.9126 22.9409 78.8003 23.0757C78.6206 23.2778 78.4409 23.4014 78.2612 23.4463C78.104 23.4687 77.9692 23.4351 77.8569 23.3452C77.7446 23.2329 77.6772 23.0869 77.6548 22.9072C77.6548 22.7051 77.7446 22.4692 77.9243 22.1997C78.0591 22.02 78.2612 21.7393 78.5307 21.3574C78.8003 20.9531 79.0698 20.5488 79.3393 20.1445C79.6089 19.7178 79.8559 19.3472 80.0806 19.0327C80.3052 18.6958 80.4287 18.4936 80.4512 18.4263C80.4961 18.2466 80.4287 18.0107 80.249 17.7187C80.0918 17.4268 80.0693 17.0898 80.1816 16.708C80.2715 16.3935 80.4736 16.0342 80.7881 15.6299C81.1025 15.2031 81.4731 14.8213 81.8999 14.4844C82.3266 14.1475 82.7646 13.9004 83.2139 13.7432C83.6631 13.5635 84.0674 13.5635 84.4267 13.7432C84.7187 13.9228 84.9546 14.125 85.1343 14.3496C85.314 14.5518 85.3813 14.7651 85.3364 14.9897C85.2915 15.102 85.2241 15.248 85.1343 15.4277C85.0444 15.6074 84.9097 15.832 84.73 16.1016C84.5503 16.3486 84.292 16.6743 83.9551 17.0786C84.0224 17.5952 84.1123 18.0669 84.2246 18.4936C84.3594 18.9204 84.4829 19.291 84.5952 19.6055C84.73 19.9873 84.876 20.3354 85.0332 20.6499C85.2353 21.0542 85.4487 21.4697 85.6733 21.8965C85.8979 22.3232 86.1001 22.75 86.2798 23.1768C86.4595 23.581 86.6055 23.9629 86.7178 24.3223C86.8301 24.6816 86.8638 24.9849 86.8188 25.2319C86.7515 25.6138 86.5493 26.0742 86.2124 26.6133C85.8979 27.1523 85.4936 27.6802 84.9995 28.1968C84.5278 28.6909 83.9775 29.1177 83.3486 29.477C82.7422 29.8364 82.102 30.0161 81.4282 30.0161C80.9565 30.0161 80.4961 29.8701 80.0469 29.5781C79.6201 29.2861 79.2495 28.9492 78.935 28.5674C78.6431 28.1631 78.4184 27.77 78.2612 27.3882C78.1265 27.0063 78.1152 26.7144 78.2275 26.5122C78.3623 26.2427 78.4858 26.0293 78.5981 25.8721C78.7104 25.7148 78.8789 25.5352 79.1035 25.333C79.1933 25.2656 79.3057 25.187 79.4404 25.0972C79.5527 25.0298 79.7099 24.9624 79.9121 24.895C80.1142 24.8276 80.3501 24.749 80.6196 24.6592C80.8442 25.3555 81.0464 25.9058 81.2261 26.3101C81.4057 26.6919 81.5517 26.9951 81.664 27.2197C81.7988 27.4668 81.9224 27.6352 82.0347 27.7251Z" fill="black"/>
<path d="M32.2427 28.2334C32.7593 28.2334 33.0176 28.4917 33.0176 29.0083C33.0176 30.9624 32.0517 32.602 30.1201 33.9272C28.8174 34.7808 27.29 35.2075 25.5381 35.2075C24.1006 35.2075 23 34.8706 22.2363 34.1968C20.8662 32.9839 20.1811 31.5015 20.1811 29.7495C20.1811 27.5259 21.1133 24.123 22.9775 19.541C19.5185 24.2129 17.0928 27.3237 15.7002 28.8735C14.3076 30.4009 13.0947 31.5913 12.0615 32.4448C9.81541 34.2866 7.78271 35.2075 5.96341 35.2075C3.17822 35.2075 1.32519 34.0059 0.40429 31.6025C0.13476 30.8613 0 30.019 0 29.0757C0 28.1099 0.15722 27.043 0.47168 25.875C0.80859 24.6846 1.23535 23.4492 1.75195 22.1689C2.26855 20.8887 2.83008 19.5747 3.43651 18.227L5.25581 14.1841C7.59181 8.99561 8.45651 5.91851 7.85011 4.95264C7.58061 4.52588 7.07521 4.09913 6.33401 3.67237C6.06441 3.51514 5.92971 3.24561 5.92971 2.86377C5.92971 2.45948 6.08691 2.07764 6.40141 1.71827C6.73831 1.35889 7.16501 1.04444 7.68161 0.77491C8.78221 0.25831 9.88281 0 10.9834 0C12.084 0 12.915 0.12354 13.4766 0.37061C14.0605 0.59522 14.5322 0.88721 14.8916 1.24659C15.6328 1.9878 16.0034 2.80762 16.0034 3.70606C16.0034 4.6045 15.8574 5.61524 15.5654 6.73831C15.2734 7.83891 14.8916 9.04051 14.4199 10.3433C13.9482 11.646 13.4316 12.9936 12.8701 14.3862C11.3203 18.0249 10.2759 20.4282 9.73681 21.5962L8.49021 24.1904C7.79391 25.7402 7.44581 26.8296 7.44581 27.4585C7.44581 28.0874 7.54691 28.5366 7.74901 28.8061C7.95121 29.0532 8.31051 29.1768 8.82711 29.1768C9.36621 29.1768 9.98391 28.9297 10.6802 28.4355C11.3765 27.9414 12.1401 27.2788 12.9712 26.4477C13.8022 25.6167 14.667 24.6621 15.5654 23.584C16.4639 22.4834 17.3398 21.3491 18.1933 20.1811C19.8779 17.8901 21.1133 16.0483 21.8994 14.6558C26.6611 6.23291 29.1992 1.83057 29.5137 1.44873C30.2324 0.48291 30.9624 0 31.7036 0C32.4673 0 33.1299 0.0898503 33.6914 0.26954C34.2529 0.42676 34.7358 0.6626 35.1401 0.97706C36.0835 1.67334 36.3867 2.36963 36.0498 3.06592C30.5693 14.4985 27.6157 21.686 27.189 24.6284C27.0766 25.6392 27.0205 26.3354 27.0205 26.7173C27.0205 28.4243 27.5371 29.2778 28.5703 29.2778C29.5361 29.2778 30.3335 29.1094 30.9624 28.7725C31.5913 28.4131 32.0181 28.2334 32.2427 28.2334Z" fill="black"/>
</svg>
