<svg width="83" height="79" viewBox="0 0 83 79" fill="none" xmlns="http://www.w3.org/2000/svg">
<path d="M47.1211 57.6836C46.7018 57.6836 46.3372 57.6016 46.0273 57.4375C45.7357 57.2917 45.4987 57.0911 45.3164 56.8359C45.1341 56.5807 45.0156 56.2891 44.9609 55.9609C44.9062 55.6146 44.9245 55.25 45.0156 54.8672C45.0703 54.612 45.1615 54.2747 45.2891 53.8555C45.4167 53.418 45.5443 52.9531 45.6719 52.4609C45.8177 51.9505 45.9453 51.4492 46.0547 50.957C46.1823 50.4466 46.2643 49.9909 46.3008 49.5898C46.3372 49.1706 46.319 48.8333 46.2461 48.5781C46.1732 48.3047 46.0182 48.168 45.7812 48.168C45.4896 48.168 45.1888 48.2682 44.8789 48.4688C44.569 48.651 44.25 48.9062 43.9219 49.2344C43.612 49.5625 43.293 49.9453 42.9648 50.3828C42.6549 50.8021 42.3451 51.2396 42.0352 51.6953C41.8711 52.3151 41.7344 52.862 41.625 53.3359C41.5156 53.7917 41.4154 54.2109 41.3242 54.5938C41.2513 54.9583 41.1784 55.2865 41.1055 55.5781C41.0326 55.8516 40.9688 56.1159 40.9141 56.3711C40.8594 56.5534 40.6953 56.7357 40.4219 56.918C40.1484 57.082 39.8568 57.2188 39.5469 57.3281C39.237 57.4375 38.9727 57.4922 38.7539 57.4922C38.5169 57.4922 38.4167 57.4102 38.4531 57.2461C38.4714 57.1367 38.5352 56.8906 38.6445 56.5078C38.7357 56.125 38.8542 55.6784 39 55.168C39.1276 54.6393 39.2643 54.0833 39.4102 53.5C39.556 52.9167 39.6927 52.3607 39.8203 51.832C39.9115 51.4128 40.0117 50.9479 40.1211 50.4375C40.2122 50 40.3216 49.4896 40.4492 48.9062C40.5951 48.3229 40.7591 47.6849 40.9414 46.9922C41.069 46.8828 41.1966 46.8008 41.3242 46.7461C41.4701 46.6732 41.6159 46.6185 41.7617 46.582C41.9076 46.5273 42.0625 46.4909 42.2266 46.4727C42.3724 46.4727 42.5182 46.4818 42.6641 46.5C42.7917 46.5182 42.9193 46.5547 43.0469 46.6094C43.1927 46.6458 43.3203 46.7096 43.4297 46.8008C43.375 46.9284 43.3112 47.1107 43.2383 47.3477C43.1654 47.5664 43.0924 47.8034 43.0195 48.0586C42.9466 48.3503 42.8555 48.651 42.7461 48.9609C42.9831 48.6328 43.2474 48.3047 43.5391 47.9766C43.849 47.6302 44.1771 47.3203 44.5234 47.0469C44.888 46.7734 45.2708 46.5547 45.6719 46.3906C46.0729 46.2083 46.4831 46.1172 46.9023 46.1172C47.2487 46.1172 47.5586 46.2174 47.832 46.418C48.1055 46.6185 48.3151 46.901 48.4609 47.2656C48.625 47.612 48.7161 48.0312 48.7344 48.5234C48.7708 49.0156 48.707 49.5534 48.543 50.1367L48.2422 51.3398C48.151 51.7227 48.0326 52.1784 47.8867 52.707C47.7591 53.2174 47.5951 53.7826 47.3945 54.4023C47.2852 54.8034 47.2396 55.1497 47.2578 55.4414C47.2943 55.7331 47.4766 55.8789 47.8047 55.8789C48.1328 55.8789 48.543 55.6784 49.0352 55.2773C49.5456 54.8763 50.056 54.3932 50.5664 53.8281C51.0768 53.263 51.5599 52.6888 52.0156 52.1055C52.4714 51.5039 52.8177 51.0208 53.0547 50.6562C53.2188 50.4193 53.3737 50.2643 53.5195 50.1914C53.6654 50.1185 53.7747 50.1094 53.8477 50.1641C53.9388 50.2188 53.9844 50.3464 53.9844 50.5469C53.9844 50.7292 53.9115 50.9661 53.7656 51.2578C53.638 51.513 53.4375 51.8503 53.1641 52.2695C52.9089 52.6888 52.599 53.1354 52.2344 53.6094C51.8698 54.0833 51.4779 54.5664 51.0586 55.0586C50.6393 55.5326 50.2018 55.9701 49.7461 56.3711C49.2904 56.7539 48.8346 57.0638 48.3789 57.3008C47.9414 57.556 47.5221 57.6836 47.1211 57.6836ZM64.3203 51.3125C63.7734 52.1146 63.1536 52.8984 62.4609 53.6641C61.7682 54.4115 61.0299 55.0859 60.2461 55.6875C59.4805 56.2708 58.6875 56.7448 57.8672 57.1094C57.0651 57.474 56.2812 57.6562 55.5156 57.6562C55.1146 57.6562 54.6771 57.556 54.2031 57.3555C53.7474 57.1732 53.3281 56.8815 52.9453 56.4805C52.5625 56.0794 52.2526 55.5599 52.0156 54.9219C51.7969 54.2839 51.7331 53.5091 51.8242 52.5977C51.8971 51.8503 52.125 51.0664 52.5078 50.2461C52.9089 49.4076 53.3919 48.6419 53.957 47.9492C54.5404 47.2565 55.1875 46.6823 55.8984 46.2266C56.6276 45.7708 57.3568 45.543 58.0859 45.543C58.7786 45.543 59.2799 45.7161 59.5898 46.0625C59.8997 46.4089 60.0365 46.8372 60 47.3477C59.9453 47.9128 59.7812 48.4323 59.5078 48.9062C59.2526 49.3802 58.9427 49.8086 58.5781 50.1914C58.2135 50.5742 57.8216 50.9206 57.4023 51.2305C57.0013 51.5404 56.6185 51.8229 56.2539 52.0781C55.8529 52.3516 55.4701 52.6159 55.1055 52.8711C54.7409 53.1081 54.4219 53.3268 54.1484 53.5273C54.1667 53.9831 54.2487 54.3659 54.3945 54.6758C54.5404 54.9857 54.7227 55.2409 54.9414 55.4414C55.1602 55.6237 55.4062 55.7604 55.6797 55.8516C55.9714 55.9245 56.263 55.9609 56.5547 55.9609C57.1745 55.9609 57.8216 55.7695 58.4961 55.3867C59.1706 54.9857 59.8268 54.5117 60.4648 53.9648C61.1211 53.3997 61.7227 52.8164 62.2695 52.2148C62.8346 51.6133 63.2995 51.0938 63.6641 50.6562C63.7917 50.5104 63.9193 50.4284 64.0469 50.4102C64.1927 50.3737 64.3021 50.3919 64.375 50.4648C64.4661 50.5195 64.5117 50.6289 64.5117 50.793C64.5117 50.9388 64.4479 51.112 64.3203 51.3125ZM57.3203 47.1016C57.1016 47.1016 56.8372 47.2109 56.5273 47.4297C56.2357 47.6484 55.944 47.9674 55.6523 48.3867C55.3607 48.7878 55.0872 49.2891 54.832 49.8906C54.5768 50.474 54.3854 51.1484 54.2578 51.9141C54.4766 51.75 54.7135 51.5859 54.9688 51.4219C55.224 51.2396 55.4792 51.0482 55.7344 50.8477C56.5182 50.2461 57.0651 49.7174 57.375 49.2617C57.6849 48.806 57.8581 48.4141 57.8945 48.0859C57.931 47.7396 57.8945 47.4935 57.7852 47.3477C57.6758 47.1836 57.5208 47.1016 57.3203 47.1016ZM66.207 56.0703C66.3164 56.1432 66.4531 56.1797 66.6172 56.1797C66.7995 56.1797 66.9727 56.1432 67.1367 56.0703C67.319 55.9974 67.4831 55.8971 67.6289 55.7695C67.793 55.6419 67.9115 55.4779 67.9844 55.2773C68.0573 55.0768 68.0573 54.7943 67.9844 54.4297C67.9115 54.0469 67.793 53.6458 67.6289 53.2266C67.4831 52.7891 67.319 52.3516 67.1367 51.9141C66.9544 51.4766 66.7995 51.0755 66.6719 50.7109C66.5625 50.4375 66.4714 50.1823 66.3984 49.9453C66.3255 49.7448 66.2526 49.5534 66.1797 49.3711C66.125 49.1706 66.0794 49.0339 66.043 48.9609C65.9518 49.1068 65.7878 49.3438 65.5508 49.6719C65.332 50 65.0859 50.3464 64.8125 50.7109C64.5573 51.0573 64.3112 51.3854 64.0742 51.6953C63.8372 51.987 63.6732 52.1875 63.582 52.2969C63.4362 52.4609 63.2904 52.5612 63.1445 52.5977C63.0169 52.6159 62.9076 52.5885 62.8164 52.5156C62.7253 52.4245 62.6706 52.306 62.6523 52.1602C62.6523 51.9961 62.7253 51.8047 62.8711 51.5859C62.9805 51.4401 63.1445 51.2122 63.3633 50.9023C63.582 50.5742 63.8008 50.2461 64.0195 49.918C64.2383 49.5716 64.4388 49.2708 64.6211 49.0156C64.8034 48.7422 64.9036 48.5781 64.9219 48.5234C64.9583 48.3776 64.9036 48.1862 64.7578 47.9492C64.6302 47.7122 64.612 47.4388 64.7031 47.1289C64.776 46.8737 64.9401 46.582 65.1953 46.2539C65.4505 45.9076 65.7513 45.5977 66.0977 45.3242C66.444 45.0508 66.7995 44.8503 67.1641 44.7227C67.5286 44.5768 67.8568 44.5768 68.1484 44.7227C68.3854 44.8685 68.5768 45.0326 68.7227 45.2148C68.8685 45.3789 68.9232 45.5521 68.8867 45.7344C68.8503 45.8255 68.7956 45.944 68.7227 46.0898C68.6497 46.2357 68.5404 46.418 68.3945 46.6367C68.2487 46.8372 68.0391 47.1016 67.7656 47.4297C67.8203 47.849 67.8932 48.2318 67.9844 48.5781C68.0938 48.9245 68.194 49.2253 68.2852 49.4805C68.3945 49.7904 68.513 50.0729 68.6406 50.3281C68.8047 50.6562 68.9779 50.9935 69.1602 51.3398C69.3424 51.6862 69.5065 52.0326 69.6523 52.3789C69.7982 52.707 69.9167 53.0169 70.0078 53.3086C70.099 53.6003 70.1263 53.8464 70.0898 54.0469C70.0352 54.3568 69.8711 54.7305 69.5977 55.168C69.3424 55.6055 69.0143 56.0339 68.6133 56.4531C68.2305 56.8542 67.7839 57.2005 67.2734 57.4922C66.7812 57.7839 66.2617 57.9297 65.7148 57.9297C65.332 57.9297 64.9583 57.8112 64.5938 57.5742C64.2474 57.3372 63.9466 57.0638 63.6914 56.7539C63.4544 56.4258 63.2721 56.1068 63.1445 55.7969C63.0352 55.487 63.026 55.25 63.1172 55.0859C63.2266 54.8672 63.3268 54.694 63.418 54.5664C63.5091 54.4388 63.6458 54.293 63.8281 54.1289C63.901 54.0742 63.9922 54.0104 64.1016 53.9375C64.1927 53.8828 64.3203 53.8281 64.4844 53.7734C64.6484 53.7188 64.8398 53.6549 65.0586 53.582C65.2409 54.1471 65.4049 54.5938 65.5508 54.9219C65.6966 55.2318 65.8151 55.4779 65.9062 55.6602C66.0156 55.8607 66.1159 55.9974 66.207 56.0703ZM76.0508 56.0703C76.1602 56.1432 76.2969 56.1797 76.4609 56.1797C76.6432 56.1797 76.8164 56.1432 76.9805 56.0703C77.1628 55.9974 77.3268 55.8971 77.4727 55.7695C77.6367 55.6419 77.7552 55.4779 77.8281 55.2773C77.901 55.0768 77.901 54.7943 77.8281 54.4297C77.7552 54.0469 77.6367 53.6458 77.4727 53.2266C77.3268 52.7891 77.1628 52.3516 76.9805 51.9141C76.7982 51.4766 76.6432 51.0755 76.5156 50.7109C76.4062 50.4375 76.3151 50.1823 76.2422 49.9453C76.1693 49.7448 76.0964 49.5534 76.0234 49.3711C75.9688 49.1706 75.9232 49.0339 75.8867 48.9609C75.7956 49.1068 75.6315 49.3438 75.3945 49.6719C75.1758 50 74.9297 50.3464 74.6562 50.7109C74.401 51.0573 74.1549 51.3854 73.918 51.6953C73.681 51.987 73.5169 52.1875 73.4258 52.2969C73.2799 52.4609 73.1341 52.5612 72.9883 52.5977C72.8607 52.6159 72.7513 52.5885 72.6602 52.5156C72.569 52.4245 72.5143 52.306 72.4961 52.1602C72.4961 51.9961 72.569 51.8047 72.7148 51.5859C72.8242 51.4401 72.9883 51.2122 73.207 50.9023C73.4258 50.5742 73.6445 50.2461 73.8633 49.918C74.082 49.5716 74.2826 49.2708 74.4648 49.0156C74.6471 48.7422 74.7474 48.5781 74.7656 48.5234C74.8021 48.3776 74.7474 48.1862 74.6016 47.9492C74.474 47.7122 74.4557 47.4388 74.5469 47.1289C74.6198 46.8737 74.7839 46.582 75.0391 46.2539C75.2943 45.9076 75.5951 45.5977 75.9414 45.3242C76.2878 45.0508 76.6432 44.8503 77.0078 44.7227C77.3724 44.5768 77.7005 44.5768 77.9922 44.7227C78.2292 44.8685 78.4206 45.0326 78.5664 45.2148C78.7122 45.3789 78.7669 45.5521 78.7305 45.7344C78.694 45.8255 78.6393 45.944 78.5664 46.0898C78.4935 46.2357 78.3841 46.418 78.2383 46.6367C78.0924 46.8372 77.8828 47.1016 77.6094 47.4297C77.6641 47.849 77.737 48.2318 77.8281 48.5781C77.9375 48.9245 78.0378 49.2253 78.1289 49.4805C78.2383 49.7904 78.3568 50.0729 78.4844 50.3281C78.6484 50.6562 78.8216 50.9935 79.0039 51.3398C79.1862 51.6862 79.3503 52.0326 79.4961 52.3789C79.6419 52.707 79.7604 53.0169 79.8516 53.3086C79.9427 53.6003 79.9701 53.8464 79.9336 54.0469C79.8789 54.3568 79.7148 54.7305 79.4414 55.168C79.1862 55.6055 78.8581 56.0339 78.457 56.4531C78.0742 56.8542 77.6276 57.2005 77.1172 57.4922C76.625 57.7839 76.1055 57.9297 75.5586 57.9297C75.1758 57.9297 74.8021 57.8112 74.4375 57.5742C74.0911 57.3372 73.7904 57.0638 73.5352 56.7539C73.2982 56.4258 73.1159 56.1068 72.9883 55.7969C72.8789 55.487 72.8698 55.25 72.9609 55.0859C73.0703 54.8672 73.1706 54.694 73.2617 54.5664C73.3529 54.4388 73.4896 54.293 73.6719 54.1289C73.7448 54.0742 73.8359 54.0104 73.9453 53.9375C74.0365 53.8828 74.1641 53.8281 74.3281 53.7734C74.4922 53.7188 74.6836 53.6549 74.9023 53.582C75.0846 54.1471 75.2487 54.5938 75.3945 54.9219C75.5404 55.2318 75.6589 55.4779 75.75 55.6602C75.8594 55.8607 75.9596 55.9974 76.0508 56.0703Z" fill="black"/>
<path d="M7.53711 52.4834C7.57292 50.1559 7.89518 47.2197 8.50391 43.6748C9.00521 40.6312 9.81087 36.7461 10.9209 32.0195C12.0309 27.293 13.6243 21.5996 15.7012 14.9395C15.8802 14.5814 16.1488 14.277 16.5068 14.0264C16.9007 13.7757 17.2946 13.5609 17.6885 13.3818C18.1182 13.2028 18.6016 13.0596 19.1387 12.9521C19.64 12.8447 20.1234 12.7552 20.5889 12.6836C20.9827 12.612 21.3945 12.5762 21.8242 12.5762C22.2539 12.5762 22.612 12.612 22.8984 12.6836C21.6452 15.8346 20.571 18.6992 19.6758 21.2773C18.7806 23.8197 18.0465 26.0218 17.4736 27.8838C16.7933 30.068 16.2383 32.0016 15.8086 33.6846C15.1999 35.4749 14.6807 37.2653 14.251 39.0557C13.8213 40.846 13.4632 42.5469 13.1768 44.1582C12.9261 45.7337 12.7292 47.1481 12.5859 48.4014C12.4785 49.6546 12.4248 50.6393 12.4248 51.3555C12.4606 53.5039 12.8187 55.1868 13.499 56.4043C14.1794 57.6576 15.2894 58.2842 16.8291 58.2842C18.1182 58.2842 19.3177 57.6755 20.4277 56.458C21.5736 55.2406 22.612 53.7546 23.543 52C24.5098 50.2096 25.3333 48.2939 26.0137 46.2529C26.694 44.2119 27.2132 42.3857 27.5713 40.7744C27.6429 40.488 27.7145 40.0941 27.7861 39.5928C28.2516 37.3727 28.8066 34.902 29.4512 32.1807C29.9883 29.8532 30.6507 27.1139 31.4385 23.9629C32.262 20.8118 33.193 17.3743 34.2314 13.6504C34.5179 13.3639 34.8402 13.1312 35.1982 12.9521C35.5563 12.7731 35.8786 12.6299 36.165 12.5225C36.5231 12.3792 36.8812 12.2897 37.2393 12.2539C37.5973 12.1823 37.9733 12.1465 38.3672 12.1465C38.6895 12.1465 39.0654 12.1823 39.4951 12.2539C39.9248 12.2897 40.3545 12.3792 40.7842 12.5225C40.068 14.4561 39.3698 16.4792 38.6895 18.5918C38.0091 20.6686 37.4004 22.6022 36.8633 24.3926C36.2188 26.4694 35.61 28.5283 35.0371 30.5693C34.2135 33.1475 33.5511 35.4749 33.0498 37.5518C32.5485 39.5928 32.1367 41.4906 31.8145 43.2451C31.528 44.9639 31.2952 46.5752 31.1162 48.0791C30.973 49.5472 30.8298 50.9974 30.6865 52.4297C30.5791 53.5755 30.5612 54.6497 30.6328 55.6523C30.7044 56.5475 30.8298 57.4427 31.0088 58.3379C31.1878 59.2331 31.5101 59.985 31.9756 60.5938C31.7965 60.8444 31.5459 61.0234 31.2236 61.1309C30.9014 61.2383 30.5612 61.3278 30.2031 61.3994C29.8092 61.471 29.3796 61.5068 28.9141 61.5068C27.9831 61.5068 27.2848 60.916 26.8193 59.7344C26.3896 58.5885 26.1569 56.7445 26.1211 54.2021C25.8346 54.7751 25.387 55.4912 24.7783 56.3506C24.1696 57.2458 23.3997 58.1051 22.4688 58.9287C21.5736 59.7881 20.5173 60.5221 19.2998 61.1309C18.0824 61.7396 16.7217 62.0439 15.2178 62.0439C13.7139 62.0439 12.4606 61.7754 11.458 61.2383C10.4912 60.737 9.70345 60.0387 9.09473 59.1436C8.52181 58.2842 8.11003 57.2637 7.85938 56.082C7.64453 54.9362 7.53711 53.7367 7.53711 52.4834Z" fill="#23B6A4"/>
<path d="M5.15685 35.2358C-10.6999 40.2316 44.5581 46.9903 79.8122 43.0092" stroke="#E9C46A" stroke-width="2"/>
</svg>
