<svg width="521" height="434" viewBox="0 0 521 434" fill="none" xmlns="http://www.w3.org/2000/svg">
<g clip-path="url(#clip0)">
<path d="M404.22 414.64V427.64H342.04C342.04 427.64 342.66 416.84 355.62 417.56C368.58 418.28 370.84 415.76 373.13 417.92C375.42 420.08 381.18 400.64 391.98 416.84C399.3 418.95 404.22 411.72 404.22 414.64Z" fill="#1F1E51"/>
<path d="M330.54 414.64V427.64H268.35C268.35 427.64 268.97 416.84 281.93 417.56C294.89 418.28 297.15 415.76 299.44 417.92C301.73 420.08 307.49 400.64 318.29 416.84C325.61 418.95 330.54 411.72 330.54 414.64Z" fill="#1F1E51"/>
<path d="M330.53 427.6H268.35V433.36H330.53V427.6Z" fill="#7979AD"/>
<path d="M404.35 432.89H342.17L345.17 427.13H407.35L404.35 432.89Z" fill="#7979AD"/>
<path d="M305.24 404.36H327.18L332.78 251.24H364.54C364.54 251.24 373.88 407.24 377.61 404.36C381.34 401.48 400.49 404.36 400.49 404.36L393.95 227.52L300.46 224.35L305.24 404.36Z" fill="#07090C"/>
<path d="M375.9 8.15994C371.9 5.36994 357.9 -3.72006 326.58 2.39994C295.26 8.51994 303.9 1.67993 304.58 13.9199C305.26 26.1599 315.74 17.5199 309.58 27.5999C305.98 35.5199 311.48 51.0199 311.48 51.0199C311.48 51.0199 310.38 67.1999 322.9 73.6799C327.456 76.1087 332.501 77.4761 337.66 77.6799V113.72H363.94V69.7199C363.94 69.7199 369.54 64.3199 369.54 58.5599C370.42 51.3599 376.71 70.0299 383.38 45.2399C386.29 34.7199 384.22 13.9199 375.9 8.15994Z" fill="#F4D284"/>
<path d="M322.18 83.8001L337.3 79.1201C337.3 79.1201 344.51 102.12 356.74 89.9201C363.94 86.9201 364.66 77.0001 365.38 77.3401C366.1 77.6801 381.58 83.0801 381.58 83.0801L369.54 102.22L371.14 117.28L326.14 123.4L314.62 104.72L323.14 89.7201L322.18 83.8001Z" fill="#E2D9C3"/>
<path d="M327.42 30.3999H313.5V33.7599H327.42V30.3999Z" fill="#070404"/>
<path d="M323.58 46.72C325.701 46.72 327.42 45.0008 327.42 42.88C327.42 40.7593 325.701 39.04 323.58 39.04C321.459 39.04 319.74 40.7593 319.74 42.88C319.74 45.0008 321.459 46.72 323.58 46.72Z" fill="#070404"/>
<path d="M356.66 33.3203H342.74V36.6803H356.66V33.3203Z" fill="#070404"/>
<path d="M349.66 48.72C351.781 48.72 353.5 47.0008 353.5 44.88C353.5 42.7593 351.781 41.04 349.66 41.04C347.539 41.04 345.82 42.7593 345.82 44.88C345.82 47.0008 347.539 48.72 349.66 48.72Z" fill="#070404"/>
<path d="M331.28 55.8499C332.373 56.1196 333.526 55.9909 334.532 55.4869C335.538 54.9828 336.332 54.1365 336.77 53.0999L327.28 51.1899C327.281 52.3162 327.685 53.4049 328.419 54.2594C329.152 55.114 330.167 55.6781 331.28 55.8499V55.8499Z" fill="#D88660"/>
<path d="M322.29 64.1201C324.759 61.9194 328 60.7886 331.302 60.9761C334.604 61.1636 337.696 62.6541 339.9 65.1201" stroke="#D88660" stroke-width="3" stroke-miterlimit="10" stroke-linecap="round"/>
<path d="M375.82 7.84012C371.82 5.05012 357.82 -4.03989 326.5 2.08011C295.18 8.20011 303.82 1.36011 304.5 13.6001C305.18 25.8401 315.66 17.2001 309.5 27.2801C305.9 35.2001 311.4 50.7001 311.4 50.7001C311.4 50.7001 311.4 50.8801 311.4 51.1901H311.54V20.8001C311.54 20.8001 317.3 29.4401 365.3 26.5601C368.5 36.6801 365.3 54.4401 365.3 54.4401C365.3 54.4401 374.9 35.8401 378.3 41.0401C381.7 46.2401 381.58 39.0401 381.58 39.0401L384.46 37.8501C385.18 26.9201 382.54 12.4901 375.82 7.84012Z" fill="#010105"/>
<path d="M210.78 109.36L222.78 96.3599C222.78 96.3599 245.78 145.36 267.9 131.36C287.6 118.94 287.81 97.7399 287.63 97.7399C287.63 97.7399 302.25 93.8299 306.3 92.4799L322.14 89.7199L325.54 103.6C325.54 103.6 325.06 109.36 336.54 99.2799C348.02 89.1999 352.68 98.9799 352.68 98.9799C352.68 98.9799 361.36 110.72 368.54 102.22C372.618 97.5197 376.172 92.3895 379.14 86.9199L399.66 92.3199C399.66 92.3199 421.66 97.1799 419.46 104.74C417.26 112.3 438.85 151.34 453.46 137.68C461.14 130.48 471.7 107.2 471.7 107.2L489.42 113.72C489.42 113.72 459.7 187.72 430.14 170.78C413.34 161.18 396.54 116.54 396.06 137.66C395.58 158.78 395.58 228.66 395.58 228.66H299.54C299.54 228.66 306.74 109.78 296.18 136.66C285.62 163.54 261.54 163.88 246.3 157.82C236.7 154 210.78 109.36 210.78 109.36Z" fill="#2A9D8F"/>
<path d="M473.79 102.9L479.69 97.0101C479.784 96.9231 479.853 96.8127 479.89 96.6901C480.62 94.3801 488.01 71.3001 489.61 82.2201C491.29 93.7101 490.17 91.0301 490.17 91.0301L515.73 81.7801C515.907 81.7071 516.103 81.6982 516.286 81.7548C516.469 81.8114 516.626 81.93 516.73 82.0901C517.32 82.9901 518.34 84.7501 517.32 85.0301C515.93 85.4201 521.05 87.0301 518.8 87.9801C516.55 88.9301 523.15 91.2601 518.13 93.4001C513.11 95.5401 523.24 94.2901 518.65 97.9501C514.06 101.61 493.96 110.02 493 110.42H492.93L487.68 113.29C487.545 113.363 487.392 113.397 487.238 113.388C487.084 113.38 486.936 113.328 486.81 113.24L473.93 104.11C473.836 104.044 473.758 103.958 473.7 103.859C473.641 103.76 473.604 103.65 473.591 103.536C473.578 103.422 473.589 103.307 473.623 103.197C473.657 103.087 473.714 102.986 473.79 102.9V102.9Z" fill="#FFD86C"/>
<path d="M221.1 96.2902L213.84 92.1902C213.726 92.1246 213.63 92.0318 213.56 91.9202C212.25 89.9202 198.98 69.6202 200.35 80.5702C201.79 92.0902 202.15 89.2102 202.15 89.2102L175.05 87.1002C174.869 87.0858 174.688 87.132 174.536 87.2316C174.384 87.3311 174.269 87.4784 174.21 87.6502C173.87 88.6502 173.36 90.6502 174.43 90.6502C175.87 90.6502 171.35 93.5302 173.79 93.8902C176.23 94.2502 170.47 98.2102 175.87 98.8902C181.27 99.5702 171.19 101.1 176.59 103.42C181.99 105.74 203.59 108.42 204.59 108.6H204.67L210.49 109.97C210.639 110.004 210.795 109.995 210.94 109.946C211.084 109.896 211.212 109.808 211.31 109.69L221.31 97.4602C221.376 97.3705 221.423 97.2685 221.448 97.1601C221.473 97.0518 221.476 96.9396 221.456 96.8301C221.437 96.7207 221.395 96.6164 221.334 96.5236C221.272 96.4307 221.193 96.3513 221.1 96.2902V96.2902Z" fill="#FFD86C"/>
<path d="M491.36 109.805L473.262 103.545L471.497 108.648L489.595 114.908L491.36 109.805Z" fill="#A58484"/>
<path d="M328.86 409.25H304.14V419.81H328.86V409.25Z" fill="#BAAEAE"/>
<path d="M402.18 409.25H377.22V419.81H402.18V409.25Z" fill="#BAAEAE"/>
<path d="M331.82 399.57H300.62V409.13H331.82V399.57Z" fill="#5B6066"/>
<path d="M405.82 409.25L402.82 399.69H374.62V409.25H405.82Z" fill="#5B6066"/>
<path d="M216 212.48H0V350.5H216V212.48Z" fill="#E0D9CE"/>
<path d="M86.66 253.23L77.9 246.23C80.74 244.29 99.49 231.9 118.52 239.11C122.15 240.49 131.16 243.9 133.82 251.76C137.42 262.37 128.91 277.46 118.94 285.36C113.32 289.82 108.24 291.21 106.7 296.88C105.28 302.11 107.06 310.31 107.06 310.31H93.62C96.22 298.1 101.07 290.41 105.14 285.59C111.36 278.2 118.14 274.68 122.06 264.24C124.92 256.61 123.23 253.35 122.79 252.58C120.1 247.88 113.13 247.45 109.04 247.19C99.3 246.62 91.36 250.36 86.66 253.23Z" fill="#2A9D8F"/>
<path d="M109.038 322.354L100.74 312.398L90.7846 320.696L99.0822 330.651L109.038 322.354Z" fill="#2A9D8F"/>
<path d="M9.17995 223.36C11.0356 223.36 12.5399 221.856 12.5399 220C12.5399 218.144 11.0356 216.64 9.17995 216.64C7.32427 216.64 5.81995 218.144 5.81995 220C5.81995 221.856 7.32427 223.36 9.17995 223.36Z" fill="#ED2E14"/>
<path d="M17.1799 223.36C19.0356 223.36 20.5399 221.856 20.5399 220C20.5399 218.144 19.0356 216.64 17.1799 216.64C15.3243 216.64 13.8199 218.144 13.8199 220C13.8199 221.856 15.3243 223.36 17.1799 223.36Z" fill="#EAB215"/>
<path d="M25.1799 223.36C27.0356 223.36 28.5399 221.856 28.5399 220C28.5399 218.144 27.0356 216.64 25.1799 216.64C23.3243 216.64 21.8199 218.144 21.8199 220C21.8199 221.856 23.3243 223.36 25.1799 223.36Z" fill="#29E243"/>
</g>
<defs>
<clipPath id="clip0">
<rect width="520.03" height="433.36" fill="white"/>
</clipPath>
</defs>
</svg>
