<svg width="276" height="213" viewBox="0 0 276 213" fill="none" xmlns="http://www.w3.org/2000/svg">
<path opacity="0.2" d="M35.3079 13.0928V18.9503H30.1519C31.7674 16.9392 33.4861 14.9867 35.3079 13.0928Z" fill="#2A9D8F"/>
<path opacity="0.2" d="M44.7705 11.6074H37.8479V18.9502H44.7705V11.6074Z" fill="#2A9D8F"/>
<path opacity="0.2" d="M54.2305 11.6074H47.3079V18.9502H54.2305V11.6074Z" fill="#2A9D8F"/>
<path opacity="0.2" d="M63.6934 11.6074H56.7708V18.9502H63.6934V11.6074Z" fill="#2A9D8F"/>
<path opacity="0.2" d="M73.1532 11.6074H66.2305V18.9502H73.1532V11.6074Z" fill="#2A9D8F"/>
<path opacity="0.2" d="M82.6158 11.6074H75.6931V18.9502H82.6158V11.6074Z" fill="#2A9D8F"/>
<path d="M92.0787 11.6074H85.156V18.9502H92.0787V11.6074Z" fill="#2A9D8F"/>
<path opacity="0.2" d="M101.539 11.6074H94.616V18.9502H101.539V11.6074Z" fill="#2A9D8F"/>
<path opacity="0.2" d="M111.001 11.6074H104.079V18.9502H111.001V11.6074Z" fill="#2A9D8F"/>
<path opacity="0.2" d="M120.461 11.6074H113.539V18.9502H120.461V11.6074Z" fill="#2A9D8F"/>
<path d="M129.924 11.6074H123.001V18.9502H129.924V11.6074Z" fill="#2A9D8F"/>
<path opacity="0.2" d="M139.387 11.6074H132.464V18.9502H139.387V11.6074Z" fill="#2A9D8F"/>
<path opacity="0.2" d="M148.846 11.6074H141.924V18.9502H148.846V11.6074Z" fill="#2A9D8F"/>
<path opacity="0.2" d="M158.309 11.6074H151.386V18.9502H158.309V11.6074Z" fill="#2A9D8F"/>
<path opacity="0.2" d="M167.772 11.6074H160.849V18.9502H167.772V11.6074Z" fill="#2A9D8F"/>
<path opacity="0.2" d="M177.232 11.6074H170.309V18.9502H177.232V11.6074Z" fill="#2A9D8F"/>
<path opacity="0.2" d="M186.695 11.6074H179.772V18.9502H186.695V11.6074Z" fill="#2A9D8F"/>
<path d="M196.154 11.6074H189.232V18.9502H196.154V11.6074Z" fill="#2A9D8F"/>
<path d="M205.617 11.6074H198.695V18.9502H205.617V11.6074Z" fill="#2A9D8F"/>
<path opacity="0.2" d="M215.08 11.6074H208.157V18.9502H215.08V11.6074Z" fill="#2A9D8F"/>
<path opacity="0.2" d="M224.54 11.6074H217.617V18.9502H224.54V11.6074Z" fill="#2A9D8F"/>
<path d="M234.002 11.6074H227.08V18.9502H234.002V11.6074Z" fill="#2A9D8F"/>
<path d="M243.462 11.6074H236.54V18.9502H243.462V11.6074Z" fill="#2A9D8F"/>
<path d="M25.848 24.7676V28.2504H23.6282C24.3337 27.0645 25.0737 25.9036 25.848 24.7676Z" fill="#2A9D8F"/>
<path opacity="0.2" d="M35.3079 20.9072H28.3853V28.25H35.3079V20.9072Z" fill="#2A9D8F"/>
<path d="M44.7705 20.9072H37.8479V28.25H44.7705V20.9072Z" fill="#2A9D8F"/>
<path opacity="0.2" d="M54.2305 20.9072H47.3079V28.25H54.2305V20.9072Z" fill="#2A9D8F"/>
<path opacity="0.7" d="M63.6934 20.9072H56.7708V28.25H63.6934V20.9072Z" fill="#2A9D8F"/>
<path opacity="0.2" d="M73.1532 20.9072H66.2305V28.25H73.1532V20.9072Z" fill="#2A9D8F"/>
<path opacity="0.4" d="M82.6158 20.9072H75.6931V28.25H82.6158V20.9072Z" fill="#2A9D8F"/>
<path d="M92.0787 20.9072H85.156V28.25H92.0787V20.9072Z" fill="#2A9D8F"/>
<path opacity="0.4" d="M101.539 20.9072H94.616V28.25H101.539V20.9072Z" fill="#2A9D8F"/>
<path opacity="0.2" d="M111.001 20.9072H104.079V28.25H111.001V20.9072Z" fill="#2A9D8F"/>
<path opacity="0.4" d="M120.461 20.9072H113.539V28.25H120.461V20.9072Z" fill="#2A9D8F"/>
<path d="M129.924 20.9072H123.001V28.25H129.924V20.9072Z" fill="#2A9D8F"/>
<path opacity="0.4" d="M139.387 20.9072H132.464V28.25H139.387V20.9072Z" fill="#2A9D8F"/>
<path opacity="0.4" d="M148.846 20.9072H141.924V28.25H148.846V20.9072Z" fill="#2A9D8F"/>
<path opacity="0.2" d="M158.309 20.9072H151.386V28.25H158.309V20.9072Z" fill="#2A9D8F"/>
<path opacity="0.4" d="M167.772 20.9072H160.849V28.25H167.772V20.9072Z" fill="#2A9D8F"/>
<path opacity="0.4" d="M177.232 20.9072H170.309V28.25H177.232V20.9072Z" fill="#2A9D8F"/>
<path opacity="0.2" d="M186.695 20.9072H179.772V28.25H186.695V20.9072Z" fill="#2A9D8F"/>
<path opacity="0.2" d="M196.154 20.9072H189.232V28.25H196.154V20.9072Z" fill="#2A9D8F"/>
<path opacity="0.4" d="M205.617 20.9072H198.695V28.25H205.617V20.9072Z" fill="#2A9D8F"/>
<path opacity="0.2" d="M215.08 20.9072H208.157V28.25H215.08V20.9072Z" fill="#2A9D8F"/>
<path d="M224.54 20.9072H217.617V28.25H224.54V20.9072Z" fill="#2A9D8F"/>
<path d="M234.002 20.9072H227.08V28.25H234.002V20.9072Z" fill="#2A9D8F"/>
<path d="M243.462 20.9072H236.54V28.25H243.462V20.9072Z" fill="#2A9D8F"/>
<path opacity="0.2" d="M6.92265 32.4209V37.553H0V35.046C2.23994 33.982 4.55446 33.1043 6.92265 32.4209Z" fill="#2A9D8F"/>
<path opacity="0.2" d="M16.3853 30.7627V37.5528H9.46265V31.7701L16.3853 30.7627Z" fill="#2A9D8F"/>
<path d="M25.8453 30.21H18.9226V37.5527H25.8453V30.21Z" fill="#2A9D8F"/>
<path opacity="0.7" d="M35.3079 30.21H28.3853V37.5527H35.3079V30.21Z" fill="#2A9D8F"/>
<path d="M44.7705 30.21H37.8479V37.5527H44.7705V30.21Z" fill="#2A9D8F"/>
<path opacity="0.7" d="M54.2305 30.21H47.3079V37.5527H54.2305V30.21Z" fill="#2A9D8F"/>
<path opacity="0.7" d="M63.6934 30.21H56.7708V37.5527H63.6934V30.21Z" fill="#2A9D8F"/>
<path opacity="0.2" d="M73.1532 30.21H66.2305V37.5527H73.1532V30.21Z" fill="#2A9D8F"/>
<path opacity="0.4" d="M82.6158 30.21H75.6931V37.5527H82.6158V30.21Z" fill="#2A9D8F"/>
<path opacity="0.4" d="M92.0787 30.21H85.156V37.5527H92.0787V30.21Z" fill="#2A9D8F"/>
<path d="M101.539 30.21H94.616V37.5527H101.539V30.21Z" fill="#2A9D8F"/>
<path opacity="0.2" d="M111.001 30.21H104.079V37.5527H111.001V30.21Z" fill="#2A9D8F"/>
<path opacity="0.4" d="M120.461 30.21H113.539V37.5527H120.461V30.21Z" fill="#2A9D8F"/>
<path d="M129.924 30.21H123.001V37.5527H129.924V30.21Z" fill="#2A9D8F"/>
<path opacity="0.2" d="M139.387 30.21H132.464V37.5527H139.387V30.21Z" fill="#2A9D8F"/>
<path opacity="0.4" d="M148.846 30.21H141.924V37.5527H148.846V30.21Z" fill="#2A9D8F"/>
<path opacity="0.2" d="M158.309 30.21H151.386V37.5527H158.309V30.21Z" fill="#2A9D8F"/>
<path d="M167.772 30.21H160.849V37.5527H167.772V30.21Z" fill="#2A9D8F"/>
<path opacity="0.2" d="M177.232 30.21H170.309V37.5527H177.232V30.21Z" fill="#2A9D8F"/>
<path opacity="0.7" d="M186.695 30.21H179.772V37.5527H186.695V30.21Z" fill="#2A9D8F"/>
<path opacity="0.7" d="M196.154 30.21H189.232V37.5527H196.154V30.21Z" fill="#2A9D8F"/>
<path opacity="0.4" d="M205.617 30.21H198.695V37.5527H205.617V30.21Z" fill="#2A9D8F"/>
<path opacity="0.2" d="M215.08 30.21H208.157V37.5527H215.08V30.21Z" fill="#2A9D8F"/>
<path d="M224.54 30.21H217.617V37.5527H224.54V30.21Z" fill="#2A9D8F"/>
<path d="M234.002 30.21H227.08V37.5527H234.002V30.21Z" fill="#2A9D8F"/>
<path d="M243.462 30.21H236.54V37.5527H243.462V30.21Z" fill="#2A9D8F"/>
<path opacity="0.2" d="M6.92265 39.5107H0V46.8535H6.92265V39.5107Z" fill="#2A9D8F"/>
<path opacity="0.2" d="M16.3853 39.5107H9.46265V46.8535H16.3853V39.5107Z" fill="#2A9D8F"/>
<path opacity="0.2" d="M25.8453 39.5107H18.9226V46.8535H25.8453V39.5107Z" fill="#2A9D8F"/>
<path opacity="0.2" d="M35.3079 39.5107H28.3853V46.8535H35.3079V39.5107Z" fill="#2A9D8F"/>
<path d="M44.7705 39.5107H37.8479V46.8535H44.7705V39.5107Z" fill="#2A9D8F"/>
<path opacity="0.7" d="M54.2305 39.5107H47.3079V46.8535H54.2305V39.5107Z" fill="#2A9D8F"/>
<path opacity="0.7" d="M63.6934 39.5107H56.7708V46.8535H63.6934V39.5107Z" fill="#2A9D8F"/>
<path opacity="0.2" d="M73.1532 39.5107H66.2305V46.8535H73.1532V39.5107Z" fill="#2A9D8F"/>
<path opacity="0.2" d="M82.6158 39.5107H75.6931V46.8535H82.6158V39.5107Z" fill="#2A9D8F"/>
<path opacity="0.4" d="M92.0787 39.5107H85.156V46.8535H92.0787V39.5107Z" fill="#2A9D8F"/>
<path opacity="0.4" d="M101.539 39.5107H94.616V46.8535H101.539V39.5107Z" fill="#2A9D8F"/>
<path d="M111.001 39.5107H104.079V46.8535H111.001V39.5107Z" fill="#2A9D8F"/>
<path opacity="0.2" d="M120.461 39.5107H113.539V46.8535H120.461V39.5107Z" fill="#2A9D8F"/>
<path opacity="0.4" d="M129.924 39.5107H123.001V46.8535H129.924V39.5107Z" fill="#2A9D8F"/>
<path opacity="0.4" d="M139.387 39.5107H132.464V46.8535H139.387V39.5107Z" fill="#2A9D8F"/>
<path opacity="0.4" d="M148.846 39.5107H141.924V46.8535H148.846V39.5107Z" fill="#2A9D8F"/>
<path opacity="0.4" d="M158.309 39.5107H151.386V46.8535H158.309V39.5107Z" fill="#2A9D8F"/>
<path opacity="0.2" d="M167.772 39.5107H160.849V46.8535H167.772V39.5107Z" fill="#2A9D8F"/>
<path opacity="0.2" d="M177.232 39.5107H170.309V46.8535H177.232V39.5107Z" fill="#2A9D8F"/>
<path opacity="0.2" d="M186.695 39.5107H179.772V46.8535H186.695V39.5107Z" fill="#2A9D8F"/>
<path opacity="0.2" d="M196.154 39.5107H189.232V46.8535H196.154V39.5107Z" fill="#2A9D8F"/>
<path opacity="0.7" d="M205.617 39.5107H198.695V46.8535H205.617V39.5107Z" fill="#2A9D8F"/>
<path opacity="0.7" d="M215.08 39.5107H208.157V46.8535H215.08V39.5107Z" fill="#2A9D8F"/>
<path opacity="0.4" d="M224.54 39.5107H217.617V46.8535H224.54V39.5107Z" fill="#2A9D8F"/>
<path opacity="0.2" d="M234.002 39.5107H227.08V46.8535H234.002V39.5107Z" fill="#2A9D8F"/>
<path d="M243.462 39.5107H236.54V46.8535H243.462V39.5107Z" fill="#2A9D8F"/>
<path opacity="0.2" d="M6.92265 48.8135H0V56.1562H6.92265V48.8135Z" fill="#2A9D8F"/>
<path opacity="0.2" d="M16.3853 48.8135H9.46265V56.1562H16.3853V48.8135Z" fill="#2A9D8F"/>
<path opacity="0.4" d="M25.8453 48.8135H18.9226V56.1562H25.8453V48.8135Z" fill="#2A9D8F"/>
<path opacity="0.2" d="M35.3079 48.8135H28.3853V56.1562H35.3079V48.8135Z" fill="#2A9D8F"/>
<path opacity="0.2" d="M44.7705 48.8135H37.8479V56.1562H44.7705V48.8135Z" fill="#2A9D8F"/>
<path opacity="0.7" d="M54.2305 48.8135H47.3079V56.1562H54.2305V48.8135Z" fill="#2A9D8F"/>
<path opacity="0.7" d="M63.6934 48.8135H56.7708V56.1562H63.6934V48.8135Z" fill="#2A9D8F"/>
<path opacity="0.2" d="M73.1532 48.8135H66.2305V56.1562H73.1532V48.8135Z" fill="#2A9D8F"/>
<path opacity="0.2" d="M82.6158 48.8135H75.6931V56.1562H82.6158V48.8135Z" fill="#2A9D8F"/>
<path opacity="0.4" d="M92.0787 48.8135H85.156V56.1562H92.0787V48.8135Z" fill="#2A9D8F"/>
<path d="M101.539 48.8135H94.616V56.1562H101.539V48.8135Z" fill="#2A9D8F"/>
<path opacity="0.2" d="M111.001 48.8135H104.079V56.1562H111.001V48.8135Z" fill="#2A9D8F"/>
<path d="M120.461 48.8135H113.539V56.1562H120.461V48.8135Z" fill="#2A9D8F"/>
<path d="M129.924 48.8135H123.001V56.1562H129.924V48.8135Z" fill="#2A9D8F"/>
<path d="M139.387 48.8135H132.464V56.1562H139.387V48.8135Z" fill="#2A9D8F"/>
<path d="M167.696 48.7324H160.773V56.0752H167.696V48.7324Z" fill="#2A9D8F"/>
<path d="M186.692 58.2314H179.769V65.5742H186.692V58.2314Z" fill="#2A9D8F"/>
<path d="M186.692 48.7324H179.769V56.0752H186.692V48.7324Z" fill="#2A9D8F"/>
<path opacity="0.2" d="M148.846 48.8135H141.924V56.1562H148.846V48.8135Z" fill="#2A9D8F"/>
<path d="M158.309 48.8135H151.386V56.1562H158.309V48.8135Z" fill="#2A9D8F"/>
<path opacity="0.2" d="M177.232 48.8135H170.309V56.1562H177.232V48.8135Z" fill="#2A9D8F"/>
<path opacity="0.2" d="M196.154 48.8135H189.232V56.1562H196.154V48.8135Z" fill="#2A9D8F"/>
<path opacity="0.2" d="M205.617 48.8135H198.695V56.1562H205.617V48.8135Z" fill="#2A9D8F"/>
<path opacity="0.7" d="M215.08 48.8135H208.157V56.1562H215.08V48.8135Z" fill="#2A9D8F"/>
<path opacity="0.2" d="M224.54 48.8135H217.617V56.1562H224.54V48.8135Z" fill="#2A9D8F"/>
<path opacity="0.2" d="M234.002 48.8135H227.08V56.1562H234.002V48.8135Z" fill="#2A9D8F"/>
<path d="M243.462 48.8135H236.54V56.1562H243.462V48.8135Z" fill="#2A9D8F"/>
<path opacity="0.2" d="M6.92265 58.1133H0V65.456H6.92265V58.1133Z" fill="#2A9D8F"/>
<path opacity="0.2" d="M16.3853 58.1133H9.46265V65.456H16.3853V58.1133Z" fill="#2A9D8F"/>
<path opacity="0.2" d="M25.8453 58.1133H18.9226V65.456H25.8453V58.1133Z" fill="#2A9D8F"/>
<path opacity="0.4" d="M35.3079 58.1133H28.3853V65.456H35.3079V58.1133Z" fill="#2A9D8F"/>
<path opacity="0.2" d="M44.7705 58.1133H37.8479V65.456H44.7705V58.1133Z" fill="#2A9D8F"/>
<path opacity="0.2" d="M54.2305 58.1133H47.3079V65.456H54.2305V58.1133Z" fill="#2A9D8F"/>
<path opacity="0.7" d="M63.6934 58.1133H56.7708V65.456H63.6934V58.1133Z" fill="#2A9D8F"/>
<path opacity="0.2" d="M73.1532 58.1133H66.2305V65.456H73.1532V58.1133Z" fill="#2A9D8F"/>
<path opacity="0.2" d="M82.6158 58.1133H75.6931V65.456H82.6158V58.1133Z" fill="#2A9D8F"/>
<path opacity="0.2" d="M92.0787 58.1133H85.156V65.456H92.0787V58.1133Z" fill="#2A9D8F"/>
<path d="M101.539 58.1133H94.616V65.456H101.539V58.1133Z" fill="#2A9D8F"/>
<path opacity="0.2" d="M111.001 58.1133H104.079V65.456H111.001V58.1133Z" fill="#2A9D8F"/>
<path d="M120.461 58.1133H113.539V65.456H120.461V58.1133Z" fill="#2A9D8F"/>
<path d="M129.924 58.1133H123.001V65.456H129.924V58.1133Z" fill="#2A9D8F"/>
<path opacity="0.2" d="M139.387 58.1133H132.464V65.456H139.387V58.1133Z" fill="#2A9D8F"/>
<path opacity="0.2" d="M148.846 58.1133H141.924V65.456H148.846V58.1133Z" fill="#2A9D8F"/>
<path opacity="0.2" d="M158.309 58.1133H151.386V65.456H158.309V58.1133Z" fill="#2A9D8F"/>
<path opacity="0.2" d="M167.772 58.1133H160.849V65.456H167.772V58.1133Z" fill="#2A9D8F"/>
<path opacity="0.2" d="M177.232 58.1133H170.309V65.456H177.232V58.1133Z" fill="#2A9D8F"/>
<path opacity="0.2" d="M196.154 58.1133H189.232V65.456H196.154V58.1133Z" fill="#2A9D8F"/>
<path opacity="0.2" d="M205.617 58.1133H198.695V65.456H205.617V58.1133Z" fill="#2A9D8F"/>
<path opacity="0.2" d="M215.08 58.1133H208.157V65.456H215.08V58.1133Z" fill="#2A9D8F"/>
<path opacity="0.2" d="M224.54 58.1133H217.617V65.456H224.54V58.1133Z" fill="#2A9D8F"/>
<path opacity="0.4" d="M234.002 58.1133H227.08V65.456H234.002V58.1133Z" fill="#2A9D8F"/>
<path d="M243.462 58.1133H236.54V65.456H243.462V58.1133Z" fill="#2A9D8F"/>
<path opacity="0.7" d="M6.92265 67.416H0V74.7588H6.92265V67.416Z" fill="#2A9D8F"/>
<path opacity="0.7" d="M16.3853 67.416H9.46265V74.7588H16.3853V67.416Z" fill="#2A9D8F"/>
<path opacity="0.7" d="M25.8453 67.416H18.9226V74.7588H25.8453V67.416Z" fill="#2A9D8F"/>
<path opacity="0.7" d="M35.3079 67.416H28.3853V74.7588H35.3079V67.416Z" fill="#2A9D8F"/>
<path opacity="0.7" d="M44.7705 67.416H37.8479V74.7588H44.7705V67.416Z" fill="#2A9D8F"/>
<path opacity="0.2" d="M54.2305 67.416H47.3079V74.7588H54.2305V67.416Z" fill="#2A9D8F"/>
<path opacity="0.2" d="M63.6934 67.416H56.7708V74.7588H63.6934V67.416Z" fill="#2A9D8F"/>
<path opacity="0.2" d="M73.1532 67.416H66.2305V74.7588H73.1532V67.416Z" fill="#2A9D8F"/>
<path opacity="0.2" d="M82.6158 67.416H75.6931V74.7588H82.6158V67.416Z" fill="#2A9D8F"/>
<path opacity="0.2" d="M92.0787 67.416H85.156V74.7588H92.0787V67.416Z" fill="#2A9D8F"/>
<path opacity="0.2" d="M101.539 67.416H94.616V74.7588H101.539V67.416Z" fill="#2A9D8F"/>
<path d="M111.001 67.416H104.079V74.7588H111.001V67.416Z" fill="#2A9D8F"/>
<path opacity="0.2" d="M120.461 67.416H113.539V74.7588H120.461V67.416Z" fill="#2A9D8F"/>
<path opacity="0.2" d="M129.924 67.416H123.001V74.7588H129.924V67.416Z" fill="#2A9D8F"/>
<path opacity="0.2" d="M139.387 67.416H132.464V74.7588H139.387V67.416Z" fill="#2A9D8F"/>
<path d="M148.846 67.416H141.924V74.7588H148.846V67.416Z" fill="#2A9D8F"/>
<path opacity="0.2" d="M158.309 67.416H151.386V74.7588H158.309V67.416Z" fill="#2A9D8F"/>
<path opacity="0.2" d="M167.772 67.416H160.849V74.7588H167.772V67.416Z" fill="#2A9D8F"/>
<path opacity="0.2" d="M177.232 67.416H170.309V74.7588H177.232V67.416Z" fill="#2A9D8F"/>
<path opacity="0.2" d="M186.695 67.416H179.772V74.7588H186.695V67.416Z" fill="#2A9D8F"/>
<path opacity="0.2" d="M196.154 67.416H189.232V74.7588H196.154V67.416Z" fill="#2A9D8F"/>
<path opacity="0.2" d="M205.617 67.416H198.695V74.7588H205.617V67.416Z" fill="#2A9D8F"/>
<path opacity="0.2" d="M215.08 67.416H208.157V74.7588H215.08V67.416Z" fill="#2A9D8F"/>
<path opacity="0.2" d="M224.54 67.416H217.617V74.7588H224.54V67.416Z" fill="#2A9D8F"/>
<path opacity="0.2" d="M234.002 67.416H227.08V74.7588H234.002V67.416Z" fill="#2A9D8F"/>
<path d="M243.462 67.416H236.54V74.7588H243.462V67.416Z" fill="#2A9D8F"/>
<path d="M66.9934 65.915C66.9934 65.915 86.8821 87.0107 75.6555 118.302C64.4289 149.592 94.8983 201.671 94.8983 201.671C94.8983 201.671 94.5727 201.619 93.9675 201.507C53.1209 193.859 32.8251 144.308 55.5497 107.508C63.9839 93.8094 70.9147 77.7567 66.9934 65.915Z" fill="#2A9D8F"/>
<path d="M66.9934 65.915C66.9934 65.915 78.22 91.7744 66.9934 112.867C55.7669 133.96 65.0694 193.174 94.9012 201.671" stroke="#535461" stroke-width="2" stroke-miterlimit="10"/>
<path d="M31.5688 151.235C31.5688 151.235 54.2635 147.401 56.3314 168.975C58.3992 190.548 99.9731 193.539 99.9731 193.539C99.9731 193.539 99.7018 193.735 99.1943 194.089C64.8687 217.979 32.0573 209.312 37.0044 177.578C38.8416 165.78 38.6896 153.929 31.5688 151.235Z" fill="#2A9D8F"/>
<path opacity="0.2" d="M31.5688 151.235C31.5688 151.235 54.2635 147.401 56.3314 168.975C58.3992 190.548 99.9731 193.539 99.9731 193.539C99.9731 193.539 99.7018 193.735 99.1943 194.089C64.8687 217.979 32.0573 209.312 37.0044 177.578C38.8416 165.78 38.6896 153.929 31.5688 151.235Z" fill="#F5F5F5"/>
<path d="M31.5688 151.235C31.5688 151.235 49.1835 155.337 47.7371 172.325C46.2907 189.313 73.8972 209.689 99.9731 193.539" stroke="#535461" stroke-width="2" stroke-miterlimit="10"/>
<path opacity="0.2" d="M243.352 129.814H229.24V137.586H243.352V129.814Z" fill="#2A9D8F"/>
<path opacity="0.2" d="M262.347 129.814H248.236V137.586H262.347V129.814Z" fill="#2A9D8F"/>
<path d="M227.075 99.0479C226.161 93.6544 225.601 88.2002 225.398 82.7246C225.217 78.2151 223.726 73.8752 221.129 70.2999C218.532 66.7246 214.955 64.089 210.89 62.7544C209.409 62.2708 207.778 61.8189 205.976 61.4131C190.182 57.8554 185.384 60.9612 184.839 61.3699C184.377 60.4792 183.975 59.5548 183.637 58.6038C183.609 58.5059 183.585 58.4081 183.558 58.3159C186.684 54.7803 188.588 50.2258 188.961 45.3949C191.596 42.5626 193.135 39.1431 193.135 35.4616C193.135 32.2954 191.995 29.3249 190 26.7545V21.7519C190 15.9829 187.84 10.4503 183.994 6.37099C180.148 2.29171 174.932 0 169.493 0H167.829C165.136 0 162.469 0.56263 159.981 1.65577C157.493 2.7489 155.233 4.35113 153.328 6.37099C151.424 8.39084 149.913 10.7887 148.883 13.4278C147.852 16.0669 147.322 18.8954 147.322 21.7519V27.1431C145.512 29.6214 144.486 32.4508 144.486 35.4559C144.486 39.0596 145.962 42.41 148.497 45.2078C148.843 50.2156 150.835 54.9359 154.125 58.5462C154.236 59.3637 154.35 60.2416 154.462 61.1684L126.212 67.498C126.212 67.498 115.319 67.9729 108.301 83.329C102.367 96.3364 90.5566 129.754 87.0586 139.702C86.4263 141.504 86.0681 142.537 86.0681 142.537C86.0681 142.537 86.1848 142.414 86.4046 142.201L86.0681 143.171C86.0681 143.171 86.2391 142.986 86.5647 142.684C86.0708 146.846 86.0003 153.993 91.14 154.883C95.4494 155.628 106.554 155.936 114.942 156.06H115.523C121.083 156.138 125.314 156.138 125.314 156.138V156.06H215.528V155.078C215.529 154.188 215.36 153.307 215.031 152.488L215.156 152.327C215.639 153.003 215.96 153.793 216.092 154.629C216.082 154.711 216.068 154.791 216.049 154.871L216.103 154.724C216.124 154.986 216.106 155.249 216.049 155.504C216.049 155.504 227.623 123.874 227.498 104.986C227.531 102.997 227.39 101.009 227.075 99.0479ZM154.931 65.4428C154.782 64.5405 154.685 63.6291 154.643 62.7141C154.643 62.7141 154.643 62.6968 154.643 62.6882C154.744 63.5776 154.841 64.4987 154.931 65.4428ZM119.865 133.384V140.923L115.414 141.933L119.865 133.384Z" fill="url(#paint0_linear)"/>
<path d="M168.204 3.04297C173.643 3.04297 178.859 5.33468 182.705 9.41395C186.551 13.4932 188.711 19.0259 188.711 24.7949V34.0748H147.696V24.7949C147.696 19.0259 149.857 13.4932 153.703 9.41395C157.549 5.33468 162.765 3.04297 168.204 3.04297Z" fill="#E14B5A"/>
<path d="M168.348 54.1543C181.258 54.1543 191.723 46.5265 191.723 37.1172C191.723 27.7079 181.258 20.0801 168.348 20.0801C155.437 20.0801 144.972 27.7079 144.972 37.1172C144.972 46.5265 155.437 54.1543 168.348 54.1543Z" fill="#E14B5A"/>
<path d="M153.362 53.6209C153.362 53.6209 158.247 80.6978 153.362 88.0002C148.478 95.3027 168.288 98.1926 168.288 98.1926L188.792 90.2828L191.661 70.8106C191.661 70.8106 179.178 63.3556 181.764 48.2959L153.362 53.6209Z" fill="#F7C4A7"/>
<path d="M213.883 144.894C213.883 144.894 215.175 150.827 208.147 151.892C203.997 152.539 199.776 152.486 195.642 151.733L194.092 136.832H210.442L213.883 144.894Z" fill="#F7C4A7"/>
<path d="M89.775 137.301C89.775 137.301 86.6706 150.683 93.699 151.892C100.728 153.1 126.535 153.109 126.535 153.109V137.278L114.85 139.926L103.881 128.77L89.775 137.301Z" fill="#F7C4A7"/>
<path opacity="0.1" d="M154.871 62.3688L127.406 68.5285C127.406 68.5285 116.936 68.9862 110.196 83.7407C103.455 98.4953 88.8252 140.635 88.8252 140.635C88.8252 140.635 101.308 127.247 115.932 141.547L125.685 122.838L123.533 152.502H199.105V138.505C199.105 138.505 214.879 147.48 213.734 152.499C213.734 152.499 227.235 115.604 224.318 98.8378C223.439 93.6545 222.901 88.4129 222.706 83.1507C222.533 78.8167 221.101 74.6454 218.604 71.2095C216.108 67.7736 212.67 65.2414 208.763 63.9605C207.341 63.4971 205.778 63.0625 204.041 62.6739C187.835 59.0241 183.688 62.6739 183.688 62.6739C183.688 62.6739 180.548 73.5081 180.605 78.4186C180.676 84.7309 172.144 88.9161 172.144 88.9161C172.144 88.9161 159.523 85.7211 158.95 83.1363C158.377 80.5515 153.862 65.4112 154.871 62.3688Z" fill="black"/>
<path d="M154.871 61.7614L127.406 67.9211C127.406 67.9211 116.936 68.3787 110.196 83.1333C103.455 97.8879 88.8225 140.033 88.8225 140.033C88.8225 140.033 101.306 126.646 115.93 140.945L125.683 122.236L123.531 151.892H199.105V137.897C199.105 137.897 214.879 146.872 213.734 151.892C213.734 151.892 227.235 114.997 224.318 98.2304C223.439 93.0471 222.901 87.8055 222.706 82.5432C222.533 78.2092 221.101 74.038 218.604 70.6021C216.108 67.1661 212.67 64.634 208.763 63.3531C207.341 62.8897 205.778 62.455 204.041 62.0665C187.835 58.4167 183.688 62.0665 183.688 62.0665C183.688 62.0665 180.548 72.9007 180.605 77.8112C180.676 84.1235 172.144 88.3086 172.144 88.3086C172.144 88.3086 159.523 85.1136 158.95 82.5288C158.377 79.9441 153.862 64.8038 154.871 61.7614Z" fill="#575988"/>
<path opacity="0.1" d="M182.936 60.4686C181.783 57.0041 181.524 53.2752 182.187 49.6689L153.786 54.9911C153.786 54.9911 154.195 57.2679 154.659 60.6787C156.495 62.6985 158.698 64.3013 161.135 65.3896C163.573 66.4778 166.193 67.0289 168.838 67.0093C171.482 66.9896 174.095 66.3996 176.518 65.2752C178.941 64.1508 181.123 62.5155 182.931 60.4686H182.936Z" fill="black"/>
<path d="M187.78 44.9512C187.758 50.3794 185.725 55.5809 182.121 59.4342C178.516 63.2874 173.628 65.4837 168.51 65.5494C163.393 65.6151 158.456 63.545 154.765 59.7854C151.073 56.0259 148.922 50.8781 148.776 45.452C148.776 45.285 148.776 45.1181 148.776 44.9512C148.775 41.0774 149.8 37.2812 151.732 33.9944C153.665 30.7077 156.429 28.0625 159.71 26.3597C160.294 26.0565 160.895 25.784 161.512 25.5423C164.72 24.2912 168.181 23.9499 171.552 24.5521C175.873 25.3324 179.819 27.6345 182.754 31.0867C185.689 34.5389 187.442 38.9395 187.729 43.5782C187.763 44.033 187.78 44.4906 187.78 44.9512Z" fill="#F7C4A7"/>
<g opacity="0.1">
<path opacity="0.1" d="M161.482 26.029L161.509 26.0117C160.892 26.2535 160.292 26.526 159.707 26.8292C156.427 28.5319 153.663 31.1772 151.73 34.4639C149.797 37.7506 148.773 41.5469 148.774 45.4206C148.774 45.5876 148.774 45.7545 148.774 45.9215C149.38 45.9041 149.976 45.7521 150.524 45.4753C155.278 43.1208 158.122 35.9191 159.251 30.8963C159.658 29.0973 160.041 27.071 161.482 26.029Z" fill="black"/>
<path opacity="0.1" d="M176.41 26.6075C174.866 25.8552 173.236 25.322 171.561 25.0215C172.935 25.3568 174.161 26.1743 175.042 27.3415C175.474 27.9643 175.832 28.641 176.109 29.3563C173.513 28.1525 170.702 27.5612 167.869 27.6233C165.037 27.6854 162.251 28.3995 159.705 29.7161C160.928 32.5628 164.725 34.1143 167.26 35.1534C170.035 36.2894 172.839 37.3285 175.672 38.2707L173.165 36.1119L178.828 37.0675C178.889 35.872 178.755 34.6743 178.432 33.5271C179.517 34.4539 180.956 34.7648 182.133 35.542C184.34 37.0186 185.259 39.8595 186.462 42.3205C186.779 42.9711 187.154 43.636 187.726 44.0476C187.495 40.3293 186.321 36.7464 184.329 33.6768C182.338 30.6072 179.602 28.1648 176.41 26.6075Z" fill="black"/>
</g>
<path d="M161.482 25.5602L161.509 25.543C160.892 25.7848 160.292 26.0572 159.707 26.3604C156.427 28.0632 153.663 30.7084 151.73 33.9951C149.797 37.2819 148.773 41.0781 148.774 44.9519C148.774 45.1188 148.774 45.2858 148.774 45.4527C149.38 45.4353 149.976 45.2833 150.524 45.0065C155.278 42.652 158.122 35.4503 159.251 30.4276C159.658 28.6401 160.041 26.6051 161.482 25.5602Z" fill="#632652"/>
<path d="M176.41 26.1417C174.866 25.3894 173.236 24.8562 171.561 24.5557C172.934 24.891 174.161 25.7084 175.042 26.8756C175.474 27.4985 175.832 28.1752 176.109 28.8905C173.513 27.6867 170.702 27.0954 167.869 27.1575C165.037 27.2196 162.251 27.9337 159.704 29.2503C160.928 32.097 164.725 33.6485 167.259 34.6875C170.035 35.8235 172.839 36.8626 175.672 37.8048L173.164 35.646L178.828 36.6017C178.889 35.4061 178.755 34.2084 178.432 33.0613C179.517 33.9881 180.955 34.299 182.133 35.0761C184.339 36.5527 185.259 39.3937 186.461 41.8547C186.779 42.5052 187.153 43.1701 187.726 43.5817C187.495 39.8635 186.321 36.2805 184.329 33.211C182.338 30.1414 179.601 27.699 176.41 26.1417Z" fill="#632652"/>
<path opacity="0.1" d="M146.548 41.5405C146.548 41.5405 166.63 15.0594 189.862 41.5405L187.854 35.6082C187.854 35.6082 176.953 18.7236 169.21 22.3676C161.468 26.0117 153.864 28.6051 153.864 28.6051L146.548 41.5405Z" fill="black"/>
<path d="M146.548 41.0718C146.548 41.0718 166.63 14.5907 189.862 41.0718L187.854 35.1394C187.854 35.1394 176.953 18.2549 169.21 21.8989C161.468 25.5429 153.864 28.1363 153.864 28.1363L146.548 41.0718Z" fill="#E14B5A"/>
<path opacity="0.1" d="M130.054 98.1182C130.054 98.1182 125.753 110.288 131.775 121.24C137.796 132.192 126.469 136.757 126.469 136.757" fill="black"/>
<path opacity="0.1" d="M199.756 87.166C199.756 87.166 207.213 97.2058 202.337 106.181C197.46 115.155 197.748 136.758 197.748 136.758" fill="black"/>
<path d="M123.457 145.732H206.353C208.179 145.732 209.93 146.502 211.221 147.871C212.512 149.241 213.238 151.098 213.238 153.035H116.575C116.575 151.099 117.3 149.242 118.591 147.872C119.881 146.503 121.632 145.733 123.457 145.732Z" fill="#535461"/>
<path d="M131.892 95.5303H197.921C199.311 95.5303 200.687 95.8206 201.971 96.3848C203.255 96.9489 204.422 97.7758 205.405 98.8182C206.388 99.8606 207.167 101.098 207.699 102.46C208.231 103.822 208.505 105.282 208.505 106.756V147.404H121.308V106.756C121.308 103.779 122.423 100.923 124.408 98.8182C126.393 96.713 129.085 95.5303 131.892 95.5303Z" fill="#535461"/>
<path d="M164.833 129.228C167.685 129.228 169.998 126.775 169.998 123.75C169.998 120.725 167.685 118.272 164.833 118.272C161.981 118.272 159.669 120.725 159.669 123.75C159.669 126.775 161.981 129.228 164.833 129.228Z" fill="white"/>
<path opacity="0.1" d="M147.696 29.1291C147.696 29.1291 167.43 8.20901 188.714 28.7463" stroke="black" stroke-miterlimit="10"/>
<path d="M261.902 153.13H51.6692V213H261.902V153.13Z" fill="#D6D6E3"/>
<path opacity="0.1" d="M261.902 157.159H51.6692V164.931H261.902V157.159Z" fill="black"/>
<path d="M276 152.267H37.5662V160.038H276V152.267Z" fill="#D6D6E3"/>
<path d="M167.966 189.854C168.097 191.821 168.223 193.699 168.346 195.471C168.433 196.713 168.517 197.9 168.599 199.033C169.188 198.568 169.742 198.057 170.259 197.503C172.228 195.394 173.609 192.746 174.246 189.854H167.966ZM147.074 180.94C147.046 180.036 147.029 179.134 147.023 178.233C146.795 178.626 146.583 179.031 146.388 179.448C146.134 179.983 145.909 180.532 145.713 181.093L147.135 182.604C147.11 182.049 147.089 181.495 147.074 180.94ZM167.966 189.854C168.097 191.821 168.223 193.699 168.346 195.471C168.433 196.713 168.517 197.9 168.599 199.033C169.188 198.568 169.742 198.057 170.259 197.503C172.228 195.394 173.609 192.746 174.246 189.854H167.966ZM167.966 189.854C168.097 191.821 168.223 193.699 168.346 195.471C168.433 196.713 168.517 197.9 168.599 199.033C169.188 198.568 169.742 198.057 170.259 197.503C172.228 195.394 173.609 192.746 174.246 189.854H167.966ZM147.023 178.233C146.795 178.626 146.583 179.031 146.388 179.448C146.134 179.983 145.909 180.532 145.713 181.093L147.135 182.604C147.11 182.049 147.089 181.495 147.074 180.94C147.046 180.036 147.029 179.134 147.023 178.233ZM181.128 177.155C179.827 173.778 177.839 170.748 175.307 168.283C172.775 165.817 169.761 163.978 166.48 162.895C163.323 161.865 159.994 161.57 156.719 162.031C153.445 162.492 150.303 163.698 147.507 165.566C145.571 166.859 143.824 168.447 142.323 170.28C140.28 172.763 138.732 175.66 137.771 178.797C136.81 181.933 136.457 185.244 136.733 188.529C137.009 191.814 137.907 195.006 139.375 197.912C140.843 200.819 142.85 203.379 145.274 205.44L145.276 205.442C147.121 207.026 149.185 208.299 151.394 209.216C154.051 210.318 156.879 210.882 159.731 210.88C160.432 210.88 161.124 210.847 161.808 210.779C162.388 210.725 162.961 210.646 163.527 210.544C165.532 210.191 167.483 209.553 169.327 208.647C172.105 207.284 174.604 205.354 176.68 202.966C178.756 200.578 180.369 197.779 181.426 194.729C181.972 193.151 182.36 191.517 182.586 189.854C183.171 185.559 182.668 181.175 181.128 177.155ZM149.669 202.424C148.659 201.728 147.72 200.921 146.868 200.016C143.528 196.488 141.631 191.703 141.589 186.7L148.103 193.556L158.647 204.656L159.567 205.625C159.423 205.618 159.276 205.612 159.132 205.604C155.771 205.437 152.509 204.341 149.669 202.424ZM177.567 189.854C176.886 193.673 175.131 197.183 172.533 199.919C171.757 200.741 170.914 201.487 170.013 202.149C169.647 202.418 169.269 202.674 168.884 202.914C167.483 203.792 165.975 204.464 164.404 204.91C164.168 204.978 163.931 205.041 163.691 205.097L142.085 182.144C142.573 179.843 143.455 177.658 144.688 175.697C145.388 174.583 146.193 173.549 147.092 172.61C150.456 169.072 154.997 167.084 159.731 167.077C163.519 167.064 167.215 168.317 170.294 170.66C171.87 171.856 173.259 173.308 174.41 174.961L171.938 177.239C170.607 175.323 168.904 173.732 166.945 172.574C166.092 172.071 165.194 171.657 164.265 171.341C162.801 170.836 161.271 170.58 159.731 170.58C159.28 170.58 158.833 170.601 158.394 170.645C156.072 170.878 153.834 171.686 151.859 173.003C149.885 174.321 148.228 176.112 147.023 178.233C146.795 178.626 146.583 179.031 146.388 179.448C146.134 179.983 145.909 180.532 145.713 181.093L147.135 182.604L148.552 184.109L164.68 201.243C165.741 200.854 166.755 200.334 167.701 199.693C168.009 199.487 168.309 199.267 168.599 199.033C169.188 198.568 169.742 198.057 170.259 197.503C172.228 195.394 173.609 192.746 174.246 189.854H166.33V186.351H177.874C177.875 187.526 177.772 188.699 177.567 189.854ZM167.966 189.854C168.097 191.821 168.223 193.699 168.346 195.471C168.433 196.713 168.517 197.9 168.599 199.033C169.188 198.568 169.742 198.057 170.259 197.503C172.228 195.394 173.609 192.746 174.246 189.854H167.966ZM167.966 189.854C168.097 191.821 168.223 193.699 168.346 195.471C168.433 196.713 168.517 197.9 168.599 199.033C169.188 198.568 169.742 198.057 170.259 197.503C172.228 195.394 173.609 192.746 174.246 189.854H167.966Z" fill="#663399"/>
<defs>
<linearGradient id="paint0_linear" x1="156.784" y1="156.152" x2="156.784" y2="0" gradientUnits="userSpaceOnUse">
<stop stop-color="#808080" stop-opacity="0.25"/>
<stop offset="0.54" stop-color="#808080" stop-opacity="0.12"/>
<stop offset="1" stop-color="#808080" stop-opacity="0.1"/>
</linearGradient>
</defs>
</svg>
