<svg width="1022" height="708" viewBox="0 0 1022 708" fill="none" xmlns="http://www.w3.org/2000/svg">
<path opacity="0.1" d="M810.36 626.21C927.091 626.21 1021.72 607.818 1021.72 585.13C1021.72 562.442 927.091 544.05 810.36 544.05C693.629 544.05 599 562.442 599 585.13C599 607.818 693.629 626.21 810.36 626.21Z" fill="#2A9D8F"/>
<g opacity="0.5">
<path opacity="0.5" d="M629.32 103.47C626.47 104.28 622.98 106.39 621.26 112.16C617.89 123.47 625.72 131.16 623.14 142.95C622.424 146.077 621.062 149.02 619.14 151.59C615.99 155.86 612.57 157.88 609.25 160.87C605.039 164.689 602.021 169.645 600.56 175.14C598.959 181.204 598.826 187.563 600.17 193.69C601.35 198.81 603.36 202.54 605.12 206.69C607.309 211.983 609.019 217.461 610.23 223.06C610.895 225.786 611.271 228.575 611.35 231.38C611.301 235.106 610.966 238.824 610.35 242.5L605.56 275.92C604.833 280.289 604.395 284.702 604.25 289.13C604.313 293.567 604.826 297.986 605.78 302.32C607.46 311.16 609.27 320.32 613.12 325C616.97 329.68 623.53 328 627.56 318.53C631.39 309.47 631.48 297.38 634.86 287.7C640.19 272.45 650.78 270.4 656.66 255.85C662.3 241.85 660.57 224.77 663.43 208.85C665.43 197.44 669.84 187.04 672.43 175.77C676.15 159.54 675.78 142.69 672.81 130.21C670.551 119.955 665.665 110.465 658.63 102.67C656.14 99.9196 653.47 97.4696 650.34 97.2196C647.01 96.9596 644.1 101.15 640.81 102.41C637.01 103.9 633.19 102.37 629.32 103.47Z" fill="#2A9D8F"/>
<path opacity="0.5" d="M647.35 98.0693C647.35 98.0693 641.71 242.409 617.99 327.519" stroke="#535461" stroke-width="2" stroke-miterlimit="10"/>
<path opacity="0.5" d="M621.12 112.839C621.12 112.839 646.47 135.919 641.66 179.839" stroke="#535461" stroke-width="2" stroke-miterlimit="10"/>
<path opacity="0.5" d="M599.851 178.52C599.851 178.52 641.461 186.89 638.371 211.78" stroke="#535461" stroke-width="2" stroke-miterlimit="10"/>
<path opacity="0.5" d="M672.88 129.91C672.88 129.91 656.041 144.65 641.041 186.4" stroke="#535461" stroke-width="2" stroke-miterlimit="10"/>
<path opacity="0.5" d="M656.43 256.089C656.43 256.089 644.94 265.089 635.72 233.579" stroke="#535461" stroke-width="2" stroke-miterlimit="10"/>
<path opacity="0.5" d="M606.851 274.5C606.851 274.5 630.281 271.44 632.441 256.77" stroke="#535461" stroke-width="2" stroke-miterlimit="10"/>
</g>
<path d="M685.96 6.65983C680.16 7.51983 673.18 10.2098 670.31 18.4998C664.68 34.7598 681.79 47.0698 677.85 64.0598C676.675 68.7354 674.199 72.9826 670.71 76.3098C664.71 82.2198 657.85 84.7998 651.35 88.8098C644.85 92.8198 638.1 99.1298 635.05 108.81C632.12 118.12 633.39 128.4 636.44 136.08C639.49 143.76 644.1 149.49 648.22 155.81C653.227 163.589 657.413 171.867 660.71 180.51C662.373 184.449 663.49 188.598 664.03 192.84C664.56 198.04 663.89 203.63 663.22 209.1L657.27 257.84C656.48 264.32 655.68 270.9 656.13 277.14C656.64 284.33 658.77 290.61 660.87 296.74C665.39 309.96 670.23 323.74 678.76 331.02C687.29 338.3 700.67 336.74 707.88 323.2C714.74 310.31 713.48 292.52 719.33 278.67C728.55 256.84 750.23 255.07 760.66 234.35C770.66 214.47 765.07 189.04 769.09 165.94C771.97 149.39 779.77 134.59 783.77 118.3C789.54 94.8298 786.77 69.9798 779.15 51.2998C771.53 32.6198 759.48 19.2998 746.55 9.06983C741.07 4.71983 735.26 0.789835 728.75 0.0698348C721.83 -0.700165 716.3 5.11983 709.65 6.58983C701.91 8.19983 693.83 5.48983 685.96 6.65983Z" fill="#2A9D8F"/>
<path d="M722.64 0.839844C722.64 0.839844 728.1 212.73 689.08 335.26" stroke="#535461" stroke-width="2" stroke-miterlimit="10"/>
<path d="M670.09 19.5195C670.09 19.5195 725.29 56.5195 720.56 120.68" stroke="#535461" stroke-width="2" stroke-miterlimit="10"/>
<path d="M633.86 113.69C633.86 113.69 720.98 130.95 717.54 167.23" stroke="#535461" stroke-width="2" stroke-miterlimit="10"/>
<path d="M779.25 50.7598C779.25 50.7598 746.14 70.4698 720.06 130.17" stroke="#535461" stroke-width="2" stroke-miterlimit="10"/>
<path d="M760.14 234.63C760.14 234.63 737.44 246.63 714.61 199.02" stroke="#535461" stroke-width="2" stroke-miterlimit="10"/>
<path d="M659.71 255.84C659.71 255.84 707.84 254.11 710.58 232.76" stroke="#535461" stroke-width="2" stroke-miterlimit="10"/>
<path d="M63.2076 569.01C63.2076 569.01 71.5876 580.01 59.3376 596.51C47.0876 613.01 36.9676 627.03 41.0776 637.35C41.0776 637.35 59.5576 606.62 74.5976 606.19C89.6376 605.76 79.7576 587.49 63.2076 569.01Z" fill="#2A9D8F"/>
<path opacity="0.1" d="M63.2077 569.01C63.9555 570.067 64.5482 571.225 64.9677 572.45C79.6477 589.69 87.4577 605.78 73.3577 606.19C60.2177 606.57 44.4577 630.06 40.6777 636C40.8025 636.458 40.9527 636.909 41.1277 637.35C41.1277 637.35 59.6077 606.62 74.6477 606.19C89.6877 605.76 79.7577 587.49 63.2077 569.01Z" fill="black"/>
<path d="M78.7876 582.979C78.7876 586.839 78.3576 589.979 77.7876 589.979C77.2176 589.979 76.7876 586.849 76.7876 582.979C76.7876 579.109 77.3276 580.979 77.8576 580.979C78.3876 580.979 78.7876 579.119 78.7876 582.979Z" fill="#FFD037"/>
<path d="M84.1378 587.58C80.7478 589.43 77.7978 590.58 77.5478 590.07C77.2978 589.56 79.8278 587.72 83.2178 585.88C86.6078 584.04 85.2678 585.38 85.5278 585.88C85.7878 586.38 87.5178 585.73 84.1378 587.58Z" fill="#FFD037"/>
<path d="M18.9675 569.01C18.9675 569.01 10.5875 580.01 22.8375 596.51C35.0875 613.01 45.1875 627.02 41.0975 637.34C41.0975 637.34 22.6175 606.61 7.57748 606.18C-7.46252 605.75 2.39748 587.49 18.9675 569.01Z" fill="#2A9D8F"/>
<path opacity="0.1" d="M18.9675 569.01C18.2372 570.07 17.6615 571.228 17.2575 572.45C2.57748 589.69 -5.23252 605.78 8.86748 606.19C22.0075 606.57 37.7675 630.06 41.5475 636C41.4227 636.458 41.2725 636.909 41.0975 637.35C41.0975 637.35 22.6175 606.62 7.57748 606.19C-7.46252 605.76 2.39748 587.49 18.9675 569.01Z" fill="black"/>
<path d="M6.0376 635.909C6.0376 635.909 29.4676 635.189 36.5276 630.159C43.5876 625.129 72.5276 619.159 74.3176 627.159C76.1076 635.159 109.528 667.269 83.0776 667.479C56.6276 667.689 21.6176 663.359 14.5676 659.069C7.5176 654.779 6.0376 635.909 6.0376 635.909Z" fill="#A8A8A8"/>
<path opacity="0.2" d="M83.5476 664.699C57.0976 664.909 22.0876 660.579 15.0376 656.289C9.6676 653.019 7.5276 641.289 6.8176 635.879H6.0376C6.0376 635.879 7.5176 654.779 14.5676 659.069C21.6176 663.359 56.6276 667.699 83.0776 667.479C90.7176 667.419 93.3476 664.699 93.2076 660.679C92.1476 663.139 89.2376 664.659 83.5476 664.699Z" fill="black"/>
<path d="M978.06 573.95C979.893 572.456 981.229 570.44 981.89 568.17C982.39 565.87 981.41 563.12 979.21 562.28C976.75 561.34 974.12 563.04 972.13 564.77C970.14 566.5 967.85 568.46 965.24 568.09C966.582 566.874 967.585 565.331 968.153 563.612C968.721 561.893 968.834 560.056 968.48 558.28C968.367 557.544 968.056 556.852 967.58 556.28C966.21 554.82 963.74 555.45 962.1 556.6C956.9 560.26 955.45 567.32 955.42 573.68C954.9 571.39 955.34 569 955.32 566.68C955.3 564.36 954.66 561.68 952.68 560.46C951.452 559.8 950.073 559.473 948.68 559.51C946.34 559.42 943.74 559.66 942.14 561.37C940.14 563.49 940.67 567.06 942.4 569.37C944.13 571.68 946.75 573.17 949.17 574.79C951.11 575.943 952.764 577.519 954.01 579.4C954.157 579.661 954.277 579.935 954.37 580.22H969.02C972.303 578.547 975.343 576.438 978.06 573.95Z" fill="#2A9D8F"/>
<path opacity="0.1" d="M219.618 707.72C336.349 707.72 430.978 689.327 430.978 666.64C430.978 643.952 336.349 625.56 219.618 625.56C102.887 625.56 8.25781 643.952 8.25781 666.64C8.25781 689.327 102.887 707.72 219.618 707.72Z" fill="#2A9D8F"/>
<path d="M323.048 414.09L316.348 415.3L320.608 423.53L325.178 425.96L329.438 429L330.658 425.66L327.608 419.26L323.048 414.09Z" fill="#FDC2CC"/>
<path d="M318.178 414.699H314.528V419.879L318.178 428.099C318.178 428.099 323.048 429.009 323.358 429.009C323.668 429.009 327.618 428.099 327.618 428.099L328.838 425.969C328.838 425.969 315.438 420.779 318.178 414.699Z" fill="#E6E6F0"/>
<path d="M315.437 413.479L313.577 414.999L305.397 421.699L324.267 446.699C324.267 446.699 334.917 451.269 339.797 446.699C339.797 446.699 342.797 443.699 336.147 441.219C336.147 441.219 330.967 442.129 330.967 436.959C330.967 431.789 332.187 426.309 333.967 425.089C333.967 425.089 329.397 423.569 328.187 424.789C327.256 425.815 326.438 426.939 325.747 428.139C325.747 428.139 314.827 423.829 315.437 413.479Z" fill="#B45181"/>
<path d="M874.32 600.12C874.32 600.12 864.05 600.84 857.71 589.84C856.471 587.625 855.007 585.544 853.34 583.63C851.293 580.274 850.23 576.411 850.27 572.48C850.62 564.33 842.12 519.69 842.12 519.69C842.12 519.69 843.18 502.69 834.68 492.06C829.08 485.06 821.03 465.06 816.18 452.14C816.505 452.43 816.897 452.636 817.32 452.74L817.12 451.63H817.32L814.81 437.84C811.156 433.639 808.076 428.972 805.65 423.96L806.22 423.84L813.74 422.26C813.74 422.26 825.96 404.89 826.74 396.35H827.74H829.15C840.461 396.288 851.767 396.879 863.01 398.12C863.01 398.07 862.93 397.85 862.83 397.5C862.354 395.782 861.987 394.035 861.73 392.27H862.43L869.43 391.81C869.43 391.81 893.52 364.89 884.66 359.93C875.8 354.97 866.59 382.25 866.59 382.25L863.59 382.79L862.78 382.94C862.86 382.82 862.94 382.71 863.03 382.6C863.12 382.49 823.71 380.84 817.64 371.26C817.64 371.26 800.28 357.44 799.57 348.26C799.442 346.356 798.792 344.523 797.692 342.964C796.591 341.404 795.082 340.178 793.33 339.42C791.185 338.396 788.81 337.952 786.44 338.13L778.31 338.69L778.88 339.69H778.65C778.14 338.521 777.712 337.318 777.37 336.09H777.54C777.48 335.84 777.43 335.59 777.38 335.34C779.872 334.753 782.22 333.671 784.286 332.159C786.352 330.647 788.093 328.737 789.407 326.54C790.721 324.343 791.581 321.904 791.935 319.369C792.289 316.834 792.131 314.253 791.47 311.78C792.266 311.882 793.072 311.859 793.86 311.71C796.86 311.1 798.97 308.06 799.05 305.02C799.05 304.82 799.05 304.62 799.05 304.43C799.05 304.43 799.05 304.35 799.05 304.31C799.02 302.783 798.65 301.281 797.967 299.914C797.284 298.548 796.304 297.351 795.1 296.41C793.48 295.06 791.54 294.1 790.1 292.6C788.35 290.81 787.39 288.41 786.03 286.3C783.752 282.81 780.373 280.181 776.43 278.83C773.5 277.83 769.9 277.73 767.65 279.83C766.49 280.92 765.82 282.5 764.52 283.42C762.65 284.76 760.11 284.36 757.82 284.63C755.746 284.949 753.783 285.774 752.104 287.031C750.424 288.289 749.08 289.94 748.19 291.84C747.067 294.219 746.526 296.831 746.61 299.46C746.585 301.264 746.801 303.063 747.25 304.81C747.69 306.55 748.34 308.23 748.82 309.97C749.82 313.57 750.05 317.36 751.2 320.91C751.973 323.545 753.515 325.889 755.63 327.64L755.29 329.1C755.07 329.1 749.55 330.33 745.74 338.66C742.74 345.23 732.53 352.01 728.04 354.75C727.203 355.263 726.476 355.937 725.903 356.734C725.329 357.53 724.92 358.433 724.7 359.39C724.269 361.323 724.077 363.301 724.13 365.28C724.05 369.55 724.94 375.46 728.37 382.95C736.16 399.95 741.83 407.39 741.83 407.39C741.83 407.39 742.26 412.6 742.29 418.09C742.29 422.18 741.99 426.25 741.12 428.29C740.38 430.01 740.12 434.4 740.18 439.42C740.18 449.04 741.12 461.59 741.12 461.59C741.12 461.59 743.83 462.11 748.02 462.72L750.63 508.64C750.958 514.201 749.172 519.681 745.63 523.98C743.799 526.241 741.685 528.258 739.34 529.98C731.9 535.29 715.96 591.27 715.96 591.27C715.96 591.27 716.74 591.27 718.02 591.42L713.12 605.09C713.12 605.09 732.7 620.09 744.61 615.99C745.9 615.57 747.254 615.38 748.61 615.43C750.96 615.43 755.99 613.57 753.19 611.12C747.783 606.141 742.684 600.838 737.92 595.24C738.303 595.428 738.671 595.645 739.02 595.89V595.78L739.19 595.89C739.19 595.89 739.19 595.34 739.32 594.44L739.15 594.38C739.51 590.7 740.65 581.38 742.91 580.3C745.74 578.88 766.65 537.43 766.65 537.43L787.55 483.58C787.55 483.58 804.2 512.28 818.37 517.23V529.23C818.37 529.23 826.16 564.66 829 568.55C831.84 572.44 829 588.03 829 588.03C829.56 588.671 830.203 589.236 830.91 589.71L828.64 602.55C828.64 602.55 844.94 601.84 872.57 610.34C872.55 610.39 883.18 605.79 874.32 600.12ZM809.14 414.84L805.69 415.7L805.01 415.87C804.94 415.44 804.89 415.19 804.89 415.19C804.099 415.547 803.247 415.754 802.38 415.8C801.157 411.927 800.451 407.909 800.28 403.85C799.119 398.993 798.413 394.038 798.17 389.05C798.17 386.47 798.6 384.22 799.57 382.95L800.72 383.04L801.52 383.8L801.58 383.85L801.99 384.22L802.42 384.6L802.49 384.66L802.95 385.07L803.03 385.14L803.5 385.54L804.03 385.98L804.15 386.08L804.71 386.53L805.26 386.97L805.39 387.07L806 387.53L806.13 387.62L806.71 388.05L806.81 388.12L807.47 388.59L807.63 388.7L808.33 389.18H808.39L809.07 389.63L809.23 389.74L809.96 390.21L810.12 390.31L810.8 390.73L810.93 390.81L811.71 391.27L811.9 391.38L812.71 391.83H812.77L813.56 392.25L813.75 392.35L814.59 392.77L814.76 392.85L815.54 393.21L815.69 393.28L816.57 393.66L816.78 393.75L817.69 394.12C812.04 400.34 809.14 414.84 809.14 414.84Z" fill="url(#paint0_linear)"/>
<path d="M721.76 583L715.19 601.33C715.19 601.33 733.19 615.13 744.89 612.27C746.653 611.831 748.449 611.54 750.26 611.4C752.68 611.22 756.85 609.45 754.26 607.21C745.96 599.95 734.89 586.46 734.89 586.46L721.76 583Z" fill="#4F4D59"/>
<path d="M831.05 581.27L827.94 598.91C827.94 598.91 843.85 598.22 870.83 606.52C870.83 606.52 881.21 602.02 872.56 596.52C872.56 596.52 862.56 597.21 856.31 586.52C850.06 575.83 846.31 577.18 846.31 577.18L831.05 581.27Z" fill="#4F4D59"/>
<path d="M748.71 453.309L751.71 506.989C752.039 512.709 750.143 518.335 746.42 522.689C744.738 524.689 742.82 526.478 740.71 528.019C733.45 533.209 717.88 587.849 717.88 587.849C717.88 587.849 735.52 588.849 740.36 592.349C740.36 592.349 741.36 578.519 744.16 577.129C746.96 575.739 767.33 535.279 767.33 535.279L787.74 482.709C787.74 482.709 803.99 510.709 817.83 515.569V527.329C817.83 527.329 825.44 561.919 828.21 565.719C830.98 569.519 828.21 584.719 828.21 584.719C828.21 584.719 836.21 594.719 854.49 584.029C854.49 584.029 848.61 577.459 848.96 569.499C849.31 561.539 840.96 517.969 840.96 517.969C840.96 517.969 841.96 501.369 833.7 490.969C825.44 480.569 811.71 440.839 811.71 440.839L802.19 420.359L748.71 453.309Z" fill="#C48C96"/>
<g opacity="0.1">
<path opacity="0.1" d="M721.24 587.839C721.24 587.839 736.8 533.199 744.07 528.009C746.3 526.375 748.316 524.466 750.07 522.329C753.619 518.034 755.406 512.551 755.07 506.989L752.02 453.299L803.02 421.859L802.33 420.369L748.91 453.309L751.96 506.999C752.296 512.561 750.509 518.044 746.96 522.339C745.206 524.476 743.19 526.385 740.96 528.019C733.71 533.199 718.13 587.839 718.13 587.839C718.13 587.839 735.77 588.839 740.61 592.339C740.61 592.339 740.61 591.799 740.74 590.929C733.93 588.589 721.24 587.839 721.24 587.839Z" fill="black"/>
<path opacity="0.1" d="M831.57 584.729C831.57 584.729 834.34 569.509 831.57 565.729C828.8 561.949 821.19 527.339 821.19 527.339V515.559C807.36 510.719 791.1 482.699 791.1 482.699L789.9 485.839C794.59 493.279 807.1 511.739 818.09 515.579V527.339C818.09 527.339 825.7 561.929 828.47 565.729C831.24 569.529 828.47 584.729 828.47 584.729C828.47 584.729 832.33 589.589 840.85 588.929C834.48 588.399 831.57 584.729 831.57 584.729Z" fill="black"/>
</g>
<path d="M867.71 393.13L860.92 393.58L857.34 393.82V385.17L862.04 384.32L864.95 383.79C864.95 383.79 873.95 357.16 882.59 362C891.23 366.84 867.71 393.13 867.71 393.13Z" fill="#714B4F"/>
<path d="M758.77 321.84C758.77 321.84 754.27 339.13 752.89 349.84C751.51 360.55 785.05 351.92 785.05 351.92C785.05 351.92 772.25 336.36 779.52 328.06L758.77 321.84Z" fill="#714B4F"/>
<path d="M795.081 393.84L795.771 400.41L785.051 399.72L774.331 390.38L763.611 360.28L756.711 349.55L751.521 342.98L753.601 334.98C753.601 334.98 754.551 335.81 756.151 337.03C761.421 341.03 773.771 349.44 782.801 347.12C783.218 347.015 783.629 346.885 784.031 346.73L797.521 369.9L795.081 393.84Z" fill="#E6E6F0"/>
<path opacity="0.1" d="M756.35 332.949C756.35 332.949 750.82 333.949 747.01 342.289C744.09 348.669 734.21 355.289 729.8 357.959C728.959 358.473 728.229 359.15 727.654 359.95C727.078 360.751 726.669 361.658 726.45 362.619C725.56 366.559 725.22 373.909 730.06 384.479C737.67 401.079 743.2 408.339 743.2 408.339C743.2 408.339 744.58 424.939 742.51 429.779C740.44 434.619 742.51 461.249 742.51 461.249C742.51 461.249 778.82 468.169 790.93 461.249C803.04 454.329 801.31 427.699 801.31 427.699C801.31 427.699 812.72 451.909 816.87 452.599L814.45 439.109C814.45 439.109 800.96 424.579 800.27 405.909C800.27 405.909 796.12 388.959 799.58 384.469C799.58 384.469 858.03 389.309 861.49 385.159C861.49 385.159 823.1 383.429 817.22 374.089C817.22 374.089 800.27 360.599 799.58 351.609C799.48 349.922 798.95 348.288 798.042 346.861C797.134 345.435 795.877 344.264 794.39 343.459C792.038 342.121 789.338 341.519 786.64 341.729L778.83 342.269C778.83 342.269 792.32 366.129 791.63 369.269C790.94 372.409 792.32 397.629 792.32 397.629C792.32 397.629 776.71 364.079 769.84 360.279C762.97 356.479 754.96 340.839 754.96 340.839L756.34 332.939" fill="black"/>
<path opacity="0.1" d="M795.081 393.84L795.771 400.41L785.051 399.72L774.331 390.38L763.611 360.28L756.711 349.55L751.521 342.98L753.601 334.98C753.601 334.98 754.551 335.81 756.151 337.03L755.671 339.76C755.671 339.76 763.671 355.38 770.541 359.19C777.411 363 793.021 396.54 793.021 396.54C793.021 396.54 791.641 371.29 792.331 368.18C792.801 366.07 786.741 354.41 782.801 347.12C783.218 347.015 783.629 346.885 784.031 346.73L797.521 369.9L795.081 393.84Z" fill="black"/>
<path opacity="0.1" d="M860.92 393.58L857.34 393.82V385.17L862.04 384.32C860.4 386.49 860.46 390.33 860.92 393.58Z" fill="black"/>
<path d="M756.35 331.92C756.35 331.92 750.82 332.92 747.01 341.26C744.09 347.64 734.21 354.26 729.8 356.93C728.959 357.444 728.229 358.121 727.654 358.921C727.078 359.721 726.669 360.629 726.45 361.59C725.56 365.53 725.22 372.88 730.06 383.45C737.67 400.05 743.2 407.31 743.2 407.31C743.2 407.31 744.58 423.91 742.51 428.75C740.44 433.59 742.51 460.22 742.51 460.22C742.51 460.22 778.82 467.14 790.93 460.22C803.04 453.3 801.31 426.67 801.31 426.67C801.31 426.67 812.71 450.84 816.87 451.58L814.45 438.09C814.45 438.09 800.96 423.56 800.27 404.89C800.27 404.89 796.12 387.94 799.58 383.45C799.58 383.45 813.07 397.98 828.29 397.63C839.381 397.563 850.466 398.141 861.49 399.36C861.49 399.36 858.03 388.29 861.49 384.14C861.49 384.14 823.1 382.41 817.22 373.07C817.22 373.07 800.27 359.58 799.58 350.59C799.48 348.902 798.95 347.268 798.042 345.842C797.134 344.416 795.877 343.245 794.39 342.44C792.038 341.102 789.338 340.499 786.64 340.71L778.83 341.25C778.83 341.25 792.32 365.11 791.63 368.25C790.94 371.39 792.32 396.61 792.32 396.61C792.32 396.61 776.71 363.04 769.84 359.24C762.97 355.44 754.96 339.84 754.96 339.84L756.34 331.94" fill="#C48C96"/>
<path opacity="0.1" d="M748.71 368.23C748.71 368.23 757.01 396.23 761.85 399.7C766.69 403.17 796.09 420.8 804.74 416.65C804.74 416.65 806.82 427.03 803.74 429.45C803.74 429.45 771.49 428.19 771.23 428.07C771.23 428.07 750.13 425.3 746.67 414.93C743.21 404.56 739.06 386.93 739.06 386.93L748.71 368.23Z" fill="black"/>
<path d="M793.01 399.88C793.679 399.88 794.22 399.105 794.22 398.15C794.22 397.194 793.679 396.42 793.01 396.42C792.342 396.42 791.8 397.194 791.8 398.15C791.8 399.105 792.342 399.88 793.01 399.88Z" fill="#BA7855"/>
<path d="M796.46 411.98C797.128 411.98 797.67 411.205 797.67 410.25C797.67 409.294 797.128 408.52 796.46 408.52C795.792 408.52 795.25 409.294 795.25 410.25C795.25 411.205 795.792 411.98 796.46 411.98Z" fill="#BA7855"/>
<g opacity="0.1">
<path opacity="0.1" d="M744.94 459.84C744.94 459.84 742.86 433.21 744.94 428.37C747.02 423.53 745.63 406.93 745.63 406.93C745.63 406.93 740.1 399.67 732.49 383.07C727.64 372.5 727.99 365.15 728.88 361.21C729.099 360.249 729.508 359.341 730.084 358.541C730.659 357.74 731.389 357.063 732.23 356.55C736.64 353.85 746.51 347.26 749.44 340.88C751.59 336.2 754.28 333.83 756.22 332.65L756.35 331.89C756.35 331.89 750.82 332.89 747.01 341.23C744.09 347.61 734.21 354.23 729.8 356.9C728.959 357.413 728.229 358.09 727.654 358.891C727.078 359.691 726.669 360.599 726.45 361.56C725.56 365.5 725.22 372.85 730.06 383.42C737.67 400.02 743.2 407.28 743.2 407.28C743.2 407.28 744.58 423.88 742.51 428.72C740.44 433.56 742.51 460.19 742.51 460.19C742.51 460.19 768.45 465.13 783.79 462.48C768.3 464.33 744.94 459.84 744.94 459.84Z" fill="black"/>
<path opacity="0.1" d="M791.62 368.23C791.15 370.36 791.62 382.89 792.01 390.57C793.68 393.98 794.73 396.25 794.73 396.25C794.73 396.25 793.35 371 794.04 367.89C794.7 364.89 782.55 343.23 781.34 341.09L778.82 341.26C778.82 341.26 792.32 365.12 791.62 368.23Z" fill="black"/>
<path opacity="0.1" d="M830.71 397.28C815.49 397.63 802 383.1 802 383.1C801.596 383.663 801.301 384.297 801.13 384.97C805.13 388.69 816.13 397.9 828.29 397.62C839.381 397.553 850.467 398.13 861.49 399.35C861.49 399.35 861.42 399.12 861.31 398.73C851.145 397.679 840.929 397.195 830.71 397.28Z" fill="black"/>
<path opacity="0.1" d="M803.71 426.33C803.71 426.33 803.85 428.49 803.77 431.73C807.37 438.87 813.92 451.08 816.85 451.57L816.34 448.73C811.31 442.41 803.71 426.33 803.71 426.33Z" fill="black"/>
</g>
<path d="M813.41 422.84L806.06 424.39L800.26 425.61L803.37 416.96L805.54 416.42L808.91 415.58C808.91 415.58 813.75 391.37 823.44 393.1C833.13 394.83 813.41 422.84 813.41 422.84Z" fill="#714B4F"/>
<path opacity="0.1" d="M806.07 424.419L800.271 425.639L803.38 416.989L805.551 416.449C806.031 419.077 806.206 421.751 806.07 424.419Z" fill="black"/>
<path d="M748.71 367.539C748.71 367.539 757.01 395.539 761.85 399.009C766.69 402.479 796.09 420.109 804.74 415.959C804.74 415.959 806.82 426.339 803.74 428.759C803.74 428.759 771.49 427.499 771.23 427.379C771.23 427.379 750.13 424.609 746.67 414.239C743.21 403.869 739.06 386.239 739.06 386.239L748.71 367.539Z" fill="#C48C96"/>
<path opacity="0.1" d="M759.11 322.58C759.11 322.58 758.41 325.29 757.47 329.23C759.385 332.858 762.441 335.754 766.166 337.471C769.891 339.188 774.078 339.631 778.08 338.73C777.25 335.18 777.43 331.59 779.86 328.81L759.11 322.58Z" fill="black"/>
<path d="M773.64 338.489C783.957 338.489 792.32 330.126 792.32 319.809C792.32 309.492 783.957 301.129 773.64 301.129C763.323 301.129 754.96 309.492 754.96 319.809C754.96 330.126 763.323 338.489 773.64 338.489Z" fill="#714B4F"/>
<path opacity="0.1" d="M789.86 314.669C791.213 315.047 792.63 315.135 794.02 314.929C795.459 314.539 796.732 313.691 797.645 312.513C798.558 311.334 799.062 309.89 799.08 308.399C799.054 306.908 798.694 305.442 798.028 304.108C797.362 302.774 796.406 301.606 795.23 300.689C793.65 299.369 791.76 298.439 790.31 296.969C788.6 295.219 787.66 292.879 786.31 290.819C784.086 287.413 780.789 284.847 776.94 283.529C774.08 282.529 770.57 282.449 768.37 284.529C767.24 285.599 766.58 287.129 765.32 288.039C763.49 289.339 761.01 288.959 758.78 289.219C756.76 289.526 754.846 290.325 753.206 291.546C751.567 292.766 750.253 294.371 749.38 296.219C747.674 299.987 747.348 304.235 748.46 308.219C748.89 309.919 749.53 311.559 749.99 313.219C750.99 316.739 751.19 320.429 752.31 323.899C753.43 327.369 755.74 330.769 759.24 331.809C758.964 327.914 759.734 324.016 761.47 320.519C761.756 319.754 762.32 319.126 763.05 318.759C763.673 318.599 764.327 318.599 764.95 318.759C769.336 319.408 773.811 318.502 777.6 316.199C778.93 315.399 781 312.639 782.41 312.369C784.23 312.059 787.96 314.249 789.86 314.669Z" fill="black"/>
<path d="M789.86 313.98C791.213 314.357 792.63 314.446 794.02 314.24C795.459 313.85 796.732 313.002 797.645 311.823C798.558 310.645 799.062 309.2 799.08 307.71C799.054 306.219 798.694 304.753 798.028 303.418C797.362 302.084 796.406 300.916 795.23 300C793.65 298.68 791.76 297.75 790.31 296.28C788.6 294.53 787.66 292.19 786.31 290.13C784.086 286.723 780.789 284.157 776.94 282.84C774.08 281.84 770.57 281.76 768.37 283.84C767.24 284.91 766.58 286.44 765.32 287.35C763.49 288.65 761.01 288.27 758.78 288.53C756.76 288.837 754.846 289.636 753.206 290.856C751.567 292.077 750.253 293.682 749.38 295.53C747.674 299.297 747.348 303.546 748.46 307.53C748.89 309.23 749.53 310.87 749.99 312.53C750.99 316.05 751.19 319.74 752.31 323.21C753.43 326.68 755.74 330.08 759.24 331.12C758.972 327.226 759.749 323.332 761.49 319.84C761.776 319.075 762.34 318.446 763.07 318.079C763.693 317.919 764.347 317.919 764.97 318.079C769.356 318.728 773.831 317.823 777.62 315.52C778.95 314.72 781.02 311.96 782.43 311.69C784.23 311.37 787.96 313.56 789.86 313.98Z" fill="#503F43"/>
<path d="M976.21 252.33L960.97 423.03L892.47 442.03L824.16 423.03L808.94 252.33H976.21Z" fill="#E44D26"/>
<path d="M892.57 427.509L947.92 412.169L960.92 266.289H892.57V427.509Z" fill="#F16529"/>
<path d="M862.95 308.169H892.57V287.229H840.07L840.57 292.849L845.72 350.549H892.58V329.609H864.87L862.95 308.169ZM867.71 361.019H846.71L849.64 393.899L892.48 405.839H892.58V383.989H892.49L869.17 377.689L867.71 361.019Z" fill="#EBEBEB"/>
<path d="M824.51 205.93H835.15V216.44H844.88V205.93H855.52V237.77H844.88V227.11H835.15V237.77H824.51V205.93ZM869.51 216.49H860.14V205.93H889.52V216.49H880.15V237.77H869.52V216.49H869.51ZM894.19 205.93H905.29L912.12 217.12L918.94 205.93H930.04V237.77H919.44V221.99L912.12 233.31H911.94L904.61 221.99V237.77H894.19V205.93ZM935.33 205.93H945.97V227.24H960.97V237.76H935.36V205.93H935.33Z" fill="#72AC82"/>
<path d="M892.5 350.55H918.28L915.85 377.71L892.5 384.01V405.84L935.43 393.94L935.74 390.4L940.66 335.27L941.17 329.65H892.5V350.59V350.55ZM892.5 308.12V308.17H943.08L943.5 303.46L944.5 292.84L945 287.22H892.5V308.11V308.12Z" fill="white"/>
<path d="M362.688 368.859C360.738 363.149 357.928 355.859 355.688 354.199C355.553 354.092 355.405 354.001 355.248 353.929H354.968V346.879L349.708 347.719C348.863 345.171 348.225 342.56 347.798 339.909C348.304 340.416 348.95 340.762 349.653 340.903C350.356 341.043 351.085 340.972 351.748 340.699C351.658 340.559 351.588 340.409 351.508 340.259L351.748 340.159C350.92 338.698 350.482 337.049 350.478 335.369C350.521 333.837 350.767 332.317 351.208 330.849C352.148 327.599 353.738 324.559 354.628 321.299C355.196 319.194 355.466 317.02 355.428 314.839C355.455 311.146 354.612 307.497 352.968 304.189C352.56 303.237 351.92 302.402 351.108 301.759C350.368 301.349 349.607 300.979 348.828 300.649C347.524 299.771 346.4 298.651 345.518 297.349C341.782 292.801 336.781 289.464 331.148 287.759C329.681 287.215 328.091 287.09 326.558 287.399C323.028 288.399 321.738 292.729 318.878 295.019C316.348 297.019 312.878 297.249 309.718 297.929C306.474 298.481 303.488 300.046 301.188 302.399C299.692 304.109 298.877 306.308 298.898 308.579C298.812 309.639 298.999 310.703 299.442 311.67C299.885 312.636 300.569 313.473 301.428 314.099C302.405 314.742 303.513 315.161 304.671 315.325C305.83 315.489 307.01 315.395 308.128 315.049C307.254 318.066 307.014 321.23 307.421 324.343C307.829 327.457 308.875 330.452 310.495 333.142C312.114 335.832 314.272 338.159 316.833 339.975C319.395 341.792 322.303 343.06 325.378 343.699L325.998 344.799C327.889 348.327 329.324 352.08 330.268 355.969C325.428 358.719 320.138 361.289 316.948 361.529C316.821 362.776 316.59 364.011 316.258 365.219C315.512 368.254 314.079 371.077 312.068 373.469C307.728 378.349 288.198 415.249 288.198 415.249C288.198 415.249 287.578 416.719 286.578 419.249C274.448 420.739 254.658 422.889 249.128 421.779L227.428 401.159C227.428 401.159 220.428 406.509 221.028 413.009L217.118 409.289C217.118 409.289 196.498 425.019 229.058 435.289L278.598 441.039C273.878 455.279 269.478 471.849 270.838 480.869H271.248C272.195 480.868 273.141 480.794 274.078 480.649L273.988 482.249L269.218 567.679C269.218 567.679 268.128 583.409 282.778 590.469C282.778 590.469 300.688 643.099 293.628 649.069C293.628 649.069 294.468 649.509 295.878 650.129L281.148 663.129C281.148 663.129 270.298 665.839 264.328 665.299C263.278 665.156 262.213 665.404 261.335 665.996C260.457 666.589 259.828 667.483 259.568 668.509C259.568 668.619 259.568 668.729 259.508 668.849V668.989C259.508 669.099 259.508 669.219 259.508 669.339C259.508 669.459 259.508 669.429 259.508 669.469C259.508 669.509 259.508 669.669 259.508 669.769V669.899C259.508 670.019 259.508 670.129 259.578 670.249V670.379C259.611 670.506 259.651 670.629 259.698 670.749V670.869C259.748 670.989 259.808 671.109 259.868 671.229V671.309C259.938 671.429 260.008 671.549 260.088 671.669L260.158 671.769C260.244 671.896 260.341 672.023 260.448 672.149L260.528 672.249C260.638 672.379 260.758 672.499 260.888 672.629H260.948L261.348 672.969L261.438 673.039L261.928 673.389L262.048 673.469L262.618 673.799H262.708L263.318 674.099H263.408L264.118 674.389L264.268 674.449L265.058 674.709H265.188L266.038 674.929H266.108L267.108 675.119H267.298L268.298 675.269H268.488L269.638 675.379C271.868 675.549 274.878 675.609 278.358 675.599C278.358 675.599 278.358 675.689 278.358 675.729C278.358 675.769 278.358 675.929 278.358 676.029V676.159C278.358 676.279 278.358 676.389 278.428 676.509V676.639C278.461 676.766 278.501 676.889 278.548 677.009V677.129C278.598 677.249 278.658 677.369 278.718 677.489V677.569C278.788 677.689 278.858 677.809 278.938 677.929L279.008 678.029C279.094 678.156 279.191 678.283 279.298 678.409L279.378 678.509C279.488 678.639 279.608 678.759 279.738 678.889H279.788L280.188 679.229L280.278 679.299L280.768 679.649L280.888 679.729L281.448 680.059H281.538L282.148 680.359H282.238L282.948 680.649L283.098 680.709L283.888 680.969H284.018L284.868 681.189H284.938L285.938 681.379H286.128L287.128 681.529H287.318L288.468 681.639C302.578 682.729 347.608 679.469 347.608 679.469V679.339V679.179C348.058 677.079 350.218 664.869 342.538 655.839C342.768 655.599 342.988 655.349 343.198 655.089C343.198 655.089 337.198 644.779 340.488 641.529C343.778 638.279 324.598 582.349 324.598 582.349C324.598 582.349 314.288 566.069 320.258 547.619C326.228 529.169 319.718 509.099 319.718 509.099C319.718 509.099 333.968 504.879 334.228 487.349C334.228 486.819 334.228 486.269 334.228 485.719C334.526 485.763 334.827 485.783 335.128 485.779C335.327 485.794 335.528 485.794 335.728 485.779C335.728 485.779 333.018 476.009 336.268 468.959C339.518 461.909 346.578 468.419 353.088 439.659C357.798 418.849 361.938 394.919 363.878 383.269C364.675 378.441 364.266 373.491 362.688 368.859ZM238.868 429.859L233.918 425.159C235.558 425.839 237.378 426.499 239.408 427.159L258.058 429.349C249.738 430.099 241.968 430.519 238.868 429.889V429.859Z" fill="url(#paint1_linear)"/>
<path d="M286.098 427.12C286.098 427.12 247.718 432.45 239.718 430.85L218.398 410.59C218.398 410.59 198.138 426.05 230.128 436.18L289.828 443.11L286.098 427.12Z" fill="#FDC2CC"/>
<path opacity="0.05" d="M286.098 427.12C286.098 427.12 247.718 432.45 239.718 430.85L218.398 410.59C218.398 410.59 198.138 426.05 230.128 436.18L289.828 443.11L286.098 427.12Z" fill="black"/>
<path d="M210.967 440.569L128.027 417.569L109.547 210.27H312.637L294.137 417.54L210.967 440.569Z" fill="#264DE4"/>
<path d="M278.297 404.349L294.107 227.229H211.107V422.94L278.297 404.349Z" fill="#2965F1"/>
<path d="M151.967 304.079L154.247 329.499H211.147V304.079H151.967ZM147.387 252.619L149.697 278.039H211.137V252.619H147.337H147.387ZM211.137 370.109H211.027L182.707 362.459L180.897 342.179H155.327L158.887 382.099L210.967 396.589H211.087L211.137 370.109Z" fill="#EBEBEB"/>
<path d="M157.348 153.91H188.138V166.79H170.218V179.67H188.138V192.55H157.348V153.91ZM194.348 153.91H225.138V165.11H207.178V167.35H225.098V193.11H194.298V181.35H212.218V179.11H194.298V153.91H194.348ZM231.348 153.91H262.138V165.11H244.128V167.35H262.048V193.11H231.248V181.35H249.168V179.11H231.248V153.91H231.348Z" fill="#72AC82"/>
<path d="M270.107 304.079L274.697 252.619H210.967V278.039H246.797L244.487 304.039H210.967V329.459H242.277L239.277 362.459L210.967 370.129V396.579L263.087 382.129L263.467 377.829L269.467 310.889L270.087 304.059L270.107 304.079Z" fill="white"/>
<path d="M299.968 643.539L281.308 660.059C281.308 660.059 270.648 662.729 264.788 662.189C258.928 661.649 256.258 671.249 270.118 672.319C283.978 673.389 328.218 670.189 328.218 670.189C328.218 670.189 332.478 653.129 319.688 643.539H299.968Z" fill="#47465A"/>
<path opacity="0.05" d="M299.968 643.539L281.308 660.059C281.308 660.059 270.648 662.729 264.788 662.189C258.928 661.649 256.258 671.249 270.118 672.319C283.978 673.389 328.218 670.189 328.218 670.189C328.218 670.189 332.478 653.129 319.688 643.539H299.968Z" fill="black"/>
<path opacity="0.3" d="M328.878 662.819C328.846 664.763 328.621 666.7 328.208 668.599C328.208 668.599 283.968 671.799 270.108 670.729C263.438 670.219 260.608 667.729 260.108 665.349C259.498 668.089 261.918 671.699 270.108 672.349C283.968 673.419 328.208 670.219 328.208 670.219C328.729 667.789 328.954 665.304 328.878 662.819Z" fill="white"/>
<path d="M321.808 341.35C321.808 341.35 333.538 357.87 329.268 369.07C324.998 380.27 351.658 357.34 351.658 357.34C351.658 357.34 343.128 342.35 347.398 326.35L321.808 341.35Z" fill="#FDC2CC"/>
<path d="M318.607 649.939L299.967 666.459C299.967 666.459 289.307 669.129 283.447 668.589C277.587 668.049 274.917 677.649 288.777 678.719C302.637 679.789 346.877 676.589 346.877 676.589C346.877 676.589 351.137 659.529 338.347 649.939H318.607Z" fill="#47465A"/>
<path d="M323.968 646.209C321.188 649.639 317.268 650.959 313.168 651.159C303.848 651.599 293.588 646.209 293.588 646.209C300.518 640.349 282.928 588.639 282.928 588.639C268.538 581.709 269.598 566.249 269.598 566.249L274.258 482.349L275.438 461.269L290.368 452.209L302.128 461.209L313.288 469.769C314.015 472.492 314.483 475.278 314.688 478.089C315.988 497.679 300.498 502.289 300.498 502.289C300.498 502.289 306.898 522.009 301.028 540.139C295.158 558.269 305.288 574.259 305.288 574.259C305.288 574.259 324.478 629.699 321.288 632.899C318.098 636.099 323.968 646.209 323.968 646.209Z" fill="#565171"/>
<path opacity="0.05" d="M323.968 646.209C321.188 649.639 317.268 650.959 313.168 651.159C303.848 651.599 293.588 646.209 293.588 646.209C300.518 640.349 282.928 588.639 282.928 588.639C268.538 581.709 269.598 566.249 269.598 566.249L274.258 482.349L275.438 461.269L290.368 452.209L302.128 461.209L313.288 469.769C314.015 472.492 314.483 475.278 314.688 478.089C315.988 497.679 300.498 502.289 300.498 502.289C300.498 502.289 306.898 522.009 301.028 540.139C295.158 558.269 305.288 574.259 305.288 574.259C305.288 574.259 324.478 629.699 321.288 632.899C318.098 636.099 323.968 646.209 323.968 646.209Z" fill="black"/>
<path d="M342.598 652.6C333.538 663.79 312.218 652.6 312.218 652.6C312.647 652.205 312.967 651.705 313.148 651.15C317.058 640.52 299.958 589.7 299.958 589.7C285.568 582.77 283.958 566.25 283.958 566.25L280.188 480.83L279.698 469.77L302.128 461.21L309.018 458.58L331.968 476.17C332.953 479.814 333.438 483.575 333.408 487.35C333.118 504.56 319.148 508.72 319.148 508.72C319.148 508.72 325.548 528.44 319.678 546.57C313.808 564.7 323.968 580.64 323.968 580.64C323.968 580.64 343.158 636.08 339.968 639.28C336.778 642.48 342.598 652.6 342.598 652.6Z" fill="#565171"/>
<path opacity="0.1" d="M333.407 487.349C328.797 486.689 319.467 481.139 314.677 478.129C312.847 476.979 311.677 476.209 311.677 476.209C311.677 476.209 306.877 462.879 294.087 473.009C289.927 476.388 285.228 479.045 280.187 480.869C278.262 481.551 276.276 482.049 274.257 482.359L275.437 461.279L290.367 452.219L302.127 461.219L309.017 458.589L331.967 476.169C332.953 479.813 333.437 483.574 333.407 487.349Z" fill="black"/>
<path d="M362.258 385.06C360.358 396.5 356.258 420.06 351.658 440.45C345.258 468.7 338.328 462.3 335.138 469.23C331.948 476.16 334.608 485.75 334.608 485.75C329.278 486.28 311.688 474.56 311.688 474.56C311.688 474.56 306.888 461.23 294.098 471.36C281.308 481.49 271.178 480.95 271.178 480.95C268.508 463.36 288.238 416.45 288.238 416.45C288.238 416.45 307.428 380.2 311.688 375.45C313.664 373.102 315.074 370.33 315.808 367.35C316.135 366.164 316.362 364.953 316.488 363.73C323.418 363.2 340.488 351.47 340.488 351.47L353.818 349.34V356.27C353.975 356.34 354.123 356.431 354.258 356.54C356.448 358.21 359.258 365.33 361.128 370.94C362.659 375.482 363.047 380.332 362.258 385.06Z" fill="#E1A0A7"/>
<path d="M299.967 435.12L293.077 434.32L240.267 428.19C208.267 418.06 228.537 402.6 228.537 402.6L249.857 422.86C256.007 424.09 280.137 421.22 290.947 419.86C294.187 419.44 296.237 419.16 296.237 419.16L299.967 435.12Z" fill="#FDC2CC"/>
<path opacity="0.1" d="M351.657 363.159C351.657 363.159 337.797 351.969 316.967 388.209C296.137 424.449 291.377 418.589 291.377 418.589C291.377 418.589 295.637 434.589 293.507 437.779C293.507 437.779 307.897 436.709 313.227 437.779C318.557 438.849 351.607 397.269 351.607 397.269C351.607 397.269 368.717 373.819 351.657 363.159Z" fill="black"/>
<path opacity="0.1" d="M351.128 361.029C351.128 361.029 337.268 349.839 316.478 386.079C295.688 422.319 290.888 416.459 290.888 416.459C290.888 416.459 307.408 434.579 312.738 435.649C318.068 436.719 351.118 395.139 351.118 395.139C351.118 395.139 368.188 371.689 351.128 361.029Z" fill="black"/>
<path opacity="0.1" d="M293.068 434.35C293.288 430.4 291.798 423.46 290.938 419.86C294.178 419.44 296.228 419.16 296.228 419.16L299.957 435.16L293.068 434.35Z" fill="black"/>
<path d="M351.657 362.089C351.657 362.089 337.797 350.899 316.967 387.149C296.137 423.399 291.377 417.529 291.377 417.529C291.377 417.529 295.637 433.529 293.507 436.719C293.507 436.719 307.897 435.649 313.227 436.719C318.557 437.789 351.607 396.209 351.607 396.209C351.607 396.209 368.717 372.749 351.657 362.089Z" fill="#E1A0A7"/>
<path opacity="0.1" d="M347.967 327.439L322.337 342.349C323.422 343.923 324.423 345.552 325.337 347.229C326.812 347.529 328.313 347.68 329.817 347.679C336.647 347.679 339.817 340.509 343.947 335.679C343.647 331.839 346.787 331.739 347.967 327.439Z" fill="black"/>
<path d="M329.267 346.639C341.633 346.639 351.657 336.615 351.657 324.249C351.657 311.884 341.633 301.859 329.267 301.859C316.902 301.859 306.877 311.884 306.877 324.249C306.877 336.615 316.902 346.639 329.267 346.639Z" fill="#FDC2CC"/>
<path opacity="0.1" d="M300.967 306.139C303.226 303.824 306.159 302.283 309.347 301.739C312.457 301.069 315.867 300.869 318.347 298.879C321.157 296.629 322.417 292.349 325.887 291.389C327.395 291.088 328.957 291.212 330.397 291.749C335.933 293.422 340.847 296.701 344.517 301.169C345.386 302.451 346.493 303.555 347.777 304.419C348.543 304.743 349.29 305.107 350.017 305.509C350.814 306.142 351.439 306.963 351.837 307.899C354.336 312.946 354.912 318.729 353.457 324.169C352.587 327.379 351.027 330.359 350.097 333.559C349.167 336.759 348.937 340.379 350.627 343.239C348.987 344.079 346.917 343.019 345.887 341.489C344.857 339.959 344.547 338.079 344.007 336.309C342.945 332.835 340.945 329.72 338.227 327.309C336.547 325.829 333.547 324.829 332.377 326.739C331.927 327.479 331.957 328.429 331.567 329.199C330.807 330.709 328.567 331.009 327.137 330.199C325.729 329.227 324.74 327.759 324.367 326.089C322.177 318.659 318.427 313.989 310.487 317.159C307.487 318.339 304.037 319.159 301.187 317.159C297.537 314.479 298.267 309.169 300.967 306.139Z" fill="black"/>
<path d="M300.967 305.6C303.226 303.285 306.159 301.744 309.347 301.2C312.457 300.53 315.867 300.33 318.347 298.34C321.157 296.09 322.417 291.81 325.887 290.85C327.395 290.549 328.957 290.673 330.397 291.21C335.933 292.883 340.847 296.162 344.517 300.63C345.386 301.912 346.493 303.016 347.777 303.88C348.543 304.204 349.29 304.568 350.017 304.97C350.814 305.603 351.439 306.424 351.837 307.36C354.336 312.407 354.912 318.19 353.457 323.63C352.587 326.84 351.027 329.82 350.097 333.02C349.167 336.22 348.937 339.84 350.627 342.7C348.987 343.54 346.917 342.48 345.887 340.95C344.857 339.42 344.547 337.54 344.007 335.77C342.945 332.296 340.945 329.181 338.227 326.77C336.547 325.29 333.547 324.29 332.377 326.2C331.927 326.94 331.957 327.89 331.567 328.66C330.807 330.17 328.567 330.47 327.137 329.66C325.729 328.688 324.74 327.22 324.367 325.55C322.177 318.12 318.427 313.45 310.487 316.62C307.487 317.8 304.037 318.62 301.187 316.62C297.537 313.95 298.267 308.64 300.967 305.6Z" fill="#8F5A6A"/>
<path opacity="0.05" d="M354.227 356.5H343.397C343.397 356.5 322.077 367.16 321.547 366.63C321.187 366.27 317.887 366.89 315.797 367.32C316.125 366.134 316.352 364.923 316.477 363.7C323.407 363.17 340.477 351.44 340.477 351.44L353.807 349.31V356.24C353.958 356.309 354.099 356.396 354.227 356.5Z" fill="black"/>
<path opacity="0.3" d="M347.527 669.209C347.496 671.153 347.271 673.089 346.857 674.989C346.857 674.989 302.617 678.189 288.757 677.119C282.087 676.609 279.257 674.119 278.757 671.739C278.147 674.479 280.567 678.089 288.757 678.739C302.617 679.809 346.857 676.609 346.857 676.609C347.379 674.178 347.604 671.694 347.527 669.209Z" fill="white"/>
<g opacity="0.05">
<path opacity="0.05" d="M289.027 470.829C281.837 476.529 275.477 478.829 271.297 479.829C271.297 480.229 271.377 480.619 271.437 480.999C271.437 480.999 281.567 481.529 294.357 471.409C296.339 469.711 298.682 468.486 301.207 467.829C298.417 466.459 294.437 466.549 289.027 470.829Z" fill="black"/>
<path opacity="0.05" d="M361.367 370.889C359.457 365.279 356.687 358.169 354.497 356.489C354.363 356.38 354.215 356.289 354.057 356.219C354.057 356.219 349.647 356.369 349.797 356.489C351.987 358.159 354.127 364.749 356.037 370.349C357.585 374.901 357.984 379.765 357.197 384.509C355.297 395.949 351.197 419.509 346.597 439.899C340.197 468.149 333.267 461.749 330.077 468.679C327.457 474.359 328.767 481.819 329.337 484.329C331.061 485.191 332.951 485.672 334.877 485.739C334.877 485.739 332.207 476.149 335.407 469.219C338.607 462.289 345.537 468.689 351.927 440.439C356.557 419.999 360.627 396.439 362.527 385.049C363.314 380.305 362.915 375.441 361.367 370.889Z" fill="black"/>
</g>
<path d="M352.425 686.719C354.755 684.549 356.945 681.989 357.625 678.879C358.305 675.769 356.975 672.029 353.995 670.879C350.665 669.599 347.095 671.879 344.395 674.249C341.695 676.619 338.595 679.249 335.065 678.749C336.883 677.1 338.243 675.008 339.013 672.677C339.782 670.347 339.935 667.856 339.455 665.449C339.3 664.455 338.879 663.522 338.235 662.749C336.385 660.749 333.025 661.619 330.815 663.179C323.815 668.179 321.815 677.709 321.765 686.329C321.055 683.219 321.655 679.979 321.635 676.789C321.615 673.599 320.745 670.069 318.055 668.349C316.38 667.448 314.496 667.007 312.595 667.069C309.425 666.949 305.895 667.269 303.735 669.589C301.045 672.469 301.735 677.299 304.085 680.469C306.435 683.639 309.985 685.629 313.255 687.819C315.881 689.384 318.119 691.52 319.805 694.069C320.005 694.425 320.169 694.8 320.295 695.189H340.165C344.615 692.931 348.739 690.082 352.425 686.719Z" fill="#2A9D8F"/>
<path d="M606.691 457.241C598.824 457.303 592.012 459.981 586.298 463.967C584.189 458.051 582.079 452.881 581.728 449.02C581.333 444.536 580.849 441.795 581.333 436.44C581.816 431.083 584.013 423.485 584.013 422.862C583.969 422.301 583.529 419.561 579.003 419.499C574.477 419.436 570.565 420.744 570.125 422.426C569.686 424.107 568.807 427.969 568.235 431.955C567.444 437.809 559.182 458.548 554.479 469.447C552.941 465.212 551.623 461.476 551.358 458.486C550.963 454.002 550.479 451.261 550.963 445.905C551.447 440.549 553.644 432.951 553.644 432.328C553.6 431.768 553.161 429.028 548.634 428.965C544.107 428.903 540.196 430.211 539.757 431.892C539.317 433.574 538.834 437.56 537.867 441.421C536.943 445.283 525.956 479.911 523.1 488.941C521.649 493.55 520.375 497.224 519.452 499.716C518.529 502.207 519.408 499.903 519.32 500.152C518.529 502.269 518.089 503.453 518.089 503.453V503.515C517.474 505.072 516.815 506.567 516.507 506.567C516.287 506.567 515.847 502.394 516.595 496.665C518.221 484.644 522.176 465.898 522.133 465.213C522.133 464.902 522.879 461.6 519.583 459.919C516.375 458.238 515.233 461.04 514.968 461.04C514.705 461.04 514.485 462.037 514.485 462.037C514.485 462.037 518.045 440.924 507.673 440.924C501.168 440.924 492.203 450.951 487.764 460.107C484.951 462.286 478.974 466.895 472.645 471.815C470.228 473.684 467.723 475.677 465.35 477.483L464.867 476.734C452.297 457.739 429.048 444.286 430.015 418.751C430.367 409.472 432.652 384.995 474.668 355.35C509.08 331.061 536.636 337.725 541.426 352.547C548.238 373.723 526.703 413.084 490.929 418.751C477.305 420.931 470.141 413.457 468.339 410.655C466.449 407.728 466.186 407.603 465.483 408.164C464.34 409.036 465.043 411.651 465.483 413.208C466.537 417.132 470.932 424.107 478.404 427.595C484.952 430.647 500.95 432.328 520.287 421.741C541.954 409.845 558.875 376.837 553.908 349.246C548.854 321.158 515.98 311.941 484.908 327.573C466.405 336.915 446.364 351.489 431.949 370.609C414.809 393.279 412.084 413.084 413.227 421.305C417.226 450.639 445.749 469.759 457.176 483.896C456.604 484.332 456.077 484.768 455.594 485.142C449.88 489.127 428.125 505.259 422.676 522.323C416.523 541.63 423.643 555.519 428.389 557.387C443.068 563.179 458.099 552.779 466.229 535.651C474.316 518.524 473.349 496.29 469.613 486.139L469.481 485.765L473.964 482.028C476.865 479.599 479.722 477.357 482.226 475.426C480.82 480.844 479.809 487.259 479.282 496.601C478.667 507.563 481.831 521.762 486.006 527.368C487.852 529.796 490.05 529.859 491.412 529.859C496.247 529.859 498.444 524.191 500.861 517.403C503.85 509.119 506.487 499.528 506.487 499.528C506.487 499.528 503.191 525.499 512.2 525.499C515.496 525.499 518.792 519.458 520.287 516.344V516.406C520.287 516.406 520.375 516.219 520.55 515.783C520.735 515.397 520.911 515.003 521.078 514.601V514.476C522.396 511.238 525.341 503.826 529.736 491.557C535.405 475.738 540.855 455.933 540.855 455.933C540.855 455.933 541.382 460.791 543.008 468.762C543.975 473.496 546.084 478.665 547.711 483.71C546.392 486.325 545.601 487.821 545.601 487.821L545.645 487.883C544.591 489.876 543.404 491.994 542.173 494.111C537.691 501.709 532.329 510.367 531.626 512.858C530.791 515.785 530.966 517.964 532.593 519.709C533.779 520.955 535.889 521.203 538.13 520.955C542.173 520.58 544.986 519.148 546.393 518.276C548.59 517.155 551.095 515.473 553.512 512.982C557.907 508.374 560.588 501.834 560.324 493.115C560.193 488.32 559.094 483.586 557.731 479.102C558.127 478.293 558.523 477.482 558.918 476.611C565.862 462.224 571.224 446.405 571.224 446.405C571.224 446.405 571.751 451.263 573.377 459.235C574.212 463.283 575.882 467.705 577.377 472.065C570.872 479.601 566.785 488.32 565.379 494.05C562.786 504.638 564.807 509.433 568.631 510.554C570.344 511.053 572.806 509.932 574.651 508.811C576.937 507.752 579.706 505.945 582.255 503.268C586.65 498.659 590.869 492.244 590.649 483.587C590.518 479.601 589.77 475.677 588.76 471.941C594.297 468.702 601.46 466.834 610.558 468.391C630.116 471.629 633.983 488.943 633.237 496.168C632.489 503.393 628.402 507.378 627.039 508.624C625.677 509.807 625.237 510.244 625.369 511.115C625.545 512.423 626.16 512.36 627.347 512.112C628.973 511.738 637.631 506.195 637.983 492.868C638.51 475.738 627.039 457.054 606.691 457.241V457.241ZM455.857 529.299C449.397 539.326 440.299 543.125 436.432 539.886C432.257 536.461 433.882 521.701 441.838 511.051C446.672 504.574 452.957 498.595 457.088 494.92C458.011 494.11 459.417 492.928 461.087 491.495C461.351 491.246 461.527 491.121 461.527 491.121C461.834 490.872 462.186 490.561 462.538 490.249C465.482 505.445 462.669 518.773 455.857 529.299V529.299ZM503.103 483.772C500.861 491.557 496.115 511.549 493.258 510.428C490.796 509.494 489.303 494.36 492.774 479.412C494.532 471.876 498.268 462.908 500.465 459.42C504.026 453.814 507.893 451.946 508.86 454.25C510.003 457.241 504.509 478.914 503.103 483.772ZM542.086 510.179C541.119 510.865 540.24 511.362 539.844 510.989C539.536 510.74 540.239 509.806 540.239 509.806C540.239 509.806 545.118 502.394 547.051 498.969C548.15 496.977 549.469 494.672 550.875 492.056V492.803C550.875 501.771 544.81 507.75 542.086 510.179ZM572.146 500.463C571.443 499.716 571.531 497.411 573.904 490.187C574.828 487.322 576.937 482.526 580.585 477.98C581.024 479.848 581.288 481.654 581.244 483.336C581.2 494.546 575.575 498.719 572.146 500.463Z" fill="#CF649A"/>
<defs>
<linearGradient id="paint0_linear" x1="799.84" y1="616.69" x2="799.84" y2="278.14" gradientUnits="userSpaceOnUse">
<stop stop-color="#808080" stop-opacity="0.25"/>
<stop offset="0.54" stop-color="#808080" stop-opacity="0.12"/>
<stop offset="1" stop-color="#808080" stop-opacity="0.1"/>
</linearGradient>
<linearGradient id="paint1_linear" x1="58043.9" y1="306938" x2="58043.9" y2="150976" gradientUnits="userSpaceOnUse">
<stop stop-color="#808080" stop-opacity="0.25"/>
<stop offset="0.54" stop-color="#808080" stop-opacity="0.12"/>
<stop offset="1" stop-color="#808080" stop-opacity="0.1"/>
</linearGradient>
</defs>
</svg>
