<svg width="925" height="689" viewBox="0 0 925 689" fill="none" xmlns="http://www.w3.org/2000/svg">
<path opacity="0.1" d="M712.66 626.21C829.391 626.21 924.02 607.818 924.02 585.13C924.02 562.442 829.391 544.05 712.66 544.05C595.929 544.05 501.3 562.442 501.3 585.13C501.3 607.818 595.929 626.21 712.66 626.21Z" fill="#2A9D8F"/>
<g opacity="0.5">
<path opacity="0.5" d="M531.62 103.47C528.77 104.28 525.28 106.39 523.56 112.16C520.19 123.47 528.02 131.16 525.44 142.95C524.724 146.077 523.361 149.02 521.44 151.59C518.29 155.86 514.87 157.88 511.55 160.87C507.339 164.689 504.321 169.645 502.86 175.14C501.259 181.204 501.125 187.563 502.47 193.69C503.65 198.81 505.66 202.54 507.42 206.69C509.608 211.983 511.319 217.461 512.53 223.06C513.195 225.786 513.571 228.575 513.65 231.38C513.6 235.106 513.266 238.824 512.65 242.5L507.86 275.92C507.133 280.289 506.695 284.702 506.55 289.13C506.613 293.567 507.125 297.986 508.08 302.32C509.76 311.16 511.57 320.32 515.42 325C519.27 329.68 525.83 328 529.86 318.53C533.69 309.47 533.78 297.38 537.16 287.7C542.49 272.45 553.08 270.4 558.96 255.85C564.6 241.85 562.87 224.77 565.73 208.85C567.73 197.44 572.14 187.04 574.73 175.77C578.45 159.54 578.08 142.69 575.11 130.21C572.851 119.955 567.965 110.465 560.93 102.67C558.44 99.9196 555.77 97.4696 552.64 97.2196C549.31 96.9596 546.4 101.15 543.11 102.41C539.31 103.9 535.49 102.37 531.62 103.47Z" fill="#2A9D8F"/>
<path opacity="0.5" d="M549.65 98.0696C549.65 98.0696 544.01 242.41 520.29 327.52" stroke="#535461" stroke-width="2" stroke-miterlimit="10"/>
<path opacity="0.5" d="M523.42 112.84C523.42 112.84 548.77 135.92 543.96 179.84" stroke="#535461" stroke-width="2" stroke-miterlimit="10"/>
<path opacity="0.5" d="M502.15 178.52C502.15 178.52 543.76 186.89 540.67 211.78" stroke="#535461" stroke-width="2" stroke-miterlimit="10"/>
<path opacity="0.5" d="M575.18 129.91C575.18 129.91 558.34 144.65 543.34 186.4" stroke="#535461" stroke-width="2" stroke-miterlimit="10"/>
<path opacity="0.5" d="M558.73 256.09C558.73 256.09 547.24 265.09 538.02 233.58" stroke="#535461" stroke-width="2" stroke-miterlimit="10"/>
<path opacity="0.5" d="M509.15 274.5C509.15 274.5 532.58 271.44 534.74 256.77" stroke="#535461" stroke-width="2" stroke-miterlimit="10"/>
</g>
<path d="M588.26 6.65983C582.46 7.51983 575.48 10.2098 572.61 18.4998C566.98 34.7598 584.09 47.0698 580.15 64.0598C578.975 68.7354 576.499 72.9826 573.01 76.3098C567.01 82.2198 560.15 84.7998 553.65 88.8098C547.15 92.8198 540.4 99.1298 537.35 108.81C534.42 118.12 535.69 128.4 538.74 136.08C541.79 143.76 546.4 149.49 550.52 155.81C555.527 163.589 559.713 171.867 563.01 180.51C564.673 184.449 565.79 188.598 566.33 192.84C566.86 198.04 566.19 203.63 565.52 209.1L559.57 257.84C558.78 264.32 557.98 270.9 558.43 277.14C558.94 284.33 561.07 290.61 563.17 296.74C567.69 309.96 572.53 323.74 581.06 331.02C589.59 338.3 602.97 336.74 610.18 323.2C617.04 310.31 615.78 292.52 621.63 278.67C630.85 256.84 652.53 255.07 662.96 234.35C672.96 214.47 667.37 189.04 671.39 165.94C674.27 149.39 682.07 134.59 686.07 118.3C691.84 94.8298 689.07 69.9798 681.45 51.2998C673.83 32.6198 661.78 19.2998 648.85 9.06983C643.37 4.71983 637.56 0.789835 631.05 0.0698348C624.13 -0.700165 618.6 5.11983 611.95 6.58983C604.21 8.19983 596.13 5.48983 588.26 6.65983Z" fill="#2A9D8F"/>
<path d="M624.94 0.839844C624.94 0.839844 630.4 212.73 591.38 335.26" stroke="#535461" stroke-width="2" stroke-miterlimit="10"/>
<path d="M572.39 19.5195C572.39 19.5195 627.59 56.5195 622.86 120.68" stroke="#535461" stroke-width="2" stroke-miterlimit="10"/>
<path d="M536.16 113.69C536.16 113.69 623.28 130.95 619.84 167.23" stroke="#535461" stroke-width="2" stroke-miterlimit="10"/>
<path d="M681.55 50.7598C681.55 50.7598 648.44 70.4698 622.36 130.17" stroke="#535461" stroke-width="2" stroke-miterlimit="10"/>
<path d="M662.44 234.63C662.44 234.63 639.74 246.63 616.91 199.02" stroke="#535461" stroke-width="2" stroke-miterlimit="10"/>
<path d="M562.01 255.84C562.01 255.84 610.14 254.11 612.88 232.76" stroke="#535461" stroke-width="2" stroke-miterlimit="10"/>
<path d="M63.0523 550.009C63.0523 550.009 71.4323 561.009 59.1823 577.509C46.9323 594.009 36.8123 608.029 40.9223 618.349C40.9223 618.349 59.4023 587.619 74.4423 587.189C89.4823 586.759 79.6023 568.489 63.0523 550.009Z" fill="#2A9D8F"/>
<path opacity="0.1" d="M63.0525 550.009C63.8002 551.066 64.3929 552.225 64.8125 553.449C79.4925 570.689 87.3025 586.779 73.2025 587.189C60.0625 587.569 44.3025 611.059 40.5225 616.999C40.6472 617.457 40.7974 617.908 40.9725 618.349C40.9725 618.349 59.4524 587.619 74.4924 587.189C89.5324 586.759 79.6025 568.489 63.0525 550.009Z" fill="black"/>
<path d="M78.6323 563.979C78.6323 567.839 78.2023 570.979 77.6323 570.979C77.0623 570.979 76.6323 567.849 76.6323 563.979C76.6323 560.109 77.1723 561.979 77.7023 561.979C78.2323 561.979 78.6323 560.119 78.6323 563.979Z" fill="#FFD037"/>
<path d="M83.9825 568.58C80.5925 570.43 77.6425 571.58 77.3925 571.07C77.1425 570.56 79.6725 568.72 83.0625 566.88C86.4525 565.04 85.1125 566.38 85.3725 566.88C85.6325 567.38 87.3625 566.73 83.9825 568.58Z" fill="#FFD037"/>
<path d="M18.8122 550.009C18.8122 550.009 10.4322 561.009 22.6822 577.509C34.9322 594.009 45.0322 608.019 40.9422 618.339C40.9422 618.339 22.4622 587.609 7.4222 587.179C-7.6178 586.749 2.2422 568.489 18.8122 550.009Z" fill="#2A9D8F"/>
<path opacity="0.1" d="M18.8122 550.009C18.082 551.069 17.5062 552.227 17.1022 553.449C2.4222 570.689 -5.3878 586.779 8.7122 587.189C21.8522 587.569 37.6122 611.059 41.3922 616.999C41.2675 617.457 41.1172 617.908 40.9422 618.349C40.9422 618.349 22.4622 587.619 7.4222 587.189C-7.6178 586.759 2.2422 568.489 18.8122 550.009Z" fill="black"/>
<path d="M5.88232 616.909C5.88232 616.909 29.3123 616.189 36.3723 611.159C43.4323 606.129 72.3723 600.159 74.1623 608.159C75.9523 616.159 109.372 648.269 82.9223 648.479C56.4723 648.689 21.4623 644.359 14.4123 640.069C7.36232 635.779 5.88232 616.909 5.88232 616.909Z" fill="#A8A8A8"/>
<path opacity="0.2" d="M83.3923 645.699C56.9423 645.909 21.9323 641.579 14.8823 637.289C9.51232 634.019 7.37232 622.289 6.66232 616.879H5.88232C5.88232 616.879 7.36232 635.779 14.4123 640.069C21.4623 644.359 56.4723 648.699 82.9223 648.479C90.5623 648.419 93.1923 645.699 93.0523 641.679C91.9923 644.139 89.0823 645.659 83.3923 645.699Z" fill="black"/>
<path d="M880.36 573.95C882.193 572.456 883.528 570.44 884.19 568.17C884.69 565.87 883.71 563.12 881.51 562.28C879.05 561.34 876.42 563.04 874.43 564.77C872.44 566.5 870.15 568.46 867.54 568.09C868.881 566.874 869.885 565.331 870.453 563.612C871.021 561.893 871.133 560.056 870.78 558.28C870.667 557.544 870.356 556.852 869.88 556.28C868.51 554.82 866.04 555.45 864.4 556.6C859.2 560.26 857.75 567.32 857.72 573.68C857.2 571.39 857.64 569 857.62 566.68C857.6 564.36 856.96 561.68 854.98 560.46C853.752 559.8 852.373 559.473 850.98 559.51C848.64 559.42 846.04 559.66 844.44 561.37C842.44 563.49 842.97 567.06 844.7 569.37C846.43 571.68 849.05 573.17 851.47 574.79C853.409 575.943 855.064 577.519 856.31 579.4C856.457 579.661 856.577 579.935 856.67 580.22H871.32C874.602 578.547 877.643 576.438 880.36 573.95Z" fill="#2A9D8F"/>
<path opacity="0.1" d="M219.463 688.72C336.193 688.72 430.823 670.327 430.823 647.64C430.823 624.952 336.193 606.56 219.463 606.56C102.732 606.56 8.10254 624.952 8.10254 647.64C8.10254 670.327 102.732 688.72 219.463 688.72Z" fill="#2A9D8F"/>
<path d="M322.892 395.089L316.192 396.299L320.452 404.529L325.022 406.959L329.282 409.999L330.502 406.659L327.452 400.259L322.892 395.089Z" fill="#FDC2CC"/>
<path d="M318.023 395.7H314.373V400.88L318.023 409.1C318.023 409.1 322.893 410.01 323.203 410.01C323.513 410.01 327.463 409.1 327.463 409.1L328.683 406.97C328.683 406.97 315.283 401.78 318.023 395.7Z" fill="#E6E6F0"/>
<path d="M315.282 394.479L313.422 395.999L305.242 402.699L324.112 427.699C324.112 427.699 334.762 432.269 339.642 427.699C339.642 427.699 342.642 424.699 335.992 422.219C335.992 422.219 330.812 423.129 330.812 417.959C330.812 412.789 332.032 407.309 333.812 406.089C333.812 406.089 329.242 404.569 328.032 405.789C327.101 406.815 326.283 407.939 325.592 409.139C325.592 409.139 314.672 404.829 315.282 394.479Z" fill="#B45181"/>
<path d="M776.62 600.12C776.62 600.12 766.35 600.84 760.01 589.84C758.771 587.625 757.306 585.544 755.64 583.63C753.593 580.274 752.53 576.41 752.57 572.48C752.92 564.33 744.42 519.69 744.42 519.69C744.42 519.69 745.48 502.69 736.98 492.06C731.38 485.06 723.33 465.06 718.48 452.14C718.805 452.43 719.197 452.636 719.62 452.74L719.42 451.63H719.62L717.11 437.84C713.456 433.639 710.375 428.971 707.95 423.96L708.52 423.84L716.04 422.26C716.04 422.26 728.26 404.89 729.04 396.35H730.04H731.45C742.761 396.288 754.067 396.879 765.31 398.12C765.31 398.07 765.23 397.85 765.13 397.5C764.654 395.781 764.287 394.034 764.03 392.27H764.73L771.73 391.81C771.73 391.81 795.82 364.89 786.96 359.93C778.1 354.97 768.89 382.25 768.89 382.25L765.89 382.79L765.08 382.94C765.16 382.82 765.24 382.71 765.33 382.6C765.42 382.49 726.01 380.84 719.94 371.26C719.94 371.26 702.58 357.44 701.87 348.26C701.742 346.355 701.092 344.523 699.992 342.963C698.891 341.404 697.382 340.178 695.63 339.42C693.485 338.396 691.11 337.951 688.74 338.13L680.61 338.69L681.18 339.69H680.95C680.44 338.521 680.012 337.318 679.67 336.09H679.84C679.78 335.84 679.73 335.59 679.68 335.34C682.171 334.752 684.52 333.67 686.586 332.159C688.652 330.647 690.393 328.736 691.707 326.539C693.021 324.342 693.88 321.904 694.235 319.369C694.589 316.833 694.431 314.253 693.77 311.78C694.565 311.882 695.372 311.858 696.16 311.71C699.16 311.1 701.27 308.06 701.35 305.02C701.35 304.82 701.35 304.62 701.35 304.43C701.35 304.43 701.35 304.35 701.35 304.31C701.32 302.782 700.95 301.28 700.267 299.914C699.583 298.547 698.604 297.35 697.4 296.41C695.78 295.06 693.84 294.1 692.4 292.6C690.65 290.81 689.69 288.41 688.33 286.3C686.052 282.809 682.673 280.18 678.73 278.83C675.8 277.83 672.2 277.73 669.95 279.83C668.79 280.92 668.12 282.5 666.82 283.42C664.95 284.76 662.41 284.36 660.12 284.63C658.046 284.949 656.083 285.773 654.404 287.031C652.724 288.288 651.38 289.94 650.49 291.84C649.367 294.219 648.826 296.83 648.91 299.46C648.885 301.263 649.1 303.063 649.55 304.81C649.99 306.55 650.64 308.23 651.12 309.97C652.12 313.57 652.35 317.36 653.5 320.91C654.273 323.544 655.815 325.888 657.93 327.64L657.59 329.1C657.37 329.1 651.85 330.33 648.04 338.66C645.04 345.23 634.83 352.01 630.34 354.75C629.503 355.262 628.776 355.936 628.202 356.733C627.629 357.53 627.22 358.433 627 359.39C626.569 361.322 626.377 363.3 626.43 365.28C626.35 369.55 627.24 375.46 630.67 382.95C638.46 399.95 644.13 407.39 644.13 407.39C644.13 407.39 644.56 412.6 644.59 418.09C644.59 422.18 644.29 426.25 643.42 428.29C642.68 430.01 642.42 434.4 642.48 439.42C642.48 449.04 643.42 461.59 643.42 461.59C643.42 461.59 646.13 462.11 650.32 462.72L652.93 508.64C653.258 514.201 651.472 519.68 647.93 523.98C646.099 526.241 643.985 528.258 641.64 529.98C634.2 535.29 618.26 591.27 618.26 591.27C618.26 591.27 619.04 591.27 620.32 591.42L615.42 605.09C615.42 605.09 635 620.09 646.91 615.99C648.2 615.569 649.554 615.38 650.91 615.43C653.26 615.43 658.29 613.57 655.49 611.12C650.083 606.14 644.984 600.837 640.22 595.24C640.603 595.427 640.971 595.644 641.32 595.89V595.78L641.49 595.89C641.49 595.89 641.49 595.34 641.62 594.44L641.45 594.38C641.81 590.7 642.95 581.38 645.21 580.3C648.04 578.88 668.95 537.43 668.95 537.43L689.85 483.58C689.85 483.58 706.5 512.28 720.67 517.23V529.23C720.67 529.23 728.46 564.66 731.3 568.55C734.14 572.44 731.3 588.03 731.3 588.03C731.86 588.671 732.502 589.236 733.21 589.71L730.94 602.55C730.94 602.55 747.24 601.84 774.87 610.34C774.85 610.39 785.48 605.79 776.62 600.12ZM711.44 414.84L707.99 415.7L707.31 415.87C707.24 415.44 707.19 415.19 707.19 415.19C706.398 415.547 705.547 415.754 704.68 415.8C703.457 411.926 702.751 407.908 702.58 403.85C701.419 398.992 700.713 394.038 700.47 389.05C700.47 386.47 700.9 384.22 701.87 382.95L703.02 383.04L703.82 383.8L703.88 383.85L704.29 384.22L704.72 384.6L704.79 384.66L705.25 385.07L705.33 385.14L705.8 385.54L706.33 385.98L706.45 386.08L707.01 386.53L707.56 386.97L707.69 387.07L708.3 387.53L708.43 387.62L709.01 388.05L709.11 388.12L709.77 388.59L709.93 388.7L710.63 389.18H710.69L711.37 389.63L711.53 389.74L712.26 390.21L712.42 390.31L713.1 390.73L713.23 390.81L714.01 391.27L714.2 391.38L715.01 391.83H715.07L715.86 392.25L716.05 392.35L716.89 392.77L717.06 392.85L717.84 393.21L717.99 393.28L718.87 393.66L719.08 393.75L719.99 394.12C714.34 400.34 711.44 414.84 711.44 414.84Z" fill="url(#paint0_linear)"/>
<path d="M624.06 583L617.49 601.33C617.49 601.33 635.49 615.13 647.19 612.27C648.953 611.831 650.749 611.54 652.56 611.4C654.98 611.22 659.15 609.45 656.56 607.21C648.26 599.95 637.19 586.46 637.19 586.46L624.06 583Z" fill="#4F4D59"/>
<path d="M733.35 581.269L730.24 598.909C730.24 598.909 746.15 598.219 773.13 606.519C773.13 606.519 783.51 602.019 774.86 596.519C774.86 596.519 764.86 597.209 758.61 586.519C752.36 575.829 748.61 577.179 748.61 577.179L733.35 581.269Z" fill="#4F4D59"/>
<path d="M651.01 453.31L654.01 506.99C654.338 512.71 652.443 518.335 648.72 522.69C647.037 524.689 645.12 526.479 643.01 528.02C635.75 533.21 620.18 587.85 620.18 587.85C620.18 587.85 637.82 588.85 642.66 592.35C642.66 592.35 643.66 578.52 646.46 577.13C649.26 575.74 669.63 535.28 669.63 535.28L690.04 482.71C690.04 482.71 706.29 510.71 720.13 515.57V527.33C720.13 527.33 727.74 561.92 730.51 565.72C733.28 569.52 730.51 584.72 730.51 584.72C730.51 584.72 738.51 594.72 756.79 584.03C756.79 584.03 750.91 577.46 751.26 569.5C751.61 561.54 743.26 517.97 743.26 517.97C743.26 517.97 744.26 501.37 736 490.97C727.74 480.57 714.01 440.84 714.01 440.84L704.49 420.36L651.01 453.31Z" fill="#C48C96"/>
<g opacity="0.1">
<path opacity="0.1" d="M623.54 587.84C623.54 587.84 639.1 533.2 646.37 528.01C648.6 526.375 650.616 524.467 652.37 522.33C655.919 518.034 657.706 512.552 657.37 506.99L654.32 453.3L705.32 421.86L704.63 420.37L651.21 453.31L654.26 507C654.596 512.562 652.809 518.044 649.26 522.34C647.506 524.477 645.49 526.385 643.26 528.02C636.01 533.2 620.43 587.84 620.43 587.84C620.43 587.84 638.07 588.84 642.91 592.34C642.91 592.34 642.91 591.8 643.04 590.93C636.23 588.59 623.54 587.84 623.54 587.84Z" fill="black"/>
<path opacity="0.1" d="M733.87 584.73C733.87 584.73 736.64 569.51 733.87 565.73C731.1 561.95 723.49 527.34 723.49 527.34V515.56C709.66 510.72 693.4 482.7 693.4 482.7L692.2 485.84C696.89 493.28 709.4 511.74 720.39 515.58V527.34C720.39 527.34 728 561.93 730.77 565.73C733.54 569.53 730.77 584.73 730.77 584.73C730.77 584.73 734.63 589.59 743.15 588.93C736.78 588.4 733.87 584.73 733.87 584.73Z" fill="black"/>
</g>
<path d="M770.01 393.13L763.22 393.58L759.64 393.82V385.17L764.34 384.32L767.25 383.79C767.25 383.79 776.25 357.16 784.89 362C793.53 366.84 770.01 393.13 770.01 393.13Z" fill="#714B4F"/>
<path d="M661.07 321.84C661.07 321.84 656.57 339.13 655.19 349.84C653.81 360.55 687.35 351.92 687.35 351.92C687.35 351.92 674.55 336.36 681.82 328.06L661.07 321.84Z" fill="#714B4F"/>
<path d="M697.38 393.84L698.07 400.41L687.35 399.72L676.63 390.38L665.91 360.28L659.01 349.55L653.82 342.98L655.9 334.98C655.9 334.98 656.85 335.81 658.45 337.03C663.72 341.03 676.07 349.44 685.1 347.12C685.518 347.015 685.928 346.884 686.33 346.73L699.82 369.9L697.38 393.84Z" fill="#E6E6F0"/>
<path opacity="0.1" d="M658.65 332.95C658.65 332.95 653.12 333.95 649.31 342.29C646.39 348.67 636.51 355.29 632.1 357.96C631.259 358.474 630.529 359.151 629.954 359.951C629.378 360.751 628.969 361.659 628.75 362.62C627.86 366.56 627.52 373.91 632.36 384.48C639.97 401.08 645.5 408.34 645.5 408.34C645.5 408.34 646.88 424.94 644.81 429.78C642.74 434.62 644.81 461.25 644.81 461.25C644.81 461.25 681.12 468.17 693.23 461.25C705.34 454.33 703.61 427.7 703.61 427.7C703.61 427.7 715.02 451.91 719.17 452.6L716.75 439.11C716.75 439.11 703.26 424.58 702.57 405.91C702.57 405.91 698.42 388.96 701.88 384.47C701.88 384.47 760.33 389.31 763.79 385.16C763.79 385.16 725.4 383.43 719.52 374.09C719.52 374.09 702.57 360.6 701.88 351.61C701.78 349.922 701.25 348.288 700.342 346.862C699.434 345.436 698.177 344.265 696.69 343.46C694.338 342.122 691.638 341.519 688.94 341.73L681.13 342.27C681.13 342.27 694.62 366.13 693.93 369.27C693.24 372.41 694.62 397.63 694.62 397.63C694.62 397.63 679.01 364.08 672.14 360.28C665.27 356.48 657.26 340.84 657.26 340.84L658.64 332.94" fill="black"/>
<path opacity="0.1" d="M697.38 393.84L698.07 400.41L687.35 399.72L676.63 390.38L665.91 360.28L659.01 349.55L653.82 342.98L655.9 334.98C655.9 334.98 656.85 335.81 658.45 337.03L657.97 339.76C657.97 339.76 665.97 355.38 672.84 359.19C679.71 363 695.32 396.54 695.32 396.54C695.32 396.54 693.94 371.29 694.63 368.18C695.1 366.07 689.04 354.41 685.1 347.12C685.518 347.015 685.928 346.884 686.33 346.73L699.82 369.9L697.38 393.84Z" fill="black"/>
<path opacity="0.1" d="M763.22 393.58L759.64 393.82V385.17L764.34 384.32C762.7 386.49 762.76 390.33 763.22 393.58Z" fill="black"/>
<path d="M658.65 331.919C658.65 331.919 653.12 332.919 649.31 341.259C646.39 347.639 636.51 354.259 632.1 356.929C631.259 357.443 630.529 358.12 629.954 358.92C629.378 359.721 628.969 360.628 628.75 361.589C627.86 365.529 627.52 372.879 632.36 383.449C639.97 400.049 645.5 407.309 645.5 407.309C645.5 407.309 646.88 423.909 644.81 428.749C642.74 433.589 644.81 460.219 644.81 460.219C644.81 460.219 681.12 467.139 693.23 460.219C705.34 453.299 703.61 426.669 703.61 426.669C703.61 426.669 715.01 450.839 719.17 451.579L716.75 438.089C716.75 438.089 703.26 423.559 702.57 404.889C702.57 404.889 698.42 387.939 701.88 383.449C701.88 383.449 715.37 397.979 730.59 397.629C741.681 397.563 752.766 398.14 763.79 399.359C763.79 399.359 760.33 388.289 763.79 384.139C763.79 384.139 725.4 382.409 719.52 373.069C719.52 373.069 702.57 359.579 701.88 350.589C701.78 348.902 701.25 347.268 700.342 345.841C699.434 344.415 698.177 343.244 696.69 342.439C694.338 341.101 691.638 340.499 688.94 340.709L681.13 341.249C681.13 341.249 694.62 365.109 693.93 368.249C693.24 371.389 694.62 396.609 694.62 396.609C694.62 396.609 679.01 363.039 672.14 359.239C665.27 355.439 657.26 339.839 657.26 339.839L658.64 331.939" fill="#C48C96"/>
<path opacity="0.1" d="M651.01 368.23C651.01 368.23 659.31 396.23 664.15 399.7C668.99 403.17 698.39 420.8 707.04 416.65C707.04 416.65 709.12 427.03 706.04 429.45C706.04 429.45 673.79 428.19 673.53 428.07C673.53 428.07 652.43 425.3 648.97 414.93C645.51 404.56 641.36 386.93 641.36 386.93L651.01 368.23Z" fill="black"/>
<path d="M695.31 399.879C695.978 399.879 696.52 399.105 696.52 398.149C696.52 397.194 695.978 396.419 695.31 396.419C694.642 396.419 694.1 397.194 694.1 398.149C694.1 399.105 694.642 399.879 695.31 399.879Z" fill="#BA7855"/>
<path d="M698.76 411.98C699.428 411.98 699.97 411.205 699.97 410.25C699.97 409.294 699.428 408.52 698.76 408.52C698.092 408.52 697.55 409.294 697.55 410.25C697.55 411.205 698.092 411.98 698.76 411.98Z" fill="#BA7855"/>
<g opacity="0.1">
<path opacity="0.1" d="M647.24 459.84C647.24 459.84 645.16 433.21 647.24 428.37C649.32 423.53 647.93 406.93 647.93 406.93C647.93 406.93 642.4 399.67 634.79 383.07C629.94 372.5 630.29 365.15 631.18 361.21C631.399 360.249 631.808 359.341 632.384 358.541C632.959 357.74 633.689 357.063 634.53 356.55C638.94 353.85 648.81 347.26 651.74 340.88C653.89 336.2 656.58 333.83 658.52 332.65L658.65 331.89C658.65 331.89 653.12 332.89 649.31 341.23C646.39 347.61 636.51 354.23 632.1 356.9C631.259 357.413 630.529 358.09 629.954 358.891C629.378 359.691 628.969 360.599 628.75 361.56C627.86 365.5 627.52 372.85 632.36 383.42C639.97 400.02 645.5 407.28 645.5 407.28C645.5 407.28 646.88 423.88 644.81 428.72C642.74 433.56 644.81 460.19 644.81 460.19C644.81 460.19 670.75 465.13 686.09 462.48C670.6 464.33 647.24 459.84 647.24 459.84Z" fill="black"/>
<path opacity="0.1" d="M693.92 368.23C693.45 370.36 693.92 382.89 694.31 390.57C695.98 393.98 697.03 396.25 697.03 396.25C697.03 396.25 695.65 371 696.34 367.89C697 364.89 684.85 343.23 683.64 341.09L681.12 341.26C681.12 341.26 694.62 365.12 693.92 368.23Z" fill="black"/>
<path opacity="0.1" d="M733.01 397.28C717.79 397.63 704.3 383.1 704.3 383.1C703.896 383.663 703.601 384.297 703.43 384.97C707.43 388.69 718.43 397.9 730.59 397.62C741.681 397.553 752.766 398.13 763.79 399.35C763.79 399.35 763.72 399.12 763.61 398.73C753.445 397.679 743.229 397.195 733.01 397.28Z" fill="black"/>
<path opacity="0.1" d="M706.01 426.33C706.01 426.33 706.15 428.49 706.07 431.73C709.67 438.87 716.22 451.08 719.15 451.57L718.64 448.73C713.61 442.41 706.01 426.33 706.01 426.33Z" fill="black"/>
</g>
<path d="M715.71 422.84L708.36 424.39L702.56 425.61L705.67 416.96L707.84 416.42L711.21 415.58C711.21 415.58 716.05 391.37 725.74 393.1C735.43 394.83 715.71 422.84 715.71 422.84Z" fill="#714B4F"/>
<path opacity="0.1" d="M708.37 424.42L702.57 425.64L705.68 416.99L707.85 416.45C708.331 419.077 708.506 421.752 708.37 424.42Z" fill="black"/>
<path d="M651.01 367.54C651.01 367.54 659.31 395.54 664.15 399.01C668.99 402.48 698.39 420.11 707.04 415.96C707.04 415.96 709.12 426.34 706.04 428.76C706.04 428.76 673.79 427.5 673.53 427.38C673.53 427.38 652.43 424.61 648.97 414.24C645.51 403.87 641.36 386.24 641.36 386.24L651.01 367.54Z" fill="#C48C96"/>
<path opacity="0.1" d="M661.41 322.58C661.41 322.58 660.71 325.29 659.77 329.23C661.685 332.857 664.741 335.753 668.466 337.47C672.191 339.188 676.378 339.63 680.38 338.73C679.55 335.18 679.73 331.59 682.16 328.81L661.41 322.58Z" fill="black"/>
<path d="M675.94 338.489C686.256 338.489 694.62 330.126 694.62 319.809C694.62 309.493 686.256 301.129 675.94 301.129C665.623 301.129 657.26 309.493 657.26 319.809C657.26 330.126 665.623 338.489 675.94 338.489Z" fill="#714B4F"/>
<path opacity="0.1" d="M692.16 314.669C693.513 315.047 694.93 315.136 696.32 314.929C697.759 314.54 699.032 313.692 699.945 312.513C700.858 311.335 701.362 309.89 701.38 308.399C701.354 306.909 700.994 305.442 700.328 304.108C699.662 302.774 698.706 301.606 697.53 300.689C695.95 299.369 694.06 298.439 692.61 296.969C690.9 295.219 689.96 292.879 688.61 290.819C686.386 287.413 683.088 284.847 679.24 283.529C676.38 282.529 672.87 282.449 670.67 284.529C669.54 285.599 668.88 287.129 667.62 288.039C665.79 289.339 663.31 288.959 661.08 289.219C659.059 289.527 657.145 290.326 655.506 291.546C653.867 292.767 652.553 294.372 651.68 296.219C649.973 299.987 649.648 304.236 650.76 308.219C651.19 309.919 651.83 311.559 652.29 313.219C653.29 316.739 653.49 320.429 654.61 323.899C655.73 327.369 658.04 330.769 661.54 331.809C661.264 327.915 662.034 324.017 663.77 320.519C664.056 319.755 664.62 319.126 665.35 318.759C665.973 318.599 666.627 318.599 667.25 318.759C671.636 319.408 676.111 318.503 679.9 316.199C681.23 315.399 683.3 312.639 684.71 312.369C686.53 312.059 690.26 314.249 692.16 314.669Z" fill="black"/>
<path d="M692.16 313.98C693.513 314.357 694.93 314.446 696.32 314.24C697.759 313.85 699.032 313.002 699.945 311.823C700.858 310.645 701.362 309.2 701.38 307.71C701.354 306.219 700.994 304.753 700.328 303.418C699.662 302.084 698.706 300.916 697.53 300C695.95 298.68 694.06 297.75 692.61 296.28C690.9 294.53 689.96 292.19 688.61 290.13C686.386 286.723 683.088 284.157 679.24 282.84C676.38 281.84 672.87 281.76 670.67 283.84C669.54 284.91 668.88 286.44 667.62 287.35C665.79 288.65 663.31 288.27 661.08 288.53C659.059 288.837 657.145 289.636 655.506 290.856C653.867 292.077 652.553 293.682 651.68 295.53C649.973 299.297 649.648 303.546 650.76 307.53C651.19 309.23 651.83 310.87 652.29 312.53C653.29 316.05 653.49 319.74 654.61 323.21C655.73 326.68 658.04 330.08 661.54 331.12C661.272 327.226 662.049 323.332 663.79 319.84C664.076 319.075 664.64 318.446 665.37 318.079C665.993 317.919 666.647 317.919 667.27 318.079C671.656 318.728 676.131 317.823 679.92 315.52C681.25 314.72 683.32 311.96 684.73 311.69C686.53 311.37 690.26 313.56 692.16 313.98Z" fill="#503F43"/>
<path d="M878.51 252.33L863.27 423.03L794.77 442.03L726.46 423.03L711.24 252.33H878.51Z" fill="#E44D26"/>
<path d="M794.87 427.51L850.22 412.17L863.22 266.29H794.87V427.51Z" fill="#F16529"/>
<path d="M765.25 308.169H794.87V287.229H742.37L742.87 292.849L748.02 350.549H794.88V329.609H767.17L765.25 308.169ZM770.01 361.019H749.01L751.94 393.899L794.78 405.839H794.88V383.989H794.79L771.47 377.689L770.01 361.019Z" fill="#EBEBEB"/>
<path d="M726.81 205.93H737.45V216.44H747.18V205.93H757.82V237.77H747.18V227.11H737.45V237.77H726.81V205.93ZM771.81 216.49H762.44V205.93H791.82V216.49H782.45V237.77H771.82V216.49H771.81ZM796.49 205.93H807.59L814.42 217.12L821.24 205.93H832.34V237.77H821.74V221.99L814.42 233.31H814.24L806.91 221.99V237.77H796.49V205.93ZM837.63 205.93H848.27V227.24H863.27V237.76H837.66V205.93H837.63Z" fill="black"/>
<path d="M794.8 350.55H820.58L818.15 377.71L794.8 384.01V405.84L837.73 393.94L838.04 390.4L842.96 335.27L843.47 329.65H794.8V350.59V350.55ZM794.8 308.12V308.17H845.38L845.8 303.46L846.8 292.84L847.3 287.22H794.8V308.11V308.12Z" fill="white"/>
<path d="M362.532 349.859C360.582 344.149 357.772 336.859 355.532 335.199C355.397 335.092 355.25 335.001 355.092 334.929H354.812V327.879L349.552 328.719C348.708 326.171 348.069 323.56 347.642 320.909C348.149 321.416 348.795 321.762 349.498 321.903C350.201 322.043 350.93 321.972 351.592 321.699C351.502 321.559 351.432 321.409 351.352 321.259L351.592 321.159C350.764 319.698 350.327 318.049 350.322 316.369C350.366 314.837 350.611 313.317 351.052 311.849C351.992 308.599 353.582 305.559 354.472 302.299C355.041 300.194 355.31 298.02 355.272 295.839C355.299 292.146 354.457 288.497 352.812 285.189C352.404 284.237 351.765 283.402 350.952 282.759C350.212 282.349 349.451 281.979 348.672 281.649C347.368 280.771 346.245 279.651 345.362 278.349C341.627 273.801 336.626 270.464 330.992 268.759C329.526 268.215 327.936 268.09 326.402 268.399C322.872 269.399 321.582 273.729 318.722 276.019C316.192 278.019 312.722 278.249 309.562 278.929C306.318 279.481 303.332 281.046 301.032 283.399C299.537 285.109 298.722 287.308 298.742 289.579C298.656 290.639 298.844 291.703 299.287 292.67C299.73 293.636 300.413 294.473 301.272 295.099C302.25 295.742 303.358 296.161 304.516 296.325C305.674 296.489 306.855 296.395 307.972 296.049C307.099 299.066 306.859 302.23 307.266 305.343C307.673 308.457 308.72 311.452 310.339 314.142C311.959 316.832 314.117 319.159 316.678 320.975C319.239 322.792 322.148 324.06 325.222 324.699L325.842 325.799C327.734 329.327 329.168 333.08 330.112 336.969C325.272 339.719 319.982 342.289 316.792 342.529C316.666 343.776 316.435 345.011 316.102 346.219C315.357 349.254 313.923 352.077 311.912 354.469C307.572 359.349 288.042 396.249 288.042 396.249C288.042 396.249 287.422 397.719 286.422 400.249C274.292 401.739 254.502 403.889 248.972 402.779L227.272 382.159C227.272 382.159 220.272 387.509 220.872 394.009L216.962 390.289C216.962 390.289 196.342 406.019 228.902 416.289L278.442 422.039C273.722 436.279 269.322 452.849 270.682 461.869H271.092C272.04 461.868 272.986 461.794 273.922 461.649L273.832 463.249L269.062 548.679C269.062 548.679 267.972 564.409 282.622 571.469C282.622 571.469 300.532 624.099 293.472 630.069C293.472 630.069 294.312 630.509 295.722 631.129L280.992 644.129C280.992 644.129 270.142 646.839 264.172 646.299C263.123 646.156 262.058 646.404 261.18 646.996C260.302 647.589 259.673 648.483 259.412 649.509C259.412 649.619 259.412 649.729 259.352 649.849V649.989C259.352 650.099 259.352 650.219 259.352 650.339C259.352 650.459 259.352 650.429 259.352 650.469C259.352 650.509 259.352 650.669 259.352 650.769V650.899C259.352 651.019 259.352 651.129 259.422 651.249V651.379C259.456 651.506 259.496 651.629 259.542 651.749V651.869C259.592 651.989 259.652 652.109 259.712 652.229V652.309C259.782 652.429 259.852 652.549 259.932 652.669L260.002 652.769C260.089 652.896 260.186 653.023 260.292 653.149L260.372 653.249C260.482 653.379 260.602 653.499 260.732 653.629H260.792L261.192 653.969L261.282 654.039L261.772 654.389L261.892 654.469L262.462 654.799H262.552L263.162 655.099H263.252L263.962 655.389L264.112 655.449L264.902 655.709H265.032L265.882 655.929H265.952L266.952 656.119H267.142L268.142 656.269H268.332L269.482 656.379C271.712 656.549 274.722 656.609 278.202 656.599C278.202 656.599 278.202 656.689 278.202 656.729C278.202 656.769 278.202 656.929 278.202 657.029V657.159C278.202 657.279 278.202 657.389 278.272 657.509V657.639C278.306 657.766 278.346 657.889 278.392 658.009V658.129C278.442 658.249 278.502 658.369 278.562 658.489V658.569C278.632 658.689 278.702 658.809 278.782 658.929L278.852 659.029C278.939 659.156 279.036 659.283 279.142 659.409L279.222 659.509C279.332 659.639 279.452 659.759 279.582 659.889H279.632L280.032 660.229L280.122 660.299L280.612 660.649L280.732 660.729L281.292 661.059H281.382L281.992 661.359H282.082L282.792 661.649L282.942 661.709L283.732 661.969H283.862L284.712 662.189H284.782L285.782 662.379H285.972L286.972 662.529H287.162L288.312 662.639C302.422 663.729 347.452 660.469 347.452 660.469V660.339V660.179C347.902 658.079 350.062 645.869 342.382 636.839C342.612 636.599 342.832 636.349 343.042 636.089C343.042 636.089 337.042 625.779 340.332 622.529C343.622 619.279 324.442 563.349 324.442 563.349C324.442 563.349 314.132 547.069 320.102 528.619C326.072 510.169 319.562 490.099 319.562 490.099C319.562 490.099 333.812 485.879 334.072 468.349C334.072 467.819 334.072 467.269 334.072 466.719C334.37 466.763 334.671 466.783 334.972 466.779C335.172 466.794 335.373 466.794 335.572 466.779C335.572 466.779 332.862 457.009 336.112 449.959C339.362 442.909 346.422 449.419 352.932 420.659C357.642 399.849 361.782 375.919 363.722 364.269C364.519 359.441 364.11 354.491 362.532 349.859ZM238.712 410.859L233.762 406.159C235.402 406.839 237.222 407.499 239.252 408.159L257.902 410.349C249.582 411.099 241.812 411.519 238.712 410.889V410.859Z" fill="url(#paint1_linear)"/>
<path d="M285.942 408.119C285.942 408.119 247.562 413.449 239.562 411.849L218.242 391.589C218.242 391.589 197.982 407.049 229.972 417.179L289.672 424.109L285.942 408.119Z" fill="#FDC2CC"/>
<path opacity="0.05" d="M285.942 408.119C285.942 408.119 247.562 413.449 239.562 411.849L218.242 391.589C218.242 391.589 197.982 407.049 229.972 417.179L289.672 424.109L285.942 408.119Z" fill="black"/>
<path d="M210.812 421.569L127.872 398.569L109.392 191.27H312.482L293.982 398.54L210.812 421.569Z" fill="#264DE4"/>
<path d="M278.142 385.349L293.952 208.229H210.952V403.94L278.142 385.349Z" fill="#2965F1"/>
<path d="M151.812 285.08L154.092 310.5H210.992V285.08H151.812ZM147.232 233.62L149.542 259.04H210.982V233.62H147.182H147.232ZM210.982 351.11H210.872L182.552 343.46L180.742 323.18H155.172L158.732 363.1L210.812 377.59H210.932L210.982 351.11Z" fill="#EBEBEB"/>
<path d="M157.192 134.91H187.982V147.79H170.062V160.67H187.982V173.55H157.192V134.91ZM194.192 134.91H224.982V146.11H207.022V148.35H224.942V174.11H194.142V162.35H212.062V160.11H194.142V134.91H194.192ZM231.192 134.91H261.982V146.11H243.972V148.35H261.892V174.11H231.092V162.35H249.012V160.11H231.092V134.91H231.192Z" fill="black"/>
<path d="M269.952 285.08L274.542 233.62H210.812V259.04H246.642L244.332 285.04H210.812V310.46H242.122L239.122 343.46L210.812 351.13V377.58L262.932 363.13L263.312 358.83L269.312 291.89L269.932 285.06L269.952 285.08Z" fill="white"/>
<path d="M299.812 624.54L281.152 641.06C281.152 641.06 270.492 643.73 264.632 643.19C258.772 642.65 256.102 652.25 269.962 653.32C283.822 654.39 328.062 651.19 328.062 651.19C328.062 651.19 332.322 634.13 319.532 624.54H299.812Z" fill="#47465A"/>
<path opacity="0.05" d="M299.812 624.54L281.152 641.06C281.152 641.06 270.492 643.73 264.632 643.19C258.772 642.65 256.102 652.25 269.962 653.32C283.822 654.39 328.062 651.19 328.062 651.19C328.062 651.19 332.322 634.13 319.532 624.54H299.812Z" fill="black"/>
<path opacity="0.3" d="M328.722 643.819C328.691 645.763 328.466 647.7 328.052 649.599C328.052 649.599 283.812 652.799 269.952 651.729C263.282 651.219 260.452 648.729 259.952 646.349C259.342 649.089 261.762 652.699 269.952 653.349C283.812 654.419 328.052 651.219 328.052 651.219C328.573 648.789 328.798 646.304 328.722 643.819Z" fill="white"/>
<path d="M321.652 322.349C321.652 322.349 333.382 338.869 329.112 350.069C324.842 361.269 351.502 338.339 351.502 338.339C351.502 338.339 342.972 323.349 347.242 307.349L321.652 322.349Z" fill="#FDC2CC"/>
<path d="M318.452 630.939L299.812 647.459C299.812 647.459 289.152 650.129 283.292 649.589C277.432 649.049 274.762 658.649 288.622 659.719C302.482 660.789 346.722 657.589 346.722 657.589C346.722 657.589 350.982 640.529 338.192 630.939H318.452Z" fill="#47465A"/>
<path d="M323.812 627.209C321.032 630.639 317.112 631.959 313.012 632.159C303.692 632.599 293.432 627.209 293.432 627.209C300.362 621.349 282.772 569.639 282.772 569.639C268.382 562.709 269.442 547.25 269.442 547.25L274.102 463.349L275.282 442.269L290.212 433.209L301.972 442.209L313.132 450.769C313.859 453.493 314.328 456.278 314.532 459.089C315.832 478.679 300.342 483.289 300.342 483.289C300.342 483.289 306.742 503.009 300.872 521.139C295.002 539.269 305.132 555.259 305.132 555.259C305.132 555.259 324.322 610.699 321.132 613.899C317.942 617.099 323.812 627.209 323.812 627.209Z" fill="#565171"/>
<path opacity="0.05" d="M323.812 627.209C321.032 630.639 317.112 631.959 313.012 632.159C303.692 632.599 293.432 627.209 293.432 627.209C300.362 621.349 282.772 569.639 282.772 569.639C268.382 562.709 269.442 547.25 269.442 547.25L274.102 463.349L275.282 442.269L290.212 433.209L301.972 442.209L313.132 450.769C313.859 453.493 314.328 456.278 314.532 459.089C315.832 478.679 300.342 483.289 300.342 483.289C300.342 483.289 306.742 503.009 300.872 521.139C295.002 539.269 305.132 555.259 305.132 555.259C305.132 555.259 324.322 610.699 321.132 613.899C317.942 617.099 323.812 627.209 323.812 627.209Z" fill="black"/>
<path d="M342.442 633.6C333.382 644.79 312.062 633.6 312.062 633.6C312.492 633.204 312.812 632.705 312.992 632.15C316.902 621.52 299.802 570.7 299.802 570.7C285.412 563.77 283.802 547.25 283.802 547.25L280.032 461.83L279.542 450.77L301.972 442.21L308.862 439.58L331.812 457.17C332.798 460.814 333.282 464.575 333.252 468.35C332.962 485.56 318.992 489.72 318.992 489.72C318.992 489.72 325.392 509.44 319.522 527.57C313.652 545.7 323.812 561.64 323.812 561.64C323.812 561.64 343.002 617.08 339.812 620.28C336.622 623.48 342.442 633.6 342.442 633.6Z" fill="#565171"/>
<path opacity="0.1" d="M333.252 468.349C328.642 467.689 319.312 462.139 314.522 459.129C312.692 457.979 311.522 457.209 311.522 457.209C311.522 457.209 306.722 443.879 293.932 454.009C289.771 457.389 285.073 460.046 280.032 461.869C278.107 462.551 276.121 463.05 274.102 463.359L275.282 442.279L290.212 433.219L301.972 442.219L308.862 439.589L331.812 457.169C332.797 460.813 333.282 464.574 333.252 468.349Z" fill="black"/>
<path d="M362.102 366.059C360.202 377.499 356.102 401.059 351.502 421.449C345.102 449.699 338.172 443.299 334.982 450.229C331.792 457.159 334.452 466.749 334.452 466.749C329.122 467.279 311.532 455.559 311.532 455.559C311.532 455.559 306.732 442.229 293.942 452.359C281.152 462.489 271.022 461.949 271.022 461.949C268.352 444.359 288.082 397.449 288.082 397.449C288.082 397.449 307.272 361.199 311.532 356.449C313.509 354.101 314.919 351.33 315.652 348.349C315.98 347.164 316.207 345.953 316.332 344.729C323.262 344.199 340.332 332.469 340.332 332.469L353.662 330.339V337.269C353.82 337.34 353.968 337.431 354.102 337.539C356.292 339.209 359.102 346.329 360.972 351.939C362.503 356.482 362.892 361.331 362.102 366.059Z" fill="#E1A0A7"/>
<path d="M299.812 416.119L292.922 415.319L240.112 409.189C208.112 399.059 228.382 383.599 228.382 383.599L249.702 403.859C255.852 405.089 279.982 402.219 290.792 400.859C294.032 400.439 296.082 400.159 296.082 400.159L299.812 416.119Z" fill="#FDC2CC"/>
<path opacity="0.1" d="M351.502 344.159C351.502 344.159 337.642 332.969 316.812 369.209C295.982 405.449 291.222 399.589 291.222 399.589C291.222 399.589 295.482 415.589 293.352 418.779C293.352 418.779 307.742 417.709 313.072 418.779C318.402 419.849 351.452 378.269 351.452 378.269C351.452 378.269 368.562 354.819 351.502 344.159Z" fill="black"/>
<path opacity="0.1" d="M350.972 342.029C350.972 342.029 337.112 330.839 316.322 367.079C295.532 403.319 290.732 397.459 290.732 397.459C290.732 397.459 307.252 415.579 312.582 416.649C317.912 417.719 350.962 376.139 350.962 376.139C350.962 376.139 368.032 352.689 350.972 342.029Z" fill="black"/>
<path opacity="0.1" d="M292.912 415.35C293.132 411.4 291.642 404.46 290.782 400.86C294.022 400.44 296.072 400.16 296.072 400.16L299.802 416.16L292.912 415.35Z" fill="black"/>
<path d="M351.502 343.089C351.502 343.089 337.642 331.899 316.812 368.149C295.982 404.399 291.222 398.529 291.222 398.529C291.222 398.529 295.482 414.529 293.352 417.719C293.352 417.719 307.742 416.649 313.072 417.719C318.402 418.789 351.452 377.209 351.452 377.209C351.452 377.209 368.562 353.749 351.502 343.089Z" fill="#E1A0A7"/>
<path opacity="0.1" d="M347.812 308.439L322.182 323.349C323.267 324.923 324.268 326.552 325.182 328.229C326.657 328.529 328.158 328.68 329.662 328.679C336.492 328.679 339.662 321.509 343.792 316.679C343.492 312.839 346.632 312.739 347.812 308.439Z" fill="black"/>
<path d="M329.112 327.639C341.478 327.639 351.502 317.615 351.502 305.249C351.502 292.884 341.478 282.859 329.112 282.859C316.746 282.859 306.722 292.884 306.722 305.249C306.722 317.615 316.746 327.639 329.112 327.639Z" fill="#FDC2CC"/>
<path opacity="0.1" d="M300.812 287.14C303.07 284.824 306.004 283.284 309.192 282.74C312.302 282.07 315.712 281.87 318.192 279.88C321.002 277.63 322.262 273.35 325.732 272.39C327.24 272.088 328.802 272.213 330.242 272.75C335.778 274.423 340.692 277.701 344.362 282.17C345.231 283.452 346.337 284.555 347.622 285.42C348.388 285.743 349.135 286.107 349.862 286.51C350.658 287.142 351.284 287.964 351.682 288.9C354.18 293.946 354.756 299.73 353.302 305.17C352.432 308.38 350.872 311.36 349.942 314.56C349.012 317.76 348.782 321.38 350.472 324.24C348.832 325.08 346.762 324.02 345.732 322.49C344.702 320.96 344.392 319.08 343.852 317.31C342.79 313.835 340.79 310.721 338.072 308.31C336.392 306.83 333.392 305.83 332.222 307.74C331.772 308.48 331.802 309.43 331.412 310.2C330.652 311.71 328.412 312.01 326.982 311.2C325.574 310.228 324.585 308.76 324.212 307.09C322.022 299.66 318.272 294.99 310.332 298.16C307.332 299.34 303.882 300.16 301.032 298.16C297.382 295.48 298.112 290.17 300.812 287.14Z" fill="black"/>
<path d="M300.812 286.6C303.07 284.284 306.004 282.744 309.192 282.2C312.302 281.53 315.712 281.33 318.192 279.34C321.002 277.09 322.262 272.81 325.732 271.85C327.24 271.548 328.802 271.673 330.242 272.21C335.778 273.883 340.692 277.161 344.362 281.63C345.231 282.912 346.337 284.015 347.622 284.88C348.388 285.203 349.135 285.567 349.862 285.97C350.658 286.602 351.284 287.424 351.682 288.36C354.18 293.406 354.756 299.19 353.302 304.63C352.432 307.84 350.872 310.82 349.942 314.02C349.012 317.22 348.782 320.84 350.472 323.7C348.832 324.54 346.762 323.48 345.732 321.95C344.702 320.42 344.392 318.54 343.852 316.77C342.79 313.295 340.79 310.181 338.072 307.77C336.392 306.29 333.392 305.29 332.222 307.2C331.772 307.94 331.802 308.89 331.412 309.66C330.652 311.17 328.412 311.47 326.982 310.66C325.574 309.688 324.585 308.22 324.212 306.55C322.022 299.12 318.272 294.45 310.332 297.62C307.332 298.8 303.882 299.62 301.032 297.62C297.382 294.95 298.112 289.64 300.812 286.6Z" fill="#8F5A6A"/>
<path opacity="0.05" d="M354.072 337.5H343.242C343.242 337.5 321.922 348.16 321.392 347.63C321.032 347.27 317.732 347.89 315.642 348.32C315.969 347.134 316.197 345.923 316.322 344.7C323.252 344.17 340.322 332.44 340.322 332.44L353.652 330.31V337.24C353.802 337.309 353.943 337.396 354.072 337.5Z" fill="black"/>
<path opacity="0.3" d="M347.372 650.209C347.341 652.154 347.116 654.09 346.702 655.99C346.702 655.99 302.462 659.19 288.602 658.12C281.932 657.61 279.102 655.12 278.602 652.74C277.992 655.48 280.412 659.09 288.602 659.74C302.462 660.81 346.702 657.609 346.702 657.609C347.223 655.179 347.448 652.694 347.372 650.209Z" fill="white"/>
<g opacity="0.05">
<path opacity="0.05" d="M288.872 451.829C281.682 457.529 275.322 459.829 271.142 460.829C271.142 461.229 271.222 461.619 271.282 461.999C271.282 461.999 281.412 462.529 294.202 452.409C296.184 450.711 298.526 449.487 301.052 448.829C298.262 447.459 294.282 447.549 288.872 451.829Z" fill="black"/>
<path opacity="0.05" d="M361.212 351.889C359.302 346.279 356.532 339.169 354.342 337.489C354.208 337.381 354.06 337.29 353.902 337.219C353.902 337.219 349.492 337.369 349.642 337.489C351.832 339.159 353.972 345.749 355.882 351.349C357.43 355.902 357.828 360.766 357.042 365.509C355.142 376.949 351.042 400.509 346.442 420.899C340.042 449.149 333.112 442.749 329.922 449.679C327.302 455.359 328.612 462.819 329.182 465.329C330.906 466.192 332.796 466.673 334.722 466.739C334.722 466.739 332.052 457.149 335.252 450.219C338.452 443.289 345.382 449.689 351.772 421.439C356.402 400.999 360.472 377.439 362.372 366.049C363.158 361.306 362.76 356.442 361.212 351.889Z" fill="black"/>
</g>
<path d="M352.27 667.719C354.6 665.549 356.79 662.989 357.47 659.879C358.15 656.769 356.82 653.029 353.84 651.879C350.51 650.599 346.94 652.879 344.24 655.249C341.54 657.619 338.44 660.249 334.91 659.749C336.728 658.1 338.088 656.009 338.858 653.678C339.627 651.347 339.779 648.857 339.3 646.449C339.145 645.456 338.723 644.522 338.08 643.749C336.23 641.749 332.87 642.619 330.66 644.179C323.66 649.179 321.66 658.709 321.61 667.329C320.9 664.219 321.5 660.979 321.48 657.789C321.46 654.599 320.59 651.069 317.9 649.349C316.225 648.449 314.341 648.007 312.44 648.069C309.27 647.949 305.74 648.269 303.58 650.589C300.89 653.469 301.58 658.299 303.93 661.469C306.28 664.639 309.83 666.629 313.1 668.819C315.725 670.384 317.964 672.52 319.65 675.069C319.85 675.426 320.014 675.801 320.14 676.189H340.01C344.46 673.931 348.584 671.082 352.27 667.719Z" fill="#2A9D8F"/>
<defs>
<linearGradient id="paint0_linear" x1="702.14" y1="616.69" x2="702.14" y2="278.14" gradientUnits="userSpaceOnUse">
<stop stop-color="#808080" stop-opacity="0.25"/>
<stop offset="0.54" stop-color="#808080" stop-opacity="0.12"/>
<stop offset="1" stop-color="#808080" stop-opacity="0.1"/>
</linearGradient>
<linearGradient id="paint1_linear" x1="58043.8" y1="306919" x2="58043.8" y2="150957" gradientUnits="userSpaceOnUse">
<stop stop-color="#808080" stop-opacity="0.25"/>
<stop offset="0.54" stop-color="#808080" stop-opacity="0.12"/>
<stop offset="1" stop-color="#808080" stop-opacity="0.1"/>
</linearGradient>
</defs>
</svg>
