<svg width="289" height="242" viewBox="0 0 289 242" fill="none" xmlns="http://www.w3.org/2000/svg">
<path d="M147.102 241.999C225.47 241.999 289 238.282 289 233.696C289 229.11 225.47 225.393 147.102 225.393C68.7334 225.393 5.20337 229.11 5.20337 233.696C5.20337 238.282 68.7334 241.999 147.102 241.999Z" fill="#F5F5F5"/>
<path d="M174.699 4.1823L174.616 4.91113L178.456 5.34754L178.538 4.61871L174.699 4.1823Z" fill="#2A9D8F"/>
<path d="M158.048 2.29753L157.966 3.02637L170.423 4.44222L170.505 3.71339L158.048 2.29753Z" fill="#2A9D8F"/>
<path d="M250.321 15.3711L118.649 0.405002C116.681 0.181325 114.905 1.59891 114.682 3.57128L103.302 104.143C103.079 106.115 104.494 107.896 106.462 108.119L238.134 123.085C240.102 123.309 241.878 121.891 242.101 119.919L253.481 19.3474C253.704 17.375 252.289 15.5948 250.321 15.3711Z" fill="#2A9D8F"/>
<path opacity="0.7" d="M105.226 102.957L116.284 5.18766C116.323 4.84226 116.43 4.50802 116.598 4.20422C116.767 3.90041 116.994 3.63306 117.266 3.41758C117.538 3.20209 117.85 3.04275 118.184 2.94873C118.518 2.85471 118.867 2.82789 119.211 2.86979L249.261 17.6426C249.605 17.6826 249.938 17.7903 250.241 17.9595C250.543 18.1287 250.81 18.3561 251.025 18.6287C251.239 18.9012 251.398 19.2136 251.493 19.5478C251.587 19.8821 251.614 20.2317 251.574 20.5766L240.486 118.309C240.448 118.655 240.342 118.989 240.173 119.294C240.005 119.598 239.778 119.866 239.506 120.081C239.234 120.297 238.921 120.456 238.587 120.55C238.253 120.643 237.903 120.67 237.559 120.627L107.509 105.847C106.826 105.762 106.203 105.411 105.776 104.871C105.349 104.33 105.151 103.642 105.226 102.957Z" fill="#263238"/>
<path d="M229.797 41.7385L174.996 35.5098L174.69 38.2137L229.491 44.4425L229.797 41.7385Z" fill="#2A9D8F"/>
<path d="M238.197 47.0571L180.139 40.458L179.833 43.162L237.891 49.761L238.197 47.0571Z" fill="#2A9D8F"/>
<path d="M227.75 50.2371L179.647 44.7695L179.341 47.4735L227.445 52.941L227.75 50.2371Z" fill="#2A9D8F"/>
<path d="M222.247 53.9802L179.161 49.083L178.855 51.787L221.941 56.6842L222.247 53.9802Z" fill="#2A9D8F"/>
<path d="M208.338 59.5057L172.735 55.459L172.429 58.163L208.033 62.2097L208.338 59.5057Z" fill="#2A9D8F"/>
<path d="M215.132 73.39L176.903 69.0449L176.597 71.7489L214.826 76.094L215.132 73.39Z" fill="#2A9D8F"/>
<path d="M209.066 68.3309L177.39 64.7305L177.084 67.4344L208.76 71.0348L209.066 68.3309Z" fill="#2A9D8F"/>
<path d="M212.764 64.3829L177.881 60.418L177.575 63.1219L212.458 67.0868L212.764 64.3829Z" fill="#2A9D8F"/>
<path d="M204.62 92.4051L169.017 88.3584L168.711 91.0624L204.314 95.1091L204.62 92.4051Z" fill="#2A9D8F"/>
<path d="M211.406 106.287L173.177 101.942L172.871 104.646L211.1 108.991L211.406 106.287Z" fill="#2A9D8F"/>
<path d="M204.93 99.961L173.369 96.4463L173.07 99.1404L204.631 102.655L204.93 99.961Z" fill="#2A9D8F"/>
<path d="M209.038 97.2803L174.154 93.3154L173.848 96.0194L208.732 99.9843L209.038 97.2803Z" fill="#2A9D8F"/>
<path d="M151.298 12.4377L122.385 9.15137L122.079 11.8553L150.992 15.1416L151.298 12.4377Z" fill="white"/>
<path d="M156.53 26.1302L125.494 22.6025L125.188 25.3065L156.224 28.8342L156.53 26.1302Z" fill="white"/>
<path d="M151.7 21.2184L125.98 18.2949L125.674 20.9989L151.394 23.9223L151.7 21.2184Z" fill="white"/>
<path d="M154.784 17.193L126.46 13.9736L126.154 16.6776L154.478 19.897L154.784 17.193Z" fill="white"/>
<path d="M213.664 86.3314L175.436 81.9863L175.13 84.6903L213.358 89.0354L213.664 86.3314Z" fill="#2A9D8F"/>
<path d="M207.599 81.2723L175.923 77.6719L175.617 80.3758L207.293 83.9762L207.599 81.2723Z" fill="#2A9D8F"/>
<path d="M211.297 77.3243L176.413 73.3594L176.107 76.0633L210.991 80.0282L211.297 77.3243Z" fill="#2A9D8F"/>
<path d="M132.802 230.771L127.964 230.661L127.291 219.409L132.129 219.519L132.802 230.771Z" fill="#FFC3BD"/>
<path d="M127.789 230.096L133.073 230.213C133.168 230.216 133.259 230.251 133.332 230.312C133.405 230.373 133.456 230.457 133.475 230.551L134.339 234.886C134.355 234.991 134.348 235.098 134.318 235.2C134.288 235.302 134.237 235.397 134.167 235.477C134.098 235.557 134.012 235.621 133.915 235.665C133.818 235.708 133.713 235.73 133.607 235.729C131.704 235.656 128.952 235.487 126.559 235.428C123.756 235.37 123.251 235.861 119.973 235.516C117.997 235.311 117.653 233.25 118.509 233.155C122.358 232.722 123.28 232.421 126.559 230.448C126.926 230.213 127.353 230.091 127.789 230.096Z" fill="#263238"/>
<path opacity="0.2" d="M127.291 219.416L127.642 225.211L132.48 225.321L132.136 219.526L127.291 219.416Z" fill="black"/>
<path d="M125.147 71.0421C123.537 74.2035 121.839 77.2622 120.024 80.3136C118.209 83.365 116.365 86.343 114.169 89.3357C113.891 89.7098 113.584 90.0692 113.291 90.4726C113.166 90.6413 112.954 90.8834 112.764 91.0961C112.574 91.3088 112.376 91.5436 112.164 91.7416C111.343 92.5685 110.409 93.2748 109.39 93.8394C107.49 94.9056 105.384 95.5509 103.213 95.7319C101.246 95.908 99.2633 95.8118 97.3219 95.4458C96.3856 95.2787 95.4595 95.0583 94.5482 94.7857C93.6229 94.52 92.7159 94.1941 91.833 93.8101L93.004 90.1059C93.7358 90.1866 94.5701 90.2746 95.3605 90.3186C96.1509 90.3626 96.9706 90.3626 97.761 90.3186C99.2783 90.3025 100.789 90.1105 102.262 89.7465C103.548 89.4499 104.762 88.8988 105.833 88.1254C106.298 87.7801 106.716 87.3757 107.077 86.9225C107.171 86.8138 107.257 86.6986 107.334 86.5777C107.421 86.4604 107.495 86.365 107.612 86.1816L108.256 85.1914C109.976 82.4334 111.637 79.404 113.284 76.3893L118.224 67.3379L125.147 71.0421Z" fill="#FFC3BD"/>
<path d="M129.486 66.2822C130.218 70.6832 120.185 83.9524 120.185 83.9524L112.83 75.0843C114.92 71.4854 117.32 68.0764 120.002 64.8959C123.815 60.6122 128.674 61.4264 129.486 66.2822Z" fill="white"/>
<path opacity="0.2" d="M127.137 70.0459C124.21 70.7794 119.277 73.8968 116.891 79.9556L120.207 83.9605C120.207 83.9605 126.157 76.1194 128.557 70.486C128.395 70.2747 128.171 70.1189 127.917 70.0401C127.663 69.9613 127.39 69.9633 127.137 70.0459Z" fill="black"/>
<path d="M124.298 62.1228C124.298 62.1228 116.584 71.9811 117.096 100.434L143.157 105.158C144.058 101.182 144.38 85.0082 151.647 66.8173C148.866 65.7391 146.018 64.8424 143.121 64.1326C139.47 63.2464 135.77 62.5753 132.041 62.1228C129.464 61.9213 126.875 61.9213 124.298 62.1228Z" fill="white"/>
<path opacity="0.2" d="M146.129 77.9229C145.016 79.4999 144.343 83.7909 145.843 86.7249C146.194 84.9058 146.612 82.9987 147.109 81.0109L146.129 77.9229Z" fill="black"/>
<path d="M132.041 62.123C132.041 62.123 128.916 68.2772 132.56 71.4752C138.935 70.9324 143.121 64.1402 143.121 64.1402L132.041 62.123Z" fill="#263238"/>
<path d="M84.3679 87.6484L84.4484 91.294L87.5954 93.5752L89.0152 88.5726L84.3679 87.6484Z" fill="#FFC3BD"/>
<path d="M94.621 90.4887L89.015 88.5742L87.5952 93.5767C87.5952 93.5767 90.8593 94.9997 93.45 93.0926L94.621 90.4887Z" fill="#FFC3BD"/>
<path d="M144.277 51.4297C142.931 54.8772 141.057 61.2953 143.121 64.134C143.121 64.134 140.281 67.4568 133.907 67.9996C130.248 64.8015 132.041 62.1315 132.041 62.1315C136.19 61.8968 136.615 58.9261 136.432 56.0214L144.277 51.4297Z" fill="#FFC3BD"/>
<path opacity="0.2" d="M141.079 53.2988L136.432 56.0128C136.487 56.6889 136.487 57.3685 136.432 58.0446C138.495 59.1082 140.179 57.9933 141.079 55.7561C141.263 54.9474 141.263 54.1075 141.079 53.2988Z" fill="black"/>
<path d="M133.987 47.4668C134.287 49.6673 141.057 46.0804 142.199 45.3249C143.34 44.5694 142.03 41.9508 139.462 39.8383C136.893 37.7258 133.292 42.3249 133.987 47.4668Z" fill="#263238"/>
<path d="M147.878 48.4812C145.807 52.9482 144.826 55.6696 141.599 57.1072C136.754 59.3077 131.931 54.9727 132.626 49.9776C133.248 45.4812 136.527 38.931 141.708 38.8576C142.852 38.8362 143.982 39.1085 144.992 39.6487C146.001 40.1888 146.855 40.9787 147.473 41.9434C148.092 42.908 148.454 44.0152 148.524 45.1595C148.595 46.3039 148.373 47.4474 147.878 48.4812Z" fill="#FFC3BD"/>
<path d="M146.048 52.6601C143.853 52.9902 145.404 45.4718 145.807 44.1661C146.209 42.8605 149.693 41.6649 151.662 44.3495C154.026 47.6283 151.171 51.8973 146.048 52.6601Z" fill="#263238"/>
<path d="M145.39 37.3668C143.421 36.9707 143.985 34.8802 145.434 34.9902C144.27 33.5746 137.383 32.2836 137.01 36.8607C136.637 41.4378 145.514 43.9757 147.915 44.2984L151.494 45.3033C156.316 42.8901 150.967 38.4891 145.39 37.3668Z" fill="#263238"/>
<path d="M148.119 53.8853C147.214 54.7311 146.011 55.1822 144.775 55.1396C143.143 55.0663 142.828 53.4819 143.706 52.2056C144.489 51.0467 146.297 49.6897 147.739 50.3865C148.049 50.5453 148.315 50.779 148.512 51.0664C148.71 51.3538 148.833 51.686 148.871 52.033C148.909 52.38 148.86 52.731 148.729 53.0543C148.597 53.3777 148.388 53.6632 148.119 53.8853Z" fill="#FFC3BD"/>
<path d="M118.077 221.675L113.327 222.614L111 211.626L115.75 210.688L118.077 221.675Z" fill="#FFC3BD"/>
<path d="M113.027 222.101L118.216 221.074C118.31 221.056 118.408 221.071 118.494 221.116C118.579 221.161 118.646 221.234 118.684 221.323L120.448 225.365C120.486 225.463 120.503 225.568 120.498 225.673C120.492 225.778 120.464 225.88 120.416 225.974C120.367 226.067 120.299 226.148 120.216 226.213C120.133 226.278 120.038 226.323 119.936 226.348C118.055 226.685 115.332 227.081 112.983 227.573C110.231 228.115 109.324 228.174 106.126 228.812C104.172 229.194 103.242 227.345 104.025 226.986C107.582 225.438 109.148 225.313 111.958 222.695C112.251 222.399 112.622 222.193 113.027 222.101Z" fill="#263238"/>
<path opacity="0.2" d="M111 211.626L112.2 217.289L116.95 216.35L115.75 210.688L111 211.626Z" fill="black"/>
<path d="M111.242 223.251C110.935 223.393 110.588 223.424 110.261 223.339C110.151 223.301 110.054 223.235 109.977 223.147C109.9 223.06 109.847 222.954 109.822 222.841C109.797 222.776 109.791 222.707 109.804 222.639C109.817 222.572 109.848 222.509 109.895 222.459C110.305 222.012 112.149 222.378 112.354 222.422C112.377 222.428 112.399 222.439 112.416 222.456C112.432 222.473 112.444 222.494 112.449 222.518C112.453 222.54 112.45 222.563 112.441 222.584C112.432 222.605 112.417 222.623 112.398 222.635C112.037 222.883 111.649 223.09 111.242 223.251ZM110.202 222.518C110.153 222.535 110.108 222.562 110.071 222.598C110.071 222.598 110.019 222.664 110.071 222.753C110.086 222.83 110.121 222.903 110.172 222.963C110.223 223.024 110.289 223.07 110.363 223.097C110.97 223.146 111.573 222.96 112.047 222.576C111.432 222.432 110.795 222.412 110.173 222.518H110.202Z" fill="#2A9D8F"/>
<path d="M112.346 222.614H112.288C111.71 222.526 110.407 221.881 110.312 221.294C110.298 221.206 110.316 221.117 110.361 221.04C110.407 220.964 110.477 220.906 110.561 220.876C110.642 220.838 110.731 220.818 110.821 220.818C110.91 220.818 110.999 220.838 111.08 220.876C111.812 221.118 112.383 222.424 112.412 222.475C112.423 222.493 112.429 222.513 112.429 222.534C112.429 222.555 112.423 222.575 112.412 222.592C112.394 222.608 112.37 222.616 112.346 222.614ZM110.714 221.052H110.663C110.531 221.125 110.539 221.199 110.546 221.228C110.597 221.551 111.476 222.108 112.083 222.299C111.885 221.925 111.454 221.191 111.007 221.037C110.911 221.009 110.808 221.014 110.714 221.052Z" fill="#2A9D8F"/>
<path d="M117.096 100.435C117.096 100.435 105.526 144.577 102.181 159.342C98.7123 174.709 110.4 216.233 110.4 216.233L118.121 214.707C118.121 214.707 114.879 172.369 115.984 165.651C120.412 149.381 134.229 103.545 134.229 103.545L117.096 100.435Z" fill="#2A9D8F"/>
<path opacity="0.2" d="M118.56 137.021C118.079 143.168 118.177 149.347 118.853 155.476C122.161 143.938 126.757 128.461 130.065 117.407C126.727 118.852 119.797 123.437 118.56 137.021Z" fill="black"/>
<path d="M126.098 102.069C126.098 102.069 120.038 147.048 120.557 161.586C121.121 177.496 124.875 223.765 124.875 223.765L133.928 223.985C133.928 223.985 133.789 180.239 134.66 164.733C135.568 147.906 142.93 105.135 142.93 105.135L126.098 102.069Z" fill="#2A9D8F"/>
<path d="M134.536 224.169L124.766 223.956L123.998 220.245L134.814 220.179L134.536 224.169Z" fill="#263238"/>
<path d="M119.643 214.603L110.056 216.496L108.504 213.034L119.131 211.134L119.643 214.603Z" fill="#263238"/>
<path d="M140.735 47.146C140.589 47.5201 140.274 47.7475 140.003 47.6521C139.732 47.5568 139.681 47.1754 139.828 46.8013C139.974 46.4272 140.289 46.2071 140.559 46.3025C140.83 46.3978 140.874 46.7793 140.735 47.146Z" fill="#263238"/>
<path d="M136.527 45.5011C136.38 45.8678 136.065 46.0952 135.795 45.9999C135.524 45.9045 135.473 45.5231 135.619 45.1563C135.765 44.7896 136.08 44.5549 136.351 44.6502C136.622 44.7456 136.673 45.127 136.527 45.5011Z" fill="#263238"/>
<path d="M137.508 46.0967C136.619 47.0631 135.602 47.9023 134.485 48.5906C134.669 48.8717 134.911 49.1097 135.196 49.2882C135.48 49.4667 135.799 49.5816 136.132 49.6248L137.508 46.0967Z" fill="#ED847E"/>
<path d="M136.066 51.4279C136.05 51.4229 136.035 51.4147 136.023 51.4037C136.011 51.3927 136.001 51.3791 135.994 51.364C135.987 51.3489 135.984 51.3325 135.984 51.316C135.984 51.2994 135.987 51.283 135.994 51.2679C136.001 51.2528 136.011 51.2393 136.023 51.2282C136.035 51.2172 136.05 51.209 136.066 51.204C136.081 51.199 136.098 51.1974 136.114 51.1993C136.131 51.2013 136.147 51.2067 136.161 51.2152C136.612 51.4243 137.106 51.5247 137.603 51.5081C138.1 51.4915 138.586 51.3586 139.022 51.1198C139.035 51.1102 139.05 51.1033 139.066 51.0997C139.082 51.096 139.098 51.0957 139.114 51.0987C139.13 51.1017 139.145 51.1079 139.158 51.117C139.171 51.1261 139.183 51.1378 139.191 51.1515C139.2 51.1652 139.205 51.1805 139.208 51.1965C139.21 51.2125 139.209 51.2288 139.205 51.2444C139.201 51.26 139.194 51.2746 139.184 51.2873C139.174 51.2999 139.161 51.3103 139.147 51.3179C138.68 51.5838 138.156 51.7326 137.62 51.7518C137.083 51.7709 136.55 51.6598 136.066 51.4279Z" fill="#263238"/>
<path d="M143.062 46.3026C143.032 46.284 143.006 46.2595 142.986 46.2305C142.966 46.2014 142.952 46.1685 142.945 46.1339C142.907 45.8381 142.8 45.5556 142.632 45.3095C142.464 45.0634 142.24 44.8608 141.979 44.7182C141.923 44.6926 141.879 44.6459 141.857 44.5882C141.835 44.5306 141.837 44.4666 141.862 44.4101C141.889 44.3535 141.937 44.3096 141.996 44.2877C142.054 44.2658 142.119 44.2676 142.177 44.2928C142.504 44.4693 142.785 44.7219 142.995 45.0295C143.205 45.337 143.338 45.6906 143.384 46.0605C143.389 46.0914 143.388 46.123 143.381 46.1534C143.374 46.1839 143.361 46.2126 143.342 46.2379C143.324 46.2632 143.301 46.2846 143.274 46.3007C143.247 46.3168 143.217 46.3274 143.187 46.3319C143.143 46.3331 143.1 46.323 143.062 46.3026Z" fill="#263238"/>
<path d="M135.466 42.987C135.435 42.9704 135.409 42.9449 135.393 42.9136C135.375 42.8879 135.363 42.8589 135.358 42.8284C135.352 42.7979 135.353 42.7666 135.36 42.7364C135.367 42.7062 135.379 42.6777 135.398 42.6526C135.416 42.6276 135.439 42.6066 135.466 42.5909C135.778 42.3883 136.135 42.2634 136.505 42.2264C136.875 42.1894 137.249 42.2414 137.595 42.3781C137.652 42.4052 137.696 42.4533 137.718 42.5121C137.739 42.571 137.738 42.636 137.713 42.6936C137.699 42.7216 137.68 42.7468 137.657 42.7675C137.634 42.7883 137.607 42.8042 137.578 42.8145C137.549 42.8247 137.518 42.829 137.487 42.8271C137.456 42.8253 137.426 42.8173 137.398 42.8036C137.123 42.6984 136.827 42.6602 136.534 42.692C136.242 42.7239 135.961 42.825 135.715 42.987C135.677 43.0104 135.634 43.0228 135.59 43.0228C135.546 43.0228 135.503 43.0104 135.466 42.987Z" fill="#263238"/>
<path d="M147.944 65.2321L146.729 64.9021C146.671 64.8852 146.608 64.891 146.554 64.9181C146.5 64.9453 146.458 64.992 146.436 65.0488C139.688 82.8583 138.086 102.773 138.086 102.773L139.44 103.015C140.975 90.2498 143.88 77.6879 148.105 65.5475C148.117 65.5164 148.123 65.4829 148.121 65.4494C148.12 65.4158 148.111 65.383 148.096 65.3531C148.081 65.3232 148.059 65.2969 148.033 65.276C148.007 65.2552 147.976 65.2402 147.944 65.2321Z" fill="#2A9D8F"/>
<g opacity="0.99">
<path opacity="0.99" d="M139.637 103.054C139.648 102.996 139.647 102.937 139.634 102.88C139.622 102.823 139.599 102.77 139.565 102.722C139.532 102.674 139.489 102.633 139.44 102.602C139.391 102.571 139.336 102.55 139.279 102.54L138.342 102.364C138.237 102.349 138.13 102.371 138.039 102.428C137.949 102.484 137.882 102.571 137.851 102.673C137.819 102.775 137.824 102.885 137.866 102.983C137.908 103.081 137.983 103.16 138.078 103.208L137.874 104.374C137.86 104.449 137.862 104.526 137.878 104.601C137.894 104.675 137.925 104.746 137.968 104.809C138.012 104.871 138.067 104.925 138.131 104.966C138.195 105.007 138.267 105.035 138.342 105.049C138.417 105.062 138.494 105.061 138.568 105.045C138.643 105.028 138.713 104.997 138.776 104.954C138.838 104.91 138.891 104.855 138.933 104.79C138.974 104.726 139.002 104.654 139.015 104.579L139.227 103.413C139.326 103.407 139.419 103.368 139.493 103.303C139.568 103.238 139.618 103.151 139.637 103.054Z" fill="#263238"/>
</g>
<path d="M127.262 61.7422H126.003C125.952 61.7429 125.903 61.7596 125.862 61.7898C125.822 61.8201 125.792 61.8625 125.776 61.9109C119.863 79.8818 119.277 99.3197 119.277 99.3197L120.631 99.5691C122.227 79.1336 126.75 64.3608 127.496 62.0136C127.5 61.98 127.497 61.946 127.487 61.9137C127.477 61.8813 127.461 61.8514 127.439 61.8258C127.417 61.8003 127.39 61.7796 127.359 61.7652C127.329 61.7508 127.296 61.743 127.262 61.7422Z" fill="#2A9D8F"/>
<path opacity="0.99" d="M120.829 99.6491C120.844 99.53 120.813 99.4096 120.742 99.3127C120.671 99.2159 120.566 99.1499 120.448 99.1283L119.511 98.9522C119.455 98.9418 119.396 98.9432 119.34 98.9562C119.283 98.9692 119.23 98.9937 119.184 99.028C119.137 99.0623 119.098 99.1059 119.069 99.1559C119.04 99.206 119.021 99.2615 119.014 99.319C119.003 99.4188 119.025 99.5192 119.075 99.6062C119.125 99.6931 119.201 99.762 119.292 99.8031L119.138 100.977C119.119 101.133 119.159 101.29 119.252 101.417C119.344 101.544 119.482 101.63 119.636 101.659C119.71 101.674 119.787 101.673 119.861 101.656C119.935 101.64 120.004 101.608 120.066 101.563C120.127 101.519 120.178 101.462 120.216 101.396C120.254 101.33 120.279 101.258 120.287 101.182L120.441 100.008C120.537 100.004 120.629 99.9656 120.7 99.8998C120.771 99.834 120.817 99.7452 120.829 99.6491Z" fill="#263238"/>
<path d="M125.776 230.793C125.448 230.867 125.104 230.825 124.803 230.675C124.705 230.611 124.624 230.524 124.567 230.422C124.51 230.32 124.478 230.206 124.474 230.089C124.464 230.021 124.474 229.953 124.501 229.891C124.528 229.829 124.572 229.775 124.627 229.736C125.132 229.384 126.823 230.14 127.042 230.228C127.063 230.238 127.081 230.254 127.094 230.273C127.106 230.292 127.114 230.315 127.115 230.338C127.112 230.361 127.103 230.382 127.089 230.4C127.075 230.418 127.056 230.432 127.035 230.441C126.631 230.608 126.208 230.726 125.776 230.793ZM124.913 229.854C124.86 229.857 124.81 229.875 124.766 229.905C124.743 229.921 124.725 229.943 124.714 229.969C124.704 229.996 124.701 230.024 124.708 230.052C124.709 230.132 124.73 230.21 124.768 230.28C124.807 230.351 124.861 230.411 124.927 230.455C125.508 230.633 126.135 230.577 126.676 230.301C126.122 230.04 125.524 229.888 124.913 229.854Z" fill="#2A9D8F"/>
<path d="M127.013 230.448H126.955C126.406 230.235 125.279 229.296 125.308 228.732C125.315 228.643 125.351 228.56 125.411 228.495C125.47 228.43 125.55 228.387 125.637 228.372C125.725 228.35 125.817 228.347 125.906 228.362C125.996 228.377 126.081 228.41 126.157 228.46C126.786 228.849 127.101 230.25 127.108 230.309C127.114 230.33 127.113 230.352 127.107 230.372C127.1 230.393 127.088 230.412 127.072 230.426C127.064 230.433 127.055 230.439 127.045 230.443C127.035 230.447 127.024 230.448 127.013 230.448ZM125.754 228.592H125.696C125.549 228.636 125.549 228.71 125.542 228.739C125.542 229.069 126.274 229.795 126.823 230.111C126.709 229.554 126.434 229.044 126.032 228.644C125.949 228.593 125.85 228.574 125.754 228.592Z" fill="#2A9D8F"/>
<path d="M129.142 117.481L133.233 120.379L136.3 118.112L132.377 113.322L129.142 117.481Z" fill="#FFC3BD"/>
<path d="M138.166 112.448L132.377 113.321L136.3 118.111C136.3 118.111 140.318 117.128 140.098 113.901L138.166 112.448Z" fill="#FFC3BD"/>
<path d="M155.218 74.4102C155.438 78.2391 155.555 82.0533 155.577 85.8968C155.577 87.8113 155.577 89.7331 155.577 91.6695C155.577 92.6304 155.54 93.5986 155.489 94.6036L155.416 96.0706L155.379 96.8041C155.379 97.1488 155.306 97.5376 155.255 97.9043C155.035 99.1847 154.615 100.422 154.011 101.572C153.486 102.565 152.889 103.519 152.225 104.425C150.988 106.082 149.615 107.633 148.119 109.061C145.256 111.801 142.125 114.247 138.774 116.359L136.403 113.279C137.676 111.988 139.008 110.645 140.237 109.266C141.467 107.887 142.689 106.516 143.809 105.107C144.906 103.752 145.906 102.32 146.802 100.824C147.196 100.148 147.541 99.4441 147.834 98.7185C148.072 98.152 148.227 97.5542 148.295 96.9434C148.288 96.8335 148.288 96.7233 148.295 96.6134V95.9385L148.259 94.5595L148.141 91.7649L147.834 86.0876C147.644 82.3173 147.49 78.5178 147.388 74.7402L155.218 74.4102Z" fill="#FFC3BD"/>
<path d="M151.647 66.8182C157.904 69.1508 157.853 85.926 157.853 85.926L147.263 87.8772C147.263 87.8772 144.702 80.256 145.968 74.256C147.175 68.5273 146.89 65.0358 151.647 66.8182Z" fill="white"/>
<path d="M0 17.1367H84.1627V102.223H0V17.1367Z" fill="#F7DF1E"/>
<path d="M26.8638 90.7097L33.3046 86.7682C34.5486 88.996 35.6775 90.881 38.3895 90.881C40.9895 90.881 42.6269 89.8528 42.6269 85.8563V58.6668H50.5356V85.9663C50.5356 94.247 45.7386 98.0171 38.7285 98.0171C32.4028 98.0171 28.7314 94.7029 26.867 90.7064L26.8638 90.7097ZM54.8306 89.8496L61.2682 86.0794C62.9632 88.8796 65.1666 90.9295 69.065 90.9295C72.343 90.9295 74.4314 89.274 74.4314 86.988C74.4314 84.2461 72.2855 83.2761 68.6749 81.6756L66.6985 80.8187C60.9932 78.3646 57.2067 75.2799 57.2067 68.7679C57.2067 62.77 61.7255 58.2012 68.7868 58.2012C73.8141 58.2012 77.4215 59.9731 80.0279 64.5968L73.8717 68.5965C72.5157 66.1391 71.0478 65.1691 68.7868 65.1691C66.4714 65.1691 65.0003 66.6532 65.0003 68.5965C65.0003 70.9957 66.4682 71.9657 69.8582 73.4466L71.8345 74.3034C78.5504 77.2135 82.3433 80.185 82.3433 86.8684C82.3433 94.0659 76.7499 98.0074 69.2313 98.0074C61.8759 98.0074 57.1428 94.4507 54.8402 89.8399" fill="black"/>
</svg>
