<svg width="282" height="242" viewBox="0 0 282 242" fill="none" xmlns="http://www.w3.org/2000/svg">
<g clip-path="url(#clip0)">
<path d="M204.733 137.325V204.176L217.003 222.4L217.937 223.786H266.351L267.329 137.325H204.733Z" fill="#E6E6E6"/>
<path opacity="0.1" d="M204.733 137.325V204.176L217.003 222.4L217.756 137.325H204.733Z" fill="black"/>
<path d="M87.8553 135.542V202.393L75.5854 220.617L74.6516 222.003H26.2377L25.2595 135.542H87.8553Z" fill="#E6E6E6"/>
<path opacity="0.1" d="M87.8552 135.542V202.393L75.5853 220.617L74.8323 135.542H87.8552Z" fill="black"/>
<path d="M282 134.205V138.216H18.9021V132.422L43.3535 120.835H260.483L282 134.205Z" fill="#E6E6E6"/>
<path opacity="0.1" d="M282 134.206V138.217H18.9021V132.423L282 134.206Z" fill="black"/>
<path d="M56.5574 154.26H44.8205L39.9302 151.141H61.9366L56.5574 154.26Z" fill="#3F3D56"/>
<path d="M56.5574 167.185H44.8205L39.9302 164.065H61.9366L56.5574 167.185Z" fill="#3F3D56"/>
<path d="M56.5574 185.458H44.8205L39.9302 182.338H61.9366L56.5574 185.458Z" fill="#3F3D56"/>
<path d="M56.5574 203.731H44.8205L39.9302 200.611H61.9366L56.5574 203.731Z" fill="#3F3D56"/>
<path d="M236.031 156.043H247.768L252.658 152.924H230.652L236.031 156.043Z" fill="#3F3D56"/>
<path d="M236.031 168.968H247.768L252.658 165.849H230.652L236.031 168.968Z" fill="#3F3D56"/>
<path d="M236.031 187.241H247.768L252.658 184.121H230.652L236.031 187.241Z" fill="#3F3D56"/>
<path d="M236.031 205.513H247.768L252.658 202.394H230.652L236.031 205.513Z" fill="#3F3D56"/>
<path d="M244.024 43.5283H145.217C144.726 43.5283 144.24 43.6163 143.787 43.7874C143.333 43.9585 142.921 44.2094 142.574 44.5256C142.227 44.8419 141.952 45.2173 141.764 45.6305C141.577 46.0437 141.48 46.4866 141.48 46.9338V107.592C141.48 108.039 141.577 108.482 141.764 108.895C141.952 109.308 142.227 109.684 142.574 110C142.921 110.316 143.333 110.567 143.787 110.738C144.24 110.909 144.726 110.997 145.217 110.997H182.725L181.319 119.174C181.319 119.174 173.289 123.062 178.935 123.176C184.582 123.29 211.183 123.176 211.183 123.176C211.183 123.176 216.328 123.176 208.172 119.059L206.85 110.997H244.024C244.514 110.997 245 110.909 245.454 110.738C245.907 110.567 246.319 110.316 246.666 110C247.013 109.684 247.288 109.308 247.476 108.895C247.664 108.482 247.76 108.039 247.76 107.592V46.9338C247.76 46.4866 247.664 46.0437 247.476 45.6305C247.288 45.2173 247.013 44.8419 246.666 44.5256C246.319 44.2094 245.907 43.9585 245.454 43.7874C245 43.6163 244.514 43.5283 244.024 43.5283Z" fill="#3F3D56"/>
<path d="M244.184 47.1309H145.056V97.6753H244.184V47.1309Z" fill="#F2F2F2"/>
<path d="M194.62 46.1015C194.967 46.1015 195.247 45.8456 195.247 45.5298C195.247 45.214 194.967 44.958 194.62 44.958C194.274 44.958 193.993 45.214 193.993 45.5298C193.993 45.8456 194.274 46.1015 194.62 46.1015Z" fill="#F2F2F2"/>
<path d="M194.62 108.539C195.937 108.539 197.004 107.566 197.004 106.366C197.004 105.166 195.937 104.193 194.62 104.193C193.303 104.193 192.236 105.166 192.236 106.366C192.236 107.566 193.303 108.539 194.62 108.539Z" fill="#F2F2F2"/>
<path d="M190.905 129.351V130.495H123.398V129.58L123.49 129.351L125.154 125.234H189.525L190.905 129.351Z" fill="#3F3D56"/>
<path d="M216.884 128.231C216.761 128.711 216.297 129.216 215.248 129.694C211.484 131.409 203.829 129.237 203.829 129.237C203.829 129.237 197.932 128.322 197.932 125.92C198.097 125.817 198.27 125.723 198.449 125.64C200.032 124.877 205.279 122.994 214.583 125.72C215.269 125.916 215.881 126.282 216.352 126.776C216.561 126.963 216.718 127.193 216.81 127.445C216.903 127.698 216.928 127.968 216.884 128.231Z" fill="#3F3D56"/>
<path opacity="0.1" d="M216.884 128.231C212.277 129.84 208.17 129.96 203.955 127.293C202.361 126.219 200.431 125.64 198.449 125.64C200.031 124.877 205.279 122.994 214.583 125.72C215.269 125.916 215.881 126.282 216.352 126.776C216.561 126.963 216.718 127.193 216.81 127.445C216.903 127.698 216.928 127.968 216.884 128.231Z" fill="black"/>
<path d="M211.107 127.293C212.008 127.293 212.739 127.088 212.739 126.835C212.739 126.583 212.008 126.378 211.107 126.378C210.206 126.378 209.476 126.583 209.476 126.835C209.476 127.088 210.206 127.293 211.107 127.293Z" fill="#F2F2F2"/>
<path opacity="0.1" d="M190.905 129.351V130.494H123.398V129.579L123.49 129.351H190.905Z" fill="black"/>
<path d="M37.5352 0.000602803C36.8501 -0.0506619 36.1641 0.0890074 35.568 0.401103C34.9828 0.766371 34.6139 1.40628 34.2373 2.00176C32.7977 4.30568 30.8487 6.31203 28.5139 7.89369C26.8132 9.0291 24.6511 10.4448 24.9421 12.5382C25.0955 13.2295 25.3758 13.8923 25.771 14.4988C27.3399 17.385 31.6211 19.6155 31.2 22.9089C32.7587 20.5308 30.6738 19.3548 32.2325 16.9768C32.9748 15.8442 34.2643 14.5658 35.3851 15.2771C35.7603 15.5152 36.0067 15.9423 36.3974 16.1513C37.3297 16.6498 38.3216 15.6967 39.1469 15.0215C41.9926 12.6934 46.0396 13.3033 49.5808 14.0287C51.2527 14.3711 53.089 14.8204 54.0772 16.2766C55.3766 18.1912 52.8427 20.259 52.2025 22.4236C52.1502 22.6081 52.1477 22.8013 52.1953 22.9868C52.2428 23.1723 52.3389 23.3446 52.4755 23.4888C52.612 23.6331 52.7848 23.7451 52.9791 23.8152C53.1735 23.8854 53.3836 23.9115 53.5915 23.8916C54.654 23.796 55.9128 23.7177 55.9756 23.2928C57.3125 23.3362 58.9506 23.1982 59.5234 21.9295C59.6985 21.4276 59.791 20.9048 59.798 20.3781C60.0083 18.2471 61.0007 16.3029 61.6582 14.2747C62.3156 12.2464 62.6015 9.86948 61.492 8.07122C61.096 7.4729 60.6063 6.93049 60.0383 6.46113C53.742 0.908122 45.4637 -0.00763994 37.5352 0.000602803Z" fill="#2F2E41"/>
<path d="M32.5692 27.0676C32.5692 27.0676 33.9386 37.4671 28.9176 38.2991C23.8967 39.1311 33.4821 53.2744 33.4821 53.2744L56.3045 55.7703L50.8271 39.1311C50.8271 39.1311 47.1756 37.8831 49.4578 29.5635C51.74 21.2439 32.5692 27.0676 32.5692 27.0676Z" fill="#FFB8B8"/>
<path d="M18.6477 205.731L20.4737 228.611H30.0588L27.3204 205.731H18.6477Z" fill="#FFB8B8"/>
<path d="M88.9404 162.47L90.3096 181.605L100.808 177.445L96.6999 161.638L88.9404 162.47Z" fill="#FFB8B8"/>
<path d="M11.8008 118.377C11.8008 118.377 12.2572 142.503 14.9959 150.407C17.7346 158.311 17.2782 158.727 16.8217 159.975C16.3653 161.223 15.9088 160.391 15.9088 162.471C15.9088 164.55 14.9959 197.413 15.9088 200.325C16.8217 203.237 13.1701 208.228 15.9088 208.644C18.6475 209.06 31.4281 208.644 31.8845 206.148C32.341 203.653 28.2329 202.821 30.0587 201.157C31.8845 199.493 34.6232 165.382 34.6232 165.382L41.0135 141.671L52.8811 129.192H77.9858L85.7454 156.647C85.7454 156.647 82.5502 164.55 84.8325 164.55C87.1147 164.55 100.808 167.046 100.808 157.895C100.808 148.743 96.2437 121.704 95.3308 120.872C94.4179 120.04 95.7872 117.129 94.4179 115.881C93.0486 114.633 77.0729 105.897 71.1391 104.233C65.2052 102.569 56.8811 100.589 56.8811 100.589L11.8008 118.377Z" fill="#2F2E41"/>
<path d="M100.808 174.118C100.808 174.118 93.9613 172.038 90.7662 178.278C87.571 184.517 88.9404 186.181 88.9404 186.181C88.9404 186.181 99.4387 189.509 101.265 187.845C102.059 187.121 104.581 186.87 107.178 186.817C111.132 186.736 112.184 181.637 108.45 180.45C108.338 180.415 108.225 180.384 108.111 180.358C104.46 179.526 100.808 174.118 100.808 174.118Z" fill="#2F2E41"/>
<path d="M42.8394 33.9315C50.4021 33.9315 56.5329 28.3443 56.5329 21.4521C56.5329 14.5599 50.4021 8.97266 42.8394 8.97266C35.2768 8.97266 29.146 14.5599 29.146 21.4521C29.146 28.3443 35.2768 33.9315 42.8394 33.9315Z" fill="#FFB8B8"/>
<path d="M25.0379 43.4993C25.0379 43.4993 47.4039 47.6591 52.8813 41.0034C58.3586 34.3477 60.6409 59.7225 60.6409 59.7225L63.3796 86.3453L59.2715 100.905C59.2715 100.905 37.8185 116.712 30.9717 117.96C24.125 119.208 13.6267 120.04 13.6267 120.04C13.6267 120.04 16.8219 73.8659 16.8219 73.0339C16.8219 72.202 25.0379 43.4993 25.0379 43.4993Z" fill="#2A9D8F"/>
<path d="M31.8397 35.6972C31.8397 35.6972 26.8635 33.0993 25.4942 35.5951C24.1248 38.091 11.3443 44.3307 9.97493 44.3307C8.60559 44.3307 12.7136 78.8571 10.8878 83.0169C9.06204 87.1768 0.389527 117.543 5.41046 120.039C10.4314 122.535 6.7798 117.543 11.8007 123.783C16.8217 130.023 41.4699 130.023 42.8392 127.527C44.2085 125.031 31.8844 106.312 34.1667 88.8407C36.4489 71.3695 40.1005 47.2426 36.9054 43.9148C33.7102 40.5869 31.8397 35.6972 31.8397 35.6972Z" fill="#2F2E41"/>
<path d="M48.3167 38.5077L48.9524 36.5137C48.9524 36.5137 67.9439 42.2515 68.8568 45.9953C69.7697 49.7392 69.3133 75.9459 66.1181 78.0258C62.923 80.1057 58.3585 83.4336 61.5537 88.4253C64.7488 93.4171 68.4004 98.8249 71.1391 99.2408C73.8778 99.6568 78.8987 102.569 77.5293 105.481C76.16 108.392 59.7279 102.985 59.7279 102.985C59.7279 102.985 48.7731 95.497 49.2295 83.8495C49.686 72.2021 48.3167 38.5077 48.3167 38.5077Z" fill="#2F2E41"/>
<path d="M64.2924 87.5928L53.3376 106.312C53.3376 106.312 37.3619 121.287 46.4909 122.951C55.6199 124.615 60.6408 109.224 60.6408 109.224L72.5085 93.8325L64.2924 87.5928Z" fill="#FFB8B8"/>
<path d="M38.2022 3.26556C37.6502 3.22829 37.0974 3.32601 36.6007 3.54863C36.1517 3.8475 35.7816 4.23403 35.5175 4.67996C34.3001 6.34895 32.713 7.76744 30.8584 8.84433C29.474 9.64684 27.7139 10.6474 27.9508 12.127C28.0794 12.6231 28.3082 13.0931 28.6256 13.5128C29.9071 15.5734 30.4173 17.9583 30.0789 20.3067L33.8855 15.2642C34.4898 14.4637 35.5395 13.5602 36.4518 14.0629C36.7573 14.2312 36.9579 14.5331 37.276 14.6807C38.0349 15.0331 38.8423 14.3595 39.5141 13.8823C41.8307 12.2367 45.1251 12.6678 48.0078 13.1805C49.3687 13.4226 50.8635 13.7401 51.6681 14.7694C53.005 16.4797 51.609 18.9511 52.3893 20.927C52.6077 20.7877 52.7932 20.6097 52.9347 20.4038C53.0763 20.1979 53.1711 19.9682 53.2134 19.7283C54.3017 19.759 55.6352 19.6615 56.1015 18.7648C56.2433 18.4134 56.3189 18.0426 56.325 17.6683C56.4961 16.1621 57.304 14.7879 57.8392 13.3544C58.3744 11.9208 58.6072 10.2408 57.704 8.9698C57.3735 8.53916 56.9747 8.15564 56.5206 7.8318C51.3951 3.90698 44.6563 3.25973 38.2022 3.26556Z" fill="#2F2E41"/>
<path d="M64.2924 44.332L68.5452 45.3608C68.5452 45.3608 78.4423 68.4589 76.1601 84.2662C73.8779 100.073 72.5085 96.7456 72.5085 96.7456C72.5085 96.7456 68.8569 89.2579 60.6409 90.9218L64.2924 44.332Z" fill="#2F2E41"/>
<path d="M19.2799 225.587C18.1792 226.95 18.3999 228.898 17.4249 230.339C16.5798 231.588 14.987 232.242 13.9298 233.349C13.5925 233.716 13.2918 234.11 13.0313 234.527C12.0506 236.024 11.2535 237.942 12.2193 239.447C12.9963 240.658 14.6293 241.131 16.127 241.453C18.0201 241.861 19.9869 242.187 21.9018 241.876C23.8166 241.564 25.6881 240.496 26.3708 238.836C26.505 238.418 26.6645 238.008 26.8487 237.607C27.8865 235.745 31.142 235.725 32.2042 233.874C32.9475 232.579 32.2642 231.013 31.5812 229.691L29.495 225.652C28.8027 224.312 25.9963 225.082 24.5332 224.761C22.6251 224.342 20.6527 223.881 19.2799 225.587Z" fill="#2F2E41"/>
<path d="M4.04126 95.9128L23.2121 122.952C23.2121 122.952 35.0797 136.679 38.7313 130.439C42.3829 124.2 25.9508 113.8 25.9508 113.8L13.6267 93.001L4.04126 95.9128Z" fill="#FFB8B8"/>
<path d="M13.6266 45.164L9.97502 44.332C9.97502 44.332 2.67185 46.4119 0.846064 55.1475C-0.979727 63.8831 0.389613 98.8255 2.67185 99.2415C4.95409 99.6574 13.9438 93.1573 15.3828 94.5355C16.8217 95.9136 12.2573 88.8419 13.6266 85.0981C14.9959 81.3543 13.6266 45.164 13.6266 45.164Z" fill="#2F2E41"/>
<path d="M210.601 63.2103C210.082 63.0369 209.559 62.8764 209.032 62.7285C209.119 62.3824 209.2 62.0345 209.274 61.6847C210.462 56.0637 209.686 51.5353 207.032 50.045C204.488 48.6151 200.327 50.1062 196.124 53.6688C195.71 54.0215 195.305 54.3835 194.91 54.7546C194.645 54.5073 194.375 54.2649 194.102 54.0274C189.699 50.2171 185.287 48.612 182.633 50.1069C180.092 51.5407 179.337 55.7976 180.409 61.125C180.513 61.6526 180.633 62.1772 180.769 62.6987C180.145 62.8715 179.541 63.0558 178.964 63.2523C173.801 65.0026 170.503 67.7554 170.503 70.6069C170.503 73.5516 174.043 76.5055 179.421 78.2964C179.858 78.4406 180.297 78.5747 180.74 78.6986C180.596 79.2593 180.469 79.8247 180.357 80.3946C179.337 85.6295 180.134 89.7862 182.669 91.2108C185.287 92.6835 189.682 91.1695 193.961 87.5251C194.299 87.2368 194.638 86.931 194.981 86.6113C195.409 87.0135 195.848 87.404 196.298 87.7828C200.443 91.2582 204.538 92.6621 207.07 91.233C209.686 89.7579 210.535 85.2923 209.432 79.8601C209.348 79.4451 209.251 79.0218 209.139 78.59C209.449 78.5013 209.751 78.4093 210.047 78.3139C215.637 76.5093 219.275 73.5914 219.275 70.6069C219.275 67.7447 215.871 64.9774 210.604 63.2103H210.601Z" fill="#53C1DE"/>
<path d="M209.271 76.43C209.006 76.517 208.735 76.6002 208.458 76.6819C207.782 74.6077 206.964 72.5817 206.009 70.6179C206.927 68.6802 207.714 66.684 208.363 64.6425C208.857 64.7842 209.338 64.9336 209.801 65.0915C214.277 66.6158 217.007 68.8702 217.007 70.6079C217.007 72.4564 214.058 74.8603 209.271 76.43ZM207.285 80.3258C207.769 82.7451 207.837 84.9325 207.518 86.6416C207.23 88.1782 206.651 89.2026 205.935 89.6132C204.41 90.4858 201.151 89.3513 197.635 86.3574C197.232 86.0139 196.827 85.6481 196.419 85.2599C197.884 83.654 199.239 81.952 200.473 80.1656C202.677 79.9808 204.866 79.6462 207.024 79.1643C207.122 79.5586 207.21 79.9438 207.286 80.3196L207.285 80.3258ZM187.195 89.4637C185.706 89.9844 184.519 89.9991 183.803 89.5901C182.277 88.7189 181.643 85.3538 182.508 80.848C182.612 80.3155 182.73 79.7859 182.861 79.259C185.01 79.7157 187.188 80.0278 189.379 80.1933C190.649 81.9735 192.036 83.6691 193.531 85.2691C193.231 85.5572 192.924 85.8373 192.61 86.1094C190.733 87.7331 188.852 88.8822 187.195 89.4637ZM180.219 76.4184C177.86 75.6205 175.912 74.5838 174.577 73.4531C173.377 72.4364 172.772 71.4266 172.772 70.6079C172.772 68.8648 175.398 66.6412 179.777 65.1308C180.327 64.9413 180.882 64.7685 181.441 64.6124C182.092 66.6765 182.879 68.6958 183.799 70.6571C182.868 72.6466 182.071 74.6947 181.413 76.7881C181.011 76.6747 180.613 76.5514 180.219 76.4184ZM182.557 60.6642C181.648 56.0668 182.252 52.5984 183.771 51.7296C185.389 50.8054 188.967 52.124 192.738 55.4383C192.98 55.6501 193.222 55.8719 193.464 56.1007C191.979 57.6909 190.603 59.3767 189.344 61.1472C187.173 61.3398 185.017 61.6715 182.89 62.14C182.766 61.6512 182.655 61.1595 182.557 60.665V60.6642ZM203.424 65.7624C202.952 64.9541 202.461 64.1562 201.954 63.3685C203.497 63.5618 204.975 63.8175 206.364 64.1318C205.918 65.5305 205.402 66.9061 204.816 68.2533C204.369 67.4137 203.905 66.5834 203.424 65.7624ZM194.913 57.5618C195.919 58.647 196.869 59.7817 197.759 60.9615C195.854 60.8727 193.949 60.8727 192.042 60.9615C192.982 59.7353 193.945 58.5954 194.913 57.5625V57.5618ZM186.352 65.7762C185.877 66.5911 185.422 67.4163 184.986 68.2517C184.384 66.8399 183.87 65.4512 183.449 64.1102C184.829 63.8021 186.301 63.5549 187.834 63.3647C187.32 64.1575 186.825 64.9613 186.35 65.7762H186.352ZM187.878 77.9959C186.381 77.8351 184.894 77.5983 183.422 77.2865C183.849 75.9224 184.376 74.5037 184.99 73.061C185.428 73.8975 185.885 74.7232 186.361 75.5381C186.846 76.3694 187.351 77.1887 187.876 77.9959H187.878ZM194.971 83.798C193.991 82.7551 193.014 81.5997 192.061 80.3512C192.987 80.3877 193.931 80.4059 194.891 80.4059C195.877 80.4059 196.85 80.3843 197.81 80.3412C196.924 81.5408 195.976 82.6946 194.97 83.798H194.971ZM204.831 72.9879C205.447 74.3623 205.991 75.7676 206.46 77.1979C204.969 77.5297 203.463 77.784 201.945 77.9597C202.457 77.1571 202.952 76.345 203.43 75.5234C203.917 74.6885 204.384 73.8433 204.831 72.9879ZM201.64 74.5021C200.908 75.7612 200.134 76.9961 199.32 78.2069C197.885 78.3086 196.402 78.3609 194.891 78.3609C193.38 78.3609 191.922 78.3147 190.512 78.2238C189.677 77.0172 188.888 75.7804 188.146 74.5137C187.404 73.2469 186.717 71.9611 186.083 70.6564C186.72 69.3455 187.405 68.0592 188.14 66.7975C188.874 65.5364 189.655 64.3041 190.485 63.1005C191.924 62.9926 193.398 62.9364 194.889 62.9364C196.381 62.9364 197.864 62.9934 199.302 63.1012C200.122 64.3012 200.9 65.5287 201.636 66.7837C202.373 68.0386 203.068 69.319 203.721 70.6248C203.076 71.9403 202.383 73.2318 201.643 74.499L201.64 74.5021ZM205.903 51.668C207.523 52.5923 208.152 56.3202 207.135 61.2088C207.068 61.5266 206.996 61.8437 206.917 62.16C204.786 61.682 202.626 61.3442 200.45 61.1487C199.204 59.3767 197.838 57.6897 196.362 56.0991C196.725 55.753 197.096 55.4164 197.474 55.0893C201.045 52.0138 204.382 50.8 205.903 51.668Z" fill="#F2F2F2"/>
<path d="M194.889 66.4941C195.749 66.4941 196.59 66.7377 197.305 67.194C198.02 67.6502 198.577 68.2988 198.906 69.0575C199.235 69.8163 199.321 70.6512 199.154 71.4567C198.986 72.2622 198.572 73.0021 197.964 73.5829C197.356 74.1636 196.581 74.5591 195.738 74.7193C194.894 74.8795 194.02 74.7973 193.226 74.483C192.431 74.1687 191.752 73.6365 191.274 72.9536C190.796 72.2707 190.542 71.4679 190.542 70.6466C190.541 70.1013 190.654 69.5613 190.872 69.0574C191.091 68.5536 191.411 68.0958 191.815 67.7102C192.218 67.3245 192.698 67.0187 193.225 66.81C193.753 66.6014 194.318 66.494 194.889 66.4941Z" fill="#53C1DE"/>
</g>
<defs>
<clipPath id="clip0">
<rect width="282" height="242" fill="white"/>
</clipPath>
</defs>
</svg>
