<svg width="71" height="27" viewBox="0 0 71 27" fill="currentColor" xmlns="http://www.w3.org/2000/svg">
<path d="M37.9283 22.7863C37.5059 22.7863 37.1386 22.7087 36.8265 22.5537C36.5326 22.4159 36.2939 22.2264 36.1102 21.9853C35.9266 21.7442 35.8072 21.4685 35.7521 21.1585C35.697 20.8313 35.7154 20.4868 35.8072 20.125C35.8623 19.8838 35.9542 19.5652 36.0827 19.169C36.2112 18.7556 36.3398 18.3164 36.4683 17.8513C36.6153 17.369 36.7438 16.8953 36.854 16.4303C36.9825 15.948 37.0652 15.5174 37.1019 15.1384C37.1386 14.7422 37.1203 14.4236 37.0468 14.1824C36.9734 13.924 36.8173 13.7949 36.5786 13.7949C36.2847 13.7949 35.9817 13.8896 35.6695 14.0791C35.3573 14.2513 35.036 14.4924 34.7054 14.8025C34.3932 15.1125 34.0718 15.4743 33.7413 15.8877C33.429 16.2839 33.1169 16.6972 32.8046 17.1279C32.6394 17.7135 32.5016 18.2303 32.3915 18.6782C32.2813 19.1088 32.1803 19.5049 32.0885 19.8667C32.015 20.2112 31.9416 20.5212 31.868 20.7967C31.7946 21.0552 31.7304 21.3049 31.6753 21.5461C31.6201 21.7183 31.4549 21.8905 31.1795 22.0628C30.9039 22.2179 30.6102 22.347 30.2979 22.4504C29.9857 22.5537 29.7194 22.6054 29.4991 22.6054C29.2604 22.6054 29.1593 22.5279 29.1961 22.3728C29.2144 22.2695 29.2787 22.0369 29.3889 21.6753C29.4807 21.3135 29.6001 20.8915 29.747 20.4092C29.8755 19.9097 30.0133 19.3843 30.1602 18.8331C30.3071 18.282 30.4448 17.7566 30.5734 17.257C30.6652 16.8609 30.7662 16.4217 30.8764 15.9394C30.9683 15.526 31.0784 15.0437 31.2069 14.4924C31.3538 13.9413 31.5192 13.3384 31.7028 12.6838C31.8313 12.5805 31.9599 12.503 32.0885 12.4513C32.2354 12.3824 32.3822 12.3308 32.5292 12.2963C32.6761 12.2446 32.8322 12.2102 32.9975 12.1929C33.1444 12.1929 33.2913 12.2015 33.4382 12.2188C33.5668 12.236 33.6953 12.2705 33.8239 12.3222C33.9708 12.3566 34.0993 12.4169 34.2095 12.503C34.1544 12.6235 34.0902 12.7958 34.0167 13.0197C33.9432 13.2265 33.8698 13.4504 33.7963 13.6915C33.7229 13.9671 33.6311 14.2513 33.5209 14.5441C33.7596 14.2341 34.0259 13.924 34.3197 13.614C34.6319 13.2867 34.9625 12.9939 35.3114 12.7355C35.6787 12.4771 36.0644 12.2705 36.4683 12.1154C36.8723 11.9432 37.2856 11.857 37.7079 11.857C38.0569 11.857 38.3691 11.9518 38.6445 12.1413C38.92 12.3308 39.1312 12.5977 39.2781 12.9423C39.4434 13.2695 39.5352 13.6657 39.5535 14.1308C39.5903 14.5958 39.526 15.104 39.3607 15.6552L39.0577 16.792C38.9659 17.1537 38.8465 17.5844 38.6996 18.0838C38.5711 18.5662 38.4058 19.1001 38.2038 19.6858C38.0936 20.0648 38.0477 20.392 38.066 20.6676C38.1028 20.9432 38.2864 21.081 38.617 21.081C38.9475 21.081 39.3607 20.8915 39.8565 20.5125C40.3708 20.1336 40.885 19.6772 41.3992 19.1432C41.9134 18.6092 42.4001 18.0666 42.8591 17.5154C43.3182 16.947 43.6672 16.4905 43.9059 16.1461C44.0712 15.9221 44.2273 15.7757 44.3742 15.7068C44.5211 15.6379 44.6313 15.6293 44.7047 15.681C44.7966 15.7326 44.8425 15.8533 44.8425 16.0427C44.8425 16.2149 44.769 16.4389 44.6222 16.7145C44.4936 16.9557 44.2916 17.2743 44.0161 17.6705C43.759 18.0666 43.4468 18.4887 43.0795 18.9365C42.7122 19.3843 42.3174 19.8408 41.895 20.3059C41.4726 20.7537 41.0319 21.1671 40.5728 21.5461C40.1137 21.9078 39.6546 22.2006 39.1955 22.4245C38.7547 22.6657 38.3323 22.7863 37.9283 22.7863ZM55.2551 16.7662C54.7041 17.5241 54.0797 18.2647 53.3819 18.9881C52.6841 19.6944 51.9403 20.3317 51.1506 20.9001C50.3794 21.4514 49.5805 21.8991 48.7541 22.2437C47.9461 22.5882 47.1564 22.7604 46.3851 22.7604C45.9811 22.7604 45.5403 22.6657 45.0629 22.4762C44.6038 22.304 44.1814 22.0284 43.7957 21.6494C43.41 21.2704 43.0979 20.7796 42.8591 20.1767C42.6388 19.5738 42.5745 18.8417 42.6663 17.9805C42.7398 17.2743 42.9694 16.5336 43.355 15.7585C43.759 14.9661 44.2457 14.2427 44.815 13.5881C45.4026 12.9336 46.0545 12.391 46.7708 11.9604C47.5053 11.5298 48.2399 11.3145 48.9745 11.3145C49.6723 11.3145 50.1774 11.4781 50.4895 11.8054C50.8018 12.1327 50.9395 12.5374 50.9027 13.0197C50.8476 13.5537 50.6824 14.0447 50.4069 14.4924C50.1498 14.9403 49.8376 15.3451 49.4703 15.7068C49.103 16.0685 48.7082 16.3958 48.2858 16.6886C47.8818 16.9814 47.4962 17.2485 47.1289 17.4896C46.7248 17.748 46.3392 17.9977 45.9719 18.2389C45.6046 18.4628 45.2833 18.6695 45.0077 18.859C45.0261 19.2896 45.1088 19.6513 45.2557 19.9441C45.4026 20.237 45.5863 20.4781 45.8066 20.6676C46.027 20.8398 46.2749 20.9691 46.5504 21.0552C46.8442 21.124 47.138 21.1585 47.4319 21.1585C48.0563 21.1585 48.7082 20.9777 49.3877 20.6159C50.0671 20.237 50.7283 19.7891 51.3711 19.2724C52.0321 18.7384 52.6382 18.1872 53.1891 17.6188C53.7584 17.0504 54.2267 16.5595 54.5939 16.1461C54.7226 16.0083 54.8511 15.9307 54.9796 15.9135C55.1265 15.879 55.2367 15.8963 55.3102 15.9652C55.402 16.0168 55.4479 16.1202 55.4479 16.2753C55.4479 16.413 55.3837 16.5767 55.2551 16.7662ZM48.2031 12.7872C47.9828 12.7872 47.7165 12.8906 47.4043 13.0972C47.1105 13.3039 46.8166 13.6054 46.5229 14.0016C46.229 14.3805 45.9536 14.8542 45.6964 15.4226C45.4394 15.9738 45.2465 16.6111 45.118 17.3346C45.3383 17.1795 45.5771 17.0245 45.8342 16.8695C46.0913 16.6972 46.3484 16.5164 46.6054 16.3269C47.3952 15.7585 47.9461 15.259 48.2583 14.8283C48.5705 14.3977 48.7449 14.0274 48.7817 13.7173C48.8184 13.39 48.7817 13.1575 48.6715 13.0197C48.5613 12.8647 48.4052 12.7872 48.2031 12.7872ZM57.1558 21.2619C57.266 21.3307 57.4037 21.3652 57.569 21.3652C57.7526 21.3652 57.9271 21.3307 58.0924 21.2619C58.2761 21.1929 58.4413 21.0982 58.5882 20.9777C58.7535 20.8571 58.8728 20.702 58.9463 20.5125C59.0198 20.3231 59.0198 20.0561 58.9463 19.7116C58.8728 19.3499 58.7535 18.971 58.5882 18.5748C58.4413 18.1614 58.2761 17.748 58.0924 17.3346C57.9087 16.9212 57.7526 16.5422 57.6241 16.1978C57.5139 15.9394 57.4221 15.6982 57.3486 15.4743C57.2751 15.2848 57.2017 15.1039 57.1283 14.9317C57.0732 14.7422 57.0272 14.6131 56.9905 14.5441C56.8987 14.6819 56.7334 14.9059 56.4947 15.2159C56.2743 15.526 56.0264 15.8533 55.7509 16.1978C55.4938 16.525 55.2459 16.835 55.0072 17.1279C54.7684 17.4034 54.6032 17.5929 54.5114 17.6963C54.3644 17.8513 54.2175 17.9461 54.0706 17.9805C53.9421 17.9977 53.8318 17.9719 53.74 17.903C53.6482 17.8169 53.5931 17.7049 53.5748 17.5671C53.5748 17.4121 53.6482 17.2312 53.7951 17.0245C53.9053 16.8867 54.0706 16.6715 54.2909 16.3786C54.5114 16.0685 54.7317 15.7585 54.9521 15.4484C55.1725 15.1212 55.3744 14.837 55.5581 14.5958C55.7418 14.3375 55.8428 14.1824 55.8612 14.1308C55.8979 13.993 55.8428 13.8121 55.6958 13.5881C55.5673 13.3643 55.5489 13.1058 55.6407 12.813C55.7142 12.5719 55.8795 12.2963 56.1366 11.9863C56.3937 11.659 56.6967 11.3662 57.0456 11.1078C57.3945 10.8494 57.7526 10.6599 58.1199 10.5394C58.4873 10.4016 58.8178 10.4016 59.1116 10.5394C59.3503 10.6771 59.5432 10.8322 59.6901 11.0044C59.837 11.1595 59.8921 11.3231 59.8554 11.4953C59.8186 11.5814 59.7635 11.6934 59.6901 11.8312C59.6166 11.969 59.5064 12.1413 59.3596 12.348C59.2126 12.5374 59.0014 12.7872 58.726 13.0972C58.781 13.4934 58.8545 13.8552 58.9463 14.1824C59.0566 14.5097 59.1575 14.7939 59.2493 15.0351C59.3596 15.3279 59.4789 15.5948 59.6075 15.836C59.7727 16.1461 59.9472 16.4647 60.1308 16.792C60.3144 17.1192 60.4798 17.4465 60.6267 17.7738C60.7736 18.0838 60.893 18.3767 60.9848 18.6523C61.0766 18.9279 61.1042 19.1604 61.0674 19.3499C61.0123 19.6427 60.847 19.9958 60.5716 20.4092C60.3144 20.8226 59.9839 21.2274 59.5799 21.6236C59.1942 22.0025 58.7443 22.3298 58.2301 22.6054C57.7343 22.881 57.2109 23.0188 56.66 23.0188C56.2743 23.0188 55.8979 22.9068 55.5306 22.6829C55.1816 22.459 54.8786 22.2006 54.6215 21.9078C54.3828 21.5978 54.1991 21.2963 54.0706 21.0035C53.9604 20.7106 53.9512 20.4868 54.043 20.3317C54.1532 20.125 54.2542 19.9614 54.346 19.8408C54.4379 19.7202 54.5756 19.5825 54.7593 19.4274C54.8327 19.3757 54.9245 19.3154 55.0347 19.2466C55.1265 19.1949 55.2551 19.1432 55.4204 19.0915C55.5856 19.0398 55.7785 18.9795 55.9988 18.9107C56.1825 19.4447 56.3478 19.8667 56.4947 20.1767C56.6416 20.4695 56.7609 20.702 56.8528 20.8743C56.963 21.0638 57.0639 21.1929 57.1558 21.2619ZM67.0726 21.2619C67.1827 21.3307 67.3205 21.3652 67.4857 21.3652C67.6694 21.3652 67.8439 21.3307 68.0092 21.2619C68.1928 21.1929 68.358 21.0982 68.505 20.9777C68.6703 20.8571 68.7897 20.702 68.8631 20.5125C68.9365 20.3231 68.9365 20.0561 68.8631 19.7116C68.7897 19.3499 68.6703 18.971 68.505 18.5748C68.358 18.1614 68.1928 17.748 68.0092 17.3346C67.8255 16.9212 67.6694 16.5422 67.5408 16.1978C67.4306 15.9394 67.3388 15.6982 67.2654 15.4743C67.192 15.2848 67.1185 15.1039 67.045 14.9317C66.9899 14.7422 66.944 14.6131 66.9073 14.5441C66.8155 14.6819 66.6502 14.9059 66.4115 15.2159C66.191 15.526 65.9431 15.8533 65.6677 16.1978C65.4106 16.525 65.1627 16.835 64.9239 17.1279C64.6852 17.4034 64.5199 17.5929 64.4281 17.6963C64.2812 17.8513 64.1343 17.9461 63.9873 17.9805C63.8588 17.9977 63.7486 17.9719 63.6568 17.903C63.565 17.8169 63.5098 17.7049 63.4915 17.5671C63.4915 17.4121 63.565 17.2312 63.7119 17.0245C63.8221 16.8867 63.9873 16.6715 64.2077 16.3786C64.4281 16.0685 64.6485 15.7585 64.8688 15.4484C65.0892 15.1212 65.2912 14.837 65.4749 14.5958C65.6585 14.3375 65.7595 14.1824 65.7779 14.1308C65.8146 13.993 65.7595 13.8121 65.6126 13.5881C65.4841 13.3643 65.4657 13.1058 65.5575 12.813C65.631 12.5719 65.7962 12.2963 66.0534 11.9863C66.3104 11.659 66.6134 11.3662 66.9624 11.1078C67.3113 10.8494 67.6694 10.6599 68.0367 10.5394C68.404 10.4016 68.7346 10.4016 69.0283 10.5394C69.2671 10.6771 69.4599 10.8322 69.6069 11.0044C69.7538 11.1595 69.8088 11.3231 69.7721 11.4953C69.7354 11.5814 69.6803 11.6934 69.6069 11.8312C69.5334 11.969 69.4232 12.1413 69.2763 12.348C69.1294 12.5374 68.9182 12.7872 68.6427 13.0972C68.6978 13.4934 68.7713 13.8552 68.8631 14.1824C68.9733 14.5097 69.0743 14.7939 69.1661 15.0351C69.2763 15.3279 69.3957 15.5948 69.5242 15.836C69.6894 16.1461 69.8639 16.4647 70.0476 16.792C70.2312 17.1192 70.3965 17.4465 70.5435 17.7738C70.6904 18.0838 70.8097 18.3767 70.9016 18.6523C70.9934 18.9279 71.0209 19.1604 70.9841 19.3499C70.9291 19.6427 70.7638 19.9958 70.4883 20.4092C70.2312 20.8226 69.9006 21.2274 69.4967 21.6236C69.111 22.0025 68.6611 22.3298 68.1469 22.6054C67.6511 22.881 67.1276 23.0188 66.5767 23.0188C66.191 23.0188 65.8146 22.9068 65.4473 22.6829C65.0984 22.459 64.7954 22.2006 64.5382 21.9078C64.2996 21.5978 64.1159 21.2963 63.9873 21.0035C63.8772 20.7106 63.868 20.4868 63.9598 20.3317C64.07 20.125 64.171 19.9614 64.2628 19.8408C64.3546 19.7202 64.4924 19.5825 64.676 19.4274C64.7494 19.3757 64.8413 19.3154 64.9515 19.2466C65.0433 19.1949 65.1718 19.1432 65.3371 19.0915C65.5024 19.0398 65.6952 18.9795 65.9156 18.9107C66.0992 19.4447 66.2645 19.8667 66.4115 20.1767C66.5583 20.4695 66.6777 20.702 66.7695 20.8743C66.8797 21.0638 66.9808 21.1929 67.0726 21.2619Z" fill="#2A9D8F"/>
<path d="M26.3621 21.6517C26.7844 21.6517 26.9956 21.8498 26.9956 22.2459C26.9956 23.7445 26.2059 25.0019 24.6266 26.0182C23.5615 26.6728 22.3127 27 20.8803 27C19.705 27 18.8051 26.7416 18.1807 26.2249C17.0605 25.2948 16.5003 24.1579 16.5003 22.8144C16.5003 21.1091 17.2625 18.4995 18.7867 14.9856C15.9586 18.5684 13.9753 20.9541 12.8367 22.1426C11.6981 23.3139 10.7064 24.2268 9.86165 24.8813C8.02521 26.2938 6.36325 27 4.87576 27C2.59855 27 1.08349 26.0785 0.330553 24.2354C0.110182 23.667 0 23.021 0 22.2976C0 21.557 0.128545 20.7388 0.385652 19.8431C0.661114 18.9302 1.01004 17.9828 1.43242 17.0009C1.8548 16.0192 2.31391 15.0115 2.80974 13.978L4.29722 10.8775C6.20717 6.89857 6.91416 4.5388 6.41836 3.79809C6.19801 3.47082 5.78479 3.14355 5.17877 2.81627C4.95834 2.6957 4.84821 2.489 4.84821 2.19617C4.84821 1.88613 4.97674 1.5933 5.23388 1.31771C5.50933 1.04211 5.85821 0.800962 6.28059 0.594265C7.18045 0.198094 8.08032 0 8.98018 0C9.88005 0 10.5595 0.0947408 11.0187 0.284214C11.4961 0.456464 11.8817 0.680385 12.1756 0.955987C12.7816 1.52441 13.0846 2.15311 13.0846 2.84211C13.0846 3.53111 12.9652 4.30623 12.7265 5.16749C12.4877 6.01152 12.1756 6.933 11.7899 7.9321C11.4042 8.93111 10.9819 9.96456 10.5228 11.0325C9.25564 13.823 8.40172 15.666 7.96095 16.5617L6.94171 18.5512C6.3724 19.7397 6.08779 20.5751 6.08779 21.0574C6.08779 21.5397 6.17045 21.8842 6.33569 22.0909C6.50102 22.2804 6.79478 22.3752 7.21716 22.3752C7.65794 22.3752 8.16298 22.1857 8.73228 21.8067C9.30159 21.4278 9.92592 20.9196 10.6054 20.2823C11.2849 19.645 11.9919 18.9129 12.7265 18.0862C13.4611 17.2421 14.1773 16.3722 14.8751 15.4765C16.2524 13.7196 17.2625 12.3072 17.9053 11.2393C21.7985 4.77991 23.8737 1.40383 24.1308 1.11101C24.7184 0.370335 25.3153 0 25.9213 0C26.5457 0 27.0875 0.0689046 27.5465 0.206706C28.0056 0.327275 28.4005 0.508136 28.731 0.74929C29.5024 1.28325 29.7503 1.81723 29.4748 2.3512C24.9939 11.1186 22.579 16.6306 22.2301 18.8871C22.1382 19.6622 22.0923 20.1962 22.0923 20.489C22.0923 21.7981 22.5147 22.4526 23.3595 22.4526C24.1491 22.4526 24.8011 22.3235 25.3153 22.0651C25.8295 21.7895 26.1784 21.6517 26.3621 21.6517Z" fill="#2A9D8F"/>
</svg>
